<svg width="10" height="10" viewBox="0 0 10 10" fill="none" xmlns="http://www.w3.org/2000/svg">
<path d="M7.27131 2.78195C7.48343 2.57078 7.48343 2.22666 7.27131 2.01549L6.49093 1.23449L6.49204 1.23561C6.2855 1.02891 5.93048 0.673606 5.42808 0.171937C5.1914 -0.0593444 4.80846 -0.0571098 4.57401 0.177524L0.177504 4.57411C0.121253 4.63002 0.0766112 4.69652 0.0461474 4.76977C0.0156835 4.84302 0 4.92157 0 5.00092C0 5.08026 0.0156835 5.15882 0.0461474 5.23207C0.0766112 5.30532 0.121253 5.37181 0.177504 5.42773L4.5729 9.82319C4.68622 9.93641 4.8398 10 4.99993 10C5.16006 10 5.31364 9.93641 5.42697 9.82319L7.2702 7.97964C7.48232 7.76847 7.48232 7.42434 7.2702 7.21317C7.16831 7.11172 7.03043 7.05476 6.8867 7.05476C6.74297 7.05476 6.60509 7.11172 6.50321 7.21317L5.10767 8.61204C5.04961 8.67014 4.95918 8.67014 4.90113 8.61204L1.38995 5.10147C1.33189 5.04337 1.33189 4.95287 1.38995 4.89477L4.90001 1.38421C4.90448 1.37974 4.91006 1.37639 4.91452 1.37192C4.97258 1.32611 5.05296 1.33058 5.10655 1.38421L6.50432 2.78195C6.71644 2.99424 7.06031 2.99424 7.27131 2.78195ZM3.83605 5.02326C3.83605 5.33796 3.96108 5.63977 4.18365 5.8623C4.40621 6.08482 4.70807 6.20984 5.02282 6.20984C5.33757 6.20984 5.63943 6.08482 5.86199 5.8623C6.08455 5.63977 6.20958 5.33796 6.20958 5.02326C6.20958 4.70856 6.08455 4.40675 5.86199 4.18423C5.63943 3.9617 5.33757 3.83669 5.02282 3.83669C4.70807 3.83669 4.40621 3.9617 4.18365 4.18423C3.96108 4.40675 3.83605 4.70856 3.83605 5.02326ZM9.82236 4.59198L8.45026 3.22552C8.23814 3.01435 7.89428 3.01435 7.68327 3.22664C7.63284 3.27689 7.59283 3.33661 7.56552 3.40237C7.53822 3.46814 7.52416 3.53866 7.52416 3.60988C7.52416 3.68109 7.53822 3.75161 7.56552 3.81738C7.59283 3.88314 7.63284 3.94286 7.68327 3.99311L8.60991 4.91935C8.66797 4.97745 8.66797 5.06795 8.60991 5.12605L7.69667 6.03889C7.64624 6.08914 7.60622 6.14886 7.57892 6.21462C7.55161 6.28039 7.53756 6.35091 7.53756 6.42212C7.53756 6.49334 7.55161 6.56386 7.57892 6.62963C7.60622 6.69539 7.64624 6.75511 7.69667 6.80536C7.79856 6.90682 7.93644 6.96377 8.08017 6.96377C8.22389 6.96377 8.36178 6.90682 8.46366 6.80536L9.82347 5.4456C9.87953 5.38955 9.92398 5.32297 9.95427 5.24969C9.98456 5.17641 10.0001 5.09787 10 5.01856C9.9999 4.93926 9.98415 4.86075 9.95367 4.78755C9.92318 4.71435 9.87856 4.64789 9.82236 4.59198Z" fill="white"/>
</svg>
