<svg width="4" height="10" viewBox="0 0 4 10" fill="none" xmlns="http://www.w3.org/2000/svg">
<path d="M3.91899 3.96873C3.45009 1.64947 2.34224 0.888993 2.2232 0.597561C2.09246 0.390869 1.95168 0 1.95168 0C1.95028 0.00813008 1.95028 0.0131332 1.94889 0.0212633V0.0262664C1.94889 0.032833 1.94749 0.03596 1.94749 0.0425266V0.0490932H1.9461C1.9461 0.0522201 1.9461 0.0556598 1.9461 0.0587867V0.0700438H1.94471C1.94471 0.0731707 1.94471 0.0781739 1.94331 0.0797373V0.0894309C1.94331 0.0925578 1.94331 0.0959975 1.94192 0.097561V0.105691C1.94192 0.110694 1.94192 0.115385 1.94052 0.118824V0.120388C1.94052 0.126954 1.93913 0.135084 1.93774 0.141651V0.144778C1.93634 0.146341 1.93634 0.147905 1.93634 0.149781V0.156348H1.93495V0.166041H1.93356V0.172608H1.93077V0.182301H1.92937V0.190432H1.92798V0.196998H1.92659V0.203565H1.92519V0.210131H1.9238V0.216698H1.9224V0.221701H1.92101V0.228268H1.91962V0.229831V0.234834H1.91822C1.91683 0.234834 1.91683 0.236398 1.91683 0.236398V0.239525L1.91543 0.242652C1.91543 0.245779 1.91404 0.249218 1.91265 0.252345C1.91125 0.253909 1.91125 0.253909 1.91125 0.255472V0.258599H1.90986V0.261726H1.90707V0.269856H1.90428V0.274859H1.90289V0.276423H1.9015V0.27955H1.9001V0.284553H1.89871V0.28768H1.89592V0.292683H1.89453V0.29581H1.89313V0.298937H1.89174V0.30394H1.89034V0.307067H1.88895V0.30863H1.88756V0.311757H1.88477V0.31676H1.88338V0.318324H1.88198V0.321451H1.88059V0.326454H1.87919V0.328017H1.8778V0.331144H1.87641V0.332708H1.87501V0.337711H1.87222V0.339274H1.87083V0.342401H1.86944V0.343965H1.86804V0.347092H1.86665C1.86665 0.348655 1.86665 0.348655 1.86665 0.348655V0.350219C1.86526 0.350219 1.86525 0.351782 1.86525 0.351782V0.353346H1.86386C1.86247 0.356473 1.86107 0.358349 1.8594 0.361476C1.8594 0.361476 1.85661 0.364603 1.85661 0.366479C1.85522 0.366479 1.85522 0.368042 1.85522 0.368042V0.369606H1.85383V0.371169H1.85243C1.85243 0.371169 1.85243 0.371169 1.85243 0.372733V0.374296H1.84964V0.37586H1.84825V0.377423H1.84686V0.378987V0.382114H1.84546V0.383677H1.84407V0.385241H1.84267V0.388368H1.84128V0.385241H1.83849V0.386804H1.8371V0.389931H1.8357V0.393058H1.83431V0.394622H1.83292V0.396185H1.83152V0.397749H1.83013V0.400876H1.82734V0.402439H1.82595V0.405566H1.82455V0.407129H1.82316V0.408693H1.82177V0.413696H1.82037V0.415259H1.81898V0.416823H1.81758V0.418386H1.81619V0.41995H1.8134V0.423077H1.81201V0.42464H1.81062V0.426204H1.80922V0.429331H1.80783V0.430894H1.80504V0.432458H1.80365V0.434021H1.80225V0.437148H1.80086V0.440275H1.79946V0.441839H1.79807V0.443402H1.79528V0.444966H1.79389V0.446529H1.79249V0.449656H1.7911V0.451219H1.78971V0.454346H1.78831V0.45591H1.78692V0.457473H1.78553V0.459037H1.78413V0.4606H1.78134V0.462164C1.77995 0.462164 1.77995 0.463727 1.77995 0.463727L1.77856 0.465291L1.77716 0.466854V0.469981H1.77577V0.471545H1.77437V0.473108H1.77298V0.474672H1.77159L1.7688 0.477799V0.479362C1.76601 0.480926 1.76601 0.482489 1.76294 0.485929C1.76294 0.485929 1.76016 0.489056 1.75848 0.489056C1.75402 0.492183 1.74845 0.498749 1.74399 0.503752C1.7412 0.505316 1.73813 0.508755 1.73535 0.510319C1.72949 0.516886 1.72364 0.521576 1.71778 0.526579C1.70914 0.536273 1.70022 0.542839 1.69018 0.552533H1.68879C1.66844 0.572233 1.6453 0.594747 1.62049 0.61945H1.6191C1.55665 0.681363 1.4825 0.761101 1.39831 0.855535L1.39106 0.863665C0.88564 1.44997 0.0886228 2.67292 0.00582665 4.64853C-0.00281537 4.81144 -0.00142173 4.97092 0.0072203 5.1257V5.12883C0.0479214 5.90744 0.265645 6.57192 0.538565 7.11257C0.645894 7.3277 0.763537 7.52314 0.882574 7.69887C1.29209 8.30488 1.71026 8.66479 1.81619 8.75266C1.98039 9.17761 1.96561 9.91057 1.96561 9.91057L2.20508 10C2.20508 10 2.15574 9.29143 2.22404 8.94778C2.24578 8.84178 2.29513 8.75078 2.35339 8.67261C2.39409 8.64165 2.51034 8.54722 2.64973 8.404C2.65698 8.39587 2.66144 8.38931 2.66729 8.38118C3.23209 7.78987 4.28781 6.33396 3.92624 3.96279L3.91899 3.96873Z" fill="white"/>
</svg>
