<svg width="15" height="2" viewBox="0 0 15 2" fill="none" xmlns="http://www.w3.org/2000/svg">
<g clip-path="url(#clip0_7_283)">
<path d="M6.46689 1.30133H7.4565L6.93377 0.434665L5.97273 2H5.53572L6.70455 0.121999C6.73003 0.0845238 6.76389 0.0538637 6.80328 0.0325869C6.84268 0.01131 6.88647 3.61862e-05 6.93098 -0.000290249C6.9755 -0.000616685 7.01944 0.0100138 7.05913 0.0307107C7.09882 0.0514075 7.1331 0.081568 7.1591 0.118665L8.33117 2H7.89416L7.68832 1.65H6.68702L6.46884 1.30133M11.0097 1.65V0.0186653H10.6383V1.81067C10.6382 1.83557 10.6431 1.86023 10.6526 1.88314C10.6621 1.90606 10.676 1.92677 10.6935 1.944C10.7111 1.96246 10.7321 1.97712 10.7553 1.98708C10.7785 1.99704 10.8034 2.00212 10.8286 2.002H12.5169L12.737 1.652H11.0078M4.86884 1.35867C5.04192 1.35867 5.20791 1.28808 5.33029 1.16243C5.45268 1.03678 5.52143 0.86636 5.52143 0.688665C5.52143 0.51097 5.45268 0.340553 5.33029 0.214904C5.20791 0.0892544 5.04192 0.0186653 4.86884 0.0186653H3.24546V2H3.61624V0.369332H4.84611C4.92895 0.369332 5.00839 0.403116 5.06697 0.463253C5.12554 0.52339 5.15845 0.604953 5.15845 0.689999C5.15845 0.775045 5.12554 0.856607 5.06697 0.916744C5.00839 0.976881 4.92895 1.01067 4.84611 1.01067H3.80001L4.9078 2H5.44611L4.70195 1.35867H4.86884ZM0.96494 2H2.08637C2.33787 1.9933 2.57687 1.88602 2.75244 1.70103C2.92802 1.51603 3.02627 1.26796 3.02627 1.00967C3.02627 0.751374 2.92802 0.503296 2.75244 0.318303C2.57687 0.13331 2.33787 0.0260318 2.08637 0.019332H0.96494C0.83616 0.0159013 0.708014 0.0389797 0.58806 0.0872062C0.468106 0.135433 0.358772 0.207831 0.266506 0.300131C0.17424 0.392431 0.10091 0.502765 0.0508405 0.624626C0.000770956 0.746486 -0.0250244 0.877406 -0.0250244 1.00967C-0.0250244 1.14192 0.000770956 1.27284 0.0508405 1.3947C0.10091 1.51657 0.17424 1.6269 0.266506 1.7192C0.358772 1.8115 0.468106 1.8839 0.58806 1.93212C0.708014 1.98035 0.83616 2.00343 0.96494 2ZM2.06104 1.65133H0.989616C0.827513 1.64596 0.673798 1.57608 0.560978 1.45645C0.448158 1.33683 0.385078 1.17684 0.385078 1.01033C0.385078 0.84382 0.448158 0.683835 0.560978 0.56421C0.673798 0.444586 0.827513 0.3747 0.989616 0.369332H2.06104C2.14473 0.366561 2.2281 0.38109 2.30621 0.412056C2.38432 0.443022 2.45556 0.489793 2.51572 0.549589C2.57587 0.609385 2.6237 0.680986 2.65636 0.760136C2.68902 0.839286 2.70586 0.924371 2.70586 1.01033C2.70586 1.09629 2.68902 1.18138 2.65636 1.26053C2.6237 1.33968 2.57587 1.41128 2.51572 1.47107C2.45556 1.53087 2.38432 1.57764 2.30621 1.60861C2.2281 1.63957 2.14473 1.6541 2.06104 1.65133ZM9.10585 2H10.2507L10.4675 1.65133H9.13117C9.04749 1.6541 8.96412 1.63957 8.88601 1.60861C8.8079 1.57764 8.73665 1.53087 8.6765 1.47107C8.61635 1.41128 8.56852 1.33968 8.53586 1.26053C8.50319 1.18138 8.48636 1.09629 8.48636 1.01033C8.48636 0.924371 8.50319 0.839286 8.53586 0.760136C8.56852 0.680986 8.61635 0.609385 8.6765 0.549589C8.73665 0.489793 8.8079 0.443022 8.88601 0.412056C8.96412 0.38109 9.04749 0.366561 9.13117 0.369332H10.2188L10.4383 0.019332H9.10585C8.97707 0.0159013 8.84892 0.0389797 8.72897 0.0872062C8.60901 0.135433 8.49968 0.207831 8.40741 0.300131C8.31515 0.392431 8.24182 0.502765 8.19175 0.624626C8.14168 0.746486 8.11588 0.877406 8.11588 1.00967C8.11588 1.14192 8.14168 1.27284 8.19175 1.3947C8.24182 1.51657 8.31515 1.6269 8.40741 1.7192C8.49968 1.8115 8.60901 1.8839 8.72897 1.93212C8.84892 1.98035 8.97707 2.00343 9.10585 2ZM13.6429 1.65133C13.5068 1.65138 13.3745 1.60583 13.2659 1.5216C13.1574 1.43737 13.0786 1.31907 13.0416 1.18467H14.6273L14.8455 0.835332H13.0416C13.0785 0.700875 13.1573 0.582507 13.2658 0.498259C13.3744 0.414011 13.5068 0.368502 13.6429 0.368665H14.7312L14.9487 0.0186653H13.6175C13.366 0.0253652 13.127 0.132643 12.9515 0.317636C12.7759 0.50263 12.6776 0.750707 12.6776 1.009C12.6776 1.26729 12.7759 1.51537 12.9515 1.70036C13.127 1.88535 13.366 1.99263 13.6175 1.99933H14.7623L14.9799 1.65067H13.6422" fill="white"/>
</g>
<defs>
<clipPath id="clip0_7_283">
<rect width="15" height="2" fill="white"/>
</clipPath>
</defs>
</svg>
