<svg width="10" height="10" viewBox="0 0 10 10" fill="none" xmlns="http://www.w3.org/2000/svg">
<path d="M9.81667 3.76106C9.6448 3.07135 9.31892 2.55128 8.62474 2.55128H7.72968V3.60928C7.72968 4.43068 7.03327 5.12262 6.23866 5.12262H3.8548C3.20304 5.12262 2.66288 5.68064 2.66288 6.33463V8.60688C2.66288 9.25418 3.22536 9.63363 3.8548 9.81889C4.60924 10.0399 5.33467 10.08 6.23866 9.81889C6.83908 9.64479 7.43058 9.29435 7.43058 8.60688V7.69843H5.04896V7.39487H8.62474C9.31892 7.39487 9.5756 6.91051 9.81667 6.18509C10.0667 5.43734 10.0555 4.71862 9.81667 3.76106ZM6.38821 8.30332C6.63597 8.30332 6.83685 8.50643 6.83685 8.75643C6.83685 9.00865 6.63597 9.21177 6.38821 9.21177C6.14268 9.21177 5.93956 9.00642 5.93956 8.75643C5.94179 8.5042 6.14268 8.30332 6.38821 8.30332ZM3.74543 4.82353H6.12929C6.79221 4.82353 7.32121 4.27667 7.32121 3.61151V1.33704C7.32121 0.689737 6.77659 0.205379 6.12929 0.0960077C5.3302 -0.0356842 4.46193 -0.028988 3.74543 0.0982398C2.73654 0.276805 2.55351 0.64956 2.55351 1.33927V2.24772H4.93959V2.55128H1.65845C0.964272 2.55128 0.357148 2.96868 0.167422 3.76106C-0.0513209 4.66951 -0.0602492 5.23646 0.167422 6.18509C0.33706 6.89042 0.741064 7.39487 1.43524 7.39487H2.25441V6.30562C2.25441 5.5177 2.93519 4.82353 3.74543 4.82353ZM3.59588 1.6406C3.34812 1.6406 3.14724 1.43748 3.14724 1.18749C3.14947 0.935265 3.34812 0.732147 3.59588 0.732147C3.84141 0.732147 4.04453 0.937497 4.04453 1.18749C4.04453 1.43748 3.84364 1.6406 3.59588 1.6406Z" fill="white"/>
</svg>
