<svg width="10" height="10" viewBox="0 0 10 10" fill="none" xmlns="http://www.w3.org/2000/svg">
<path d="M9.10533 0.584267C8.96648 0.917721 8.78677 1.2326 8.57032 1.52167C8.10685 1.04185 7.55196 0.659966 6.93849 0.398602C6.32502 0.137239 5.66543 0.00170406 4.99873 1.59658e-05C4.33203 -0.00167213 3.67176 0.130521 3.05697 0.388774C2.44219 0.647028 1.88538 1.0261 1.41949 1.50356C0.953591 1.98103 0.588068 2.54719 0.344539 3.16855C0.10101 3.78992 -0.0155792 4.45387 0.00166898 5.12114C0.0189171 5.78841 0.169652 6.44543 0.444957 7.05336C0.720262 7.66128 1.11455 8.20775 1.60449 8.66045L1.7897 8.82527C2.49252 9.41871 3.34569 9.80581 4.25472 9.94372C5.16375 10.0816 6.09316 9.96494 6.94003 9.60659C7.78691 9.24825 8.51819 8.66222 9.0529 7.91342C9.58762 7.16462 9.90489 6.28226 9.96958 5.36405C10.1136 4.10731 9.73292 2.50028 9.10529 0.584225L9.10533 0.584267ZM2.32478 8.70167C2.27188 8.76675 2.20089 8.81468 2.12079 8.83939C2.04069 8.86409 1.95508 8.86447 1.87476 8.84048C1.79445 8.81649 1.72304 8.76919 1.66956 8.70458C1.61608 8.63997 1.58293 8.56093 1.57431 8.47746C1.56568 8.39399 1.58196 8.30984 1.62109 8.23563C1.66022 8.16143 1.72045 8.1005 1.79416 8.06055C1.86786 8.0206 1.95174 8.00342 2.0352 8.01118C2.11866 8.01895 2.19794 8.05131 2.26303 8.10417C2.34837 8.17652 2.40245 8.27912 2.41396 8.39048C2.42547 8.50185 2.39351 8.61335 2.32478 8.70167ZM9.07445 7.20798C7.85007 8.84588 5.21605 8.2896 3.53892 8.37203C3.53892 8.37203 3.24054 8.39264 2.94212 8.43381C2.94212 8.43381 3.05533 8.38233 3.19937 8.33081C4.38263 7.91878 4.93822 7.83635 5.65847 7.4655C7.00636 6.7753 8.35424 5.26105 8.62174 3.69524C8.10728 5.19923 6.54335 6.49718 5.12343 7.02255C4.14596 7.38311 2.38653 7.73336 2.38653 7.73336L2.31449 7.69214C1.12094 7.10494 1.07982 4.50904 3.26108 3.67463C4.218 3.30378 5.12343 3.50986 6.16264 3.2626C7.26357 3.00505 8.53945 2.18095 9.05391 1.09933C9.63008 2.84023 10.3298 5.53917 9.07445 7.20798Z" fill="white"/>
</svg>
