<svg width="7" height="8" viewBox="0 0 7 8" fill="none" xmlns="http://www.w3.org/2000/svg">
<path fill-rule="evenodd" clip-rule="evenodd" d="M0.000279504 0.768038L0.270619 7.37204C0.274777 7.47293 0.320119 7.56827 0.397664 7.63993C0.475202 7.71158 0.579267 7.75388 0.689214 7.75846L6.54172 7.99961C6.60088 8.00205 6.65997 7.9935 6.71541 7.9744C6.77086 7.95529 6.82152 7.92612 6.86435 7.88858C6.89288 7.86362 6.91753 7.8353 6.9377 7.80435C6.94781 7.78885 6.95679 7.77274 6.96457 7.75608C6.97986 7.7233 6.99029 7.68894 6.99569 7.65384C6.99853 7.63541 6.99997 7.61679 7 7.59806V0.402438C7.00006 0.347445 6.98783 0.293063 6.96406 0.242587C6.94028 0.19211 6.90547 0.146639 6.86178 0.108981C6.8181 0.0713829 6.76645 0.0423302 6.71005 0.0237144C6.67216 0.0112633 6.63266 0.00363388 6.59268 0.00100937C6.57315 -0.000272369 6.5535 -0.000333405 6.53387 0.000826263L6.05248 0.0284752L6.0878 0.951693C6.08794 0.955355 6.08771 0.959017 6.08712 0.962618C6.0859 0.970248 6.08307 0.977633 6.07876 0.984347C6.07242 0.994173 6.06312 1.00217 6.05198 1.00736C6.04664 1.00986 6.04099 1.01163 6.03519 1.01267C6.02887 1.01383 6.02236 1.01413 6.01587 1.01352C6.00345 1.01236 5.99164 1.00797 5.98184 1.00089L5.65743 0.766451L5.27372 1.03366C5.26382 1.0405 5.25202 1.04459 5.23968 1.0455C5.22735 1.04642 5.21498 1.0441 5.20401 1.03885C5.19306 1.03354 5.18396 1.02555 5.17777 1.01572C5.17158 1.00589 5.16857 0.994601 5.16906 0.983248L5.21006 0.0764488L0.411893 0.352023C0.297696 0.358431 0.190747 0.40555 0.113851 0.483248C0.036954 0.560946 -0.00380222 0.66318 0.000279504 0.768038ZM4.09336 3.09287C4.09336 3.24924 5.24276 3.17447 5.39668 3.06449C5.39668 1.99887 4.77358 1.43888 3.63203 1.43888C2.49048 1.43888 1.85125 2.00766 1.85125 2.86045C1.85125 3.71524 2.5742 4.08768 3.18858 4.40409C3.6425 4.63767 4.03668 4.84085 4.03668 5.18527C4.03668 5.41245 3.91546 5.54764 3.64817 5.54764C3.30021 5.54764 3.16242 5.38443 3.17899 4.83005C3.17899 4.71005 1.85125 4.67246 1.8107 4.83005C1.7078 6.17368 2.62043 6.56125 3.66474 6.56125C4.67634 6.56125 5.46994 6.06687 5.46994 5.17087C5.46994 4.23648 4.70556 3.86484 4.07461 3.55808C3.63029 3.34207 3.25181 3.15805 3.25181 2.83206C3.25181 2.51206 3.51082 2.4697 3.6643 2.4697C3.8265 2.4697 4.11778 2.4957 4.09336 3.09287Z" fill="white"/>
</svg>
