<svg width="7" height="8" viewBox="0 0 7 8" fill="none" xmlns="http://www.w3.org/2000/svg">
<path d="M0.270623 7.372L0.000279265 0.768014C-0.00380056 0.663125 0.0369539 0.560925 0.113851 0.48321C0.190747 0.405495 0.297701 0.358417 0.411899 0.352015L6.53388 0.000815994C6.59369 -0.00268542 6.65365 0.00510649 6.71005 0.0237099C6.76646 0.0423133 6.8181 0.0713328 6.86179 0.108974C6.90547 0.146615 6.94028 0.192077 6.96406 0.24255C6.98783 0.293023 7.00006 0.347432 7 0.402415V7.598C6.99994 7.65232 6.98789 7.70608 6.96458 7.75601C6.94127 7.80595 6.90717 7.85105 6.86435 7.88857C6.82153 7.9261 6.77086 7.95528 6.71542 7.97436C6.65997 7.99344 6.60089 8.00203 6.54172 7.9996L0.68922 7.7584C0.579272 7.75385 0.475205 7.71156 0.397664 7.63991C0.320124 7.56826 0.274778 7.47289 0.270623 7.372Z" fill="white"/>
<path fill-rule="evenodd" clip-rule="evenodd" d="M6.05248 0.0284176L5.21006 0.0764175L5.16907 0.983215C5.16857 0.994561 5.17159 1.0058 5.17777 1.01564C5.18396 1.02548 5.19306 1.0335 5.20402 1.03878C5.21498 1.04405 5.22735 1.04637 5.23968 1.04546C5.25202 1.04454 5.26382 1.04044 5.27372 1.03362L5.65743 0.766416L5.98185 1.00082C5.99164 1.00793 6.00345 1.01232 6.01588 1.01347C6.02831 1.01462 6.04083 1.01248 6.05198 1.0073C6.06312 1.00213 6.07242 0.994133 6.07877 0.984265C6.08512 0.974396 6.08825 0.963067 6.0878 0.951615L6.05248 0.0284176ZM5.39668 3.06441C5.24276 3.17441 4.09336 3.24921 4.09336 3.09281C4.11778 2.49561 3.82651 2.46961 3.6643 2.46961C3.51082 2.46961 3.25181 2.51201 3.25181 2.83201C3.25181 3.15801 3.63029 3.34201 4.07461 3.55801C4.70556 3.86481 5.46994 4.23641 5.46994 5.1708C5.46994 6.0668 4.67635 6.5612 3.66474 6.5612C2.62043 6.5612 1.7078 6.1736 1.8107 4.83001C1.85126 4.67241 3.17899 4.71001 3.17899 4.83001C3.16242 5.3844 3.30021 5.5476 3.64817 5.5476C3.91546 5.5476 4.03668 5.4124 4.03668 5.1852C4.03668 4.84081 3.6425 4.63761 3.18858 4.40401C2.57421 4.08761 1.85126 3.71521 1.85126 2.86041C1.85126 2.00761 2.49049 1.43881 3.63204 1.43881C4.77358 1.43881 5.39668 1.99881 5.39668 3.06441Z" fill="#FF4785"/>
</svg>
