<svg width="9" height="9" viewBox="0 0 9 9" fill="none" xmlns="http://www.w3.org/2000/svg">
<g clip-path="url(#clip0_9_305)">
<path d="M4.5 0C6.98456 0 9 2.01544 9 4.5C9 6.98456 6.98456 9 4.5 9C2.01544 9 0 6.98456 0 4.5C0 2.01544 2.01544 0 4.5 0Z" fill="white"/>
<path d="M7.56138 5.8639C7.53011 5.61718 7.32161 5.44691 7.05405 5.45039C6.65443 5.4556 6.3191 5.66236 6.09671 5.79961C6.00984 5.85348 5.93513 5.89344 5.87084 5.92297C5.88474 5.72143 5.87258 5.45734 5.76833 5.16718C5.6415 4.81969 5.47123 4.60598 5.34961 4.48263C5.49034 4.27761 5.6832 3.97876 5.77354 3.5166C5.85173 3.1222 5.82741 2.50888 5.64845 2.16487C5.61196 2.09537 5.55115 2.04498 5.4747 2.02413C5.44343 2.01544 5.38436 1.99807 5.26795 2.03108C5.09246 1.66795 5.03165 1.62973 4.98474 1.59846C4.88744 1.53591 4.77277 1.52201 4.66505 1.56197C4.52084 1.61409 4.39748 1.75309 4.28107 1.99981C4.2637 2.03629 4.24806 2.07104 4.23416 2.10579C4.01351 2.12143 3.66602 2.20135 3.37239 2.51931C3.3359 2.55927 3.26466 2.5888 3.18995 2.6166H3.19169C3.0388 2.67046 2.9693 2.79556 2.88416 3.02143C2.76602 3.33764 2.88764 3.64865 3.00752 3.85019C2.8442 3.99614 2.62702 4.22896 2.51235 4.50174C2.36988 4.8388 2.35424 5.16892 2.35945 5.34788C2.23783 5.47645 2.05019 5.71795 2.02934 5.989C2.00154 6.36776 2.1388 6.6249 2.19961 6.71873C2.21698 6.74653 2.23609 6.76911 2.25694 6.7917C2.24999 6.83861 2.24826 6.889 2.25868 6.94112C2.28127 7.06274 2.35771 7.16178 2.47412 7.22432C2.70347 7.34595 3.02316 7.39807 3.26988 7.27471C3.35849 7.36853 3.52007 7.45888 3.8137 7.45888H3.83107C3.90578 7.45888 4.85443 7.40849 5.13069 7.34073C5.25405 7.3112 5.33918 7.25907 5.39478 7.21216C5.572 7.15656 6.06196 6.98977 6.52412 6.69093C6.85076 6.47896 6.9637 6.43378 7.20694 6.37471C7.44324 6.31737 7.59092 6.10193 7.56138 5.8639ZM7.14787 6.11931C6.86988 6.18533 6.72914 6.24614 6.38513 6.47027C5.84826 6.81776 5.261 6.97934 5.261 6.97934C5.261 6.97934 5.21235 7.05232 5.07161 7.08533C4.82837 7.1444 3.91273 7.19479 3.82934 7.19653C3.6052 7.19826 3.46795 7.13919 3.42972 7.0471C3.31331 6.76911 3.59652 6.64749 3.59652 6.64749C3.59652 6.64749 3.53397 6.60927 3.49748 6.57452C3.46447 6.54151 3.42972 6.47548 3.4193 6.49981C3.37586 6.60579 3.35327 6.86467 3.23687 6.98108C3.07702 7.14266 2.7747 7.0888 2.59575 6.99498C2.39941 6.89073 2.60965 6.64575 2.60965 6.64575C2.60965 6.64575 2.50366 6.7083 2.41853 6.57973C2.34208 6.46158 2.27084 6.26004 2.28995 6.01158C2.3108 5.72838 2.62702 5.45386 2.62702 5.45386C2.62702 5.45386 2.57142 5.03514 2.75385 4.60598C2.91891 4.21506 3.3637 3.90058 3.3637 3.90058C3.3637 3.90058 2.99015 3.48707 3.12914 3.11525C3.21949 2.87201 3.25598 2.87375 3.28551 2.86332C3.38976 2.82336 3.49053 2.77992 3.56524 2.69826C3.9388 2.29517 4.41486 2.37162 4.41486 2.37162C4.41486 2.37162 4.64073 1.68533 4.84922 1.81911C4.91351 1.86081 5.14459 2.3751 5.14459 2.3751C5.14459 2.3751 5.39131 2.23089 5.4191 2.28475C5.56853 2.5749 5.5859 3.12915 5.51988 3.46622C5.40868 4.0222 5.13069 4.32104 5.01949 4.50869C4.99343 4.55212 5.31833 4.68938 5.52335 5.25753C5.71273 5.77703 5.5442 6.21313 5.57374 6.26178C5.57895 6.27046 5.58069 6.27394 5.58069 6.27394C5.58069 6.27394 5.79787 6.29131 6.23397 6.02201C6.46679 5.8778 6.74304 5.71622 7.05752 5.71274C7.36158 5.70753 7.37721 6.06371 7.14787 6.11931Z" fill="#2C8EBB"/>
</g>
<defs>
<clipPath id="clip0_9_305">
<rect width="9" height="9" fill="white"/>
</clipPath>
</defs>
</svg>
