<svg width="12" height="9" viewBox="0 0 12 9" fill="none" xmlns="http://www.w3.org/2000/svg">
<path d="M6.561 4.10332H5.3217V2.91029H6.561V4.10332ZM6.561 0H5.3217V1.21915H6.561V0ZM8.02715 2.90828H6.78785V4.10132H8.02715V2.90828ZM5.09672 1.46017H3.85743V2.66726H5.09672V1.46017ZM6.561 1.46017H5.3217V2.66726H6.561V1.46017ZM11.7506 3.46865C11.4807 3.27382 10.8582 3.20353 10.3801 3.29993C10.3182 2.8179 10.067 2.39813 9.60954 2.02053L9.34706 1.83374L9.17269 2.11493C8.82772 2.67329 8.73397 3.59317 9.10332 4.19973C8.94021 4.29413 8.61961 4.42267 8.19588 4.41464H0.0458142C-0.1173 5.43495 0.154557 6.76054 0.870758 7.67039C1.56634 8.55211 2.60876 9 3.9718 9C6.92285 9 9.10707 7.54385 10.1289 4.89868C10.5301 4.90672 11.3963 4.90069 11.8406 3.99085C11.8688 3.94064 11.9644 3.72573 12 3.6474L11.7506 3.46865ZM2.16817 2.90828H0.930754V4.10132H2.17004V2.90828H2.16817ZM3.63244 2.90828H2.39315V4.10132H3.63244V2.90828ZM5.09672 2.90828H3.85743V4.10132H5.09672V2.90828ZM3.63244 1.46017H2.39315V2.66726H3.63244V1.46017Z" fill="white"/>
</svg>
