<svg width="8" height="10" viewBox="0 0 8 10" fill="none" xmlns="http://www.w3.org/2000/svg">
<path d="M5.82349 6.11125C6.03118 5.98039 6.3194 5.86711 6.3194 5.86711C6.3194 5.86711 5.49923 6.00383 4.68331 6.06633C3.68512 6.1425 2.61276 6.15812 2.07446 6.09172C0.800761 5.93547 2.77382 5.50383 2.77382 5.50383C2.77382 5.50383 2.00876 5.45696 1.06567 5.87492C-0.0469561 6.37101 3.82075 6.59757 5.82349 6.11125ZM4.01361 5.4843C3.61094 4.65033 2.25248 3.91792 4.01361 2.63668C6.21047 1.03905 5.08385 0 5.08385 0C5.5395 1.65037 3.48167 2.15036 2.7378 3.17574C2.23128 3.8769 2.98575 4.62884 4.01361 5.4843ZM6.44232 2.04294C6.44444 2.04294 2.72932 2.8984 4.50317 4.78119C5.02663 5.33587 4.36541 5.83586 4.36541 5.83586C4.36541 5.83586 5.69421 5.20306 5.08385 4.41205C4.51376 3.67378 4.07719 3.3066 6.44232 2.04294ZM6.31304 7.32608C6.30146 7.34468 6.2872 7.36177 6.27066 7.37686C8.98971 6.71866 7.9894 5.05462 6.69028 5.47649C6.62011 5.50025 6.55948 5.54318 6.51649 5.59954C6.59236 5.57423 6.67032 5.55464 6.74962 5.54094C7.4066 5.41399 8.34968 6.35148 6.31304 7.32608ZM7.3125 8.54286C7.3125 8.54286 7.6198 8.77528 6.97553 8.95691C5.74846 9.29871 1.87228 9.40222 0.795675 8.97058C0.407844 8.81629 1.13476 8.59949 1.36365 8.55457C1.60101 8.5077 1.73876 8.51551 1.73876 8.51551C1.30854 8.23622 -1.04387 9.06433 0.543479 9.30066C4.87192 9.94909 8.43573 9.00965 7.3125 8.54286ZM2.57461 7.73427C0.906726 8.16395 3.58975 9.05066 5.71328 8.21278C5.50618 8.13863 5.30625 8.04847 5.11564 7.94325C4.16832 8.10927 3.72962 8.12099 2.86919 8.03114C2.15923 7.95693 2.57461 7.73427 2.57461 7.73427ZM6.3851 9.63268C4.71721 9.92174 2.65938 9.88854 1.44079 9.703C1.44079 9.703 1.69086 9.89245 2.97516 9.96862C4.92914 10.0838 7.93006 9.90417 8 9.05261C8 9.05261 7.86437 9.37488 6.3851 9.63268ZM5.46109 6.89444C4.20647 7.11709 3.47955 7.11123 2.56189 7.02334C1.85193 6.95499 2.31606 6.63858 2.31606 6.63858C0.476509 7.20108 3.33755 7.83779 5.90826 7.14444C5.74211 7.09037 5.58987 7.00526 5.46109 6.89444Z" fill="white"/>
</svg>
