<svg width="10" height="10" viewBox="0 0 10 10" fill="none" xmlns="http://www.w3.org/2000/svg">
<g clip-path="url(#clip0_7_202)">
<path fill-rule="evenodd" clip-rule="evenodd" d="M9.21117 7.78946C8.66729 7.77431 8.24536 7.83006 7.89171 7.97882C7.78989 8.01973 7.62648 8.01973 7.61306 8.14788C7.66748 8.20166 7.67404 8.28968 7.72175 8.36421C7.8033 8.49949 7.94628 8.68173 8.07539 8.77626L8.51059 9.08726C8.77582 9.24936 9.07505 9.34404 9.33342 9.50628C9.48311 9.60096 9.63265 9.72261 9.78234 9.8241C9.85856 9.87818 9.90474 9.9662 10 9.99983V9.97938C9.95246 9.91878 9.93874 9.83092 9.89133 9.76305L9.68707 9.56718C9.48997 9.30359 9.24501 9.07363 8.97978 8.88457C8.7621 8.73581 8.28621 8.53312 8.1978 8.28316L8.18438 8.26801C8.33377 8.25287 8.51059 8.2003 8.65357 8.1597C8.88497 8.09911 9.09563 8.11244 9.33342 8.05169L9.66009 7.95701V7.89641C9.53768 7.77477 9.44927 7.61252 9.32016 7.4977C8.97338 7.20033 8.59229 6.90962 8.1978 6.66633C7.98698 6.5312 7.71489 6.44319 7.49051 6.32851C7.40865 6.28791 7.27283 6.26761 7.22527 6.20005C7.10256 6.05159 7.03473 5.85541 6.94632 5.67953L6.38872 4.50353C6.26632 4.23994 6.19132 3.97635 6.04193 3.73306C5.34135 2.58402 4.57949 1.88793 3.40972 1.20518C3.1582 1.06323 2.85898 1.00218 2.54085 0.927953L2.03081 0.900685C1.92182 0.853421 1.81313 0.724958 1.71786 0.66406C1.33022 0.42077 0.330415 -0.106409 0.044603 0.588316C-0.139079 1.02763 0.316696 1.46013 0.471415 1.68327C0.587264 1.8387 0.736649 2.01443 0.818506 2.19015C0.864236 2.30498 0.87948 2.42678 0.927191 2.54842C1.03588 2.84579 1.13801 3.1771 1.28084 3.45432C1.35705 3.59627 1.43708 3.74518 1.53235 3.87349C1.58677 3.94924 1.68204 3.98165 1.70231 4.1033C1.60704 4.23858 1.60049 4.44112 1.54607 4.61033C1.30111 5.37413 1.39638 6.32033 1.74317 6.88265C1.85216 7.05156 2.10901 7.42347 2.45747 7.28137C2.76355 7.15973 2.69526 6.77449 2.78368 6.43652C2.80425 6.35548 2.79053 6.30139 2.83123 6.24716V6.26231L3.11019 6.82327C3.321 7.15443 3.68837 7.49921 3.9943 7.72917C4.1574 7.85082 4.28667 8.06048 4.49062 8.13471V8.11425H4.47721C4.43636 8.05366 4.37508 8.02639 4.32066 7.97913C4.19825 7.85748 4.06228 7.70872 3.96701 7.57359C3.68151 7.19517 3.42999 6.77601 3.20546 6.34351C3.09647 6.134 3.0012 5.90419 2.91309 5.69468C2.87193 5.61349 2.87193 5.49169 2.8041 5.45139C2.70197 5.59985 2.55259 5.72862 2.47744 5.91101C2.34817 6.20156 2.33476 6.55983 2.2872 6.93159C2.25976 6.9384 2.27196 6.93158 2.25976 6.94673C2.04239 6.8928 1.9674 6.66951 1.88584 6.48045C1.68189 6.00054 1.64774 5.23007 1.82456 4.67577C1.87212 4.53383 2.07638 4.0877 1.99483 3.95257C1.95368 3.82411 1.81801 3.74988 1.74301 3.64838C1.6546 3.51992 1.55964 3.35783 1.49836 3.21588C1.33525 2.83716 1.2537 2.41829 1.07673 2.03973C0.994871 1.864 0.852194 1.68146 0.736497 1.51936C0.607234 1.33682 0.464709 1.20836 0.362578 0.992184C0.328586 0.91644 0.281026 0.796158 0.335445 0.714961C0.348859 0.660879 0.376297 0.639216 0.430411 0.627097C0.518822 0.551353 0.770641 0.647397 0.859053 0.687693C1.11057 0.78919 1.32138 0.883718 1.5322 1.02551C1.62747 1.09308 1.7296 1.22154 1.852 1.25547H1.99498C2.21266 1.30274 2.45732 1.27062 2.66112 1.33122C3.02162 1.44635 3.34798 1.6151 3.64065 1.7978C4.53147 2.35876 5.2662 3.15635 5.76252 4.10951C5.84408 4.26494 5.87807 4.40688 5.95306 4.56913C6.09605 4.90043 6.27287 5.23825 6.4154 5.56289C6.55838 5.88056 6.69435 6.2052 6.8983 6.46879C7.00043 6.61073 7.40835 6.68496 7.59188 6.75934C7.728 6.81994 7.93866 6.87447 8.06137 6.9487C8.29246 7.09065 8.5237 7.25289 8.74122 7.40832C8.84991 7.48921 9.19014 7.65828 9.21041 7.7931L9.21117 7.78946ZM2.27546 1.91596C2.1815 1.91513 2.08782 1.92649 1.99681 1.94974V1.96489H2.01023C2.06465 2.07305 2.15992 2.14743 2.2279 2.24211L2.38445 2.5666L2.39787 2.55145C2.49314 2.48389 2.54085 2.37573 2.54085 2.21363C2.5 2.16637 2.49329 2.11895 2.4593 2.07169C2.41844 2.00413 2.33003 1.97019 2.27546 1.91626V1.91596Z" fill="white"/>
</g>
<defs>
<clipPath id="clip0_7_202">
<rect width="10" height="10" fill="white"/>
</clipPath>
</defs>
</svg>
