<svg width="11" height="8" viewBox="0 0 11 8" fill="none" xmlns="http://www.w3.org/2000/svg">
<g clip-path="url(#clip0_138_4395)">
<path d="M4.24304 3.49913L4.83535 3.20348L5.17381 4.14261L4.24304 3.49913Z" fill="#67592E"/>
<path d="M3.5788 3.8426L3.94687 3.61652L4.28533 4.22956L3.5788 3.8426Z" fill="#67592E"/>
<path d="M2.8638 4.31651L3.18534 4.09912L3.34611 4.66434L2.8638 4.31651Z" fill="#67592E"/>
<path d="M8.55841 5.88174L8.34687 5.66435L8.05072 6.14261L8.55841 5.88174Z" fill="#67592E"/>
<path d="M8.98149 6.40348L8.81226 6.22957L8.30457 6.57739L8.98149 6.40348Z" fill="#67592E"/>
<path d="M8.21996 1.06435L7.62766 1.07739L7.96612 1.88174L8.21996 1.06435Z" fill="#67592E"/>
<path d="M5.89303 2.59043L5.80841 2.24696L6.40072 2.55565L5.89303 2.59043Z" fill="#67592E"/>
<path d="M6.01997 3.09913L5.97766 2.87304L6.31612 3.01652L6.01997 3.09913Z" fill="#67592E"/>
<path d="M9.91226 2.73391L9.99688 2.47305L9.53149 2.67305L9.91226 2.73391Z" fill="#67592E"/>
<path d="M9.74302 3.26434L9.78533 3.0513L9.44687 3.15565L9.74302 3.26434Z" fill="#67592E"/>
<path d="M6.74765 3.93826H5.63919V4.07913H6.74765V3.93826Z" fill="#67592E"/>
<path d="M6.74765 3.59913H5.63919V3.74H6.74765V3.59913Z" fill="#67592E"/>
<path d="M10.1323 3.93826H9.0238V4.07913H10.1323V3.93826Z" fill="#67592E"/>
<path d="M10.1323 3.59913H9.0238V3.74H10.1323V3.59913Z" fill="#67592E"/>
<path d="M8.64303 2.76435H6.83226V2.63739H7.39495C7.46434 2.33218 7.47788 2.04174 7.39438 1.89392C7.35867 1.83087 7.30934 1.80174 7.23911 1.80174C6.91714 1.80174 6.78218 2.15174 6.77795 2.16652L6.77804 2.16644L6.66254 2.12209C6.66914 2.10383 6.83008 1.67426 7.23792 1.67426C7.35173 1.67426 7.44227 1.72818 7.49981 1.82948C7.60177 2.00948 7.58992 2.32078 7.52071 2.63818H8.51071C8.64186 2.24165 8.91601 2.05557 9.37378 2.05557V2.18252C8.87878 2.18252 8.73917 2.39861 8.63763 2.63905H9.17494L9.1737 2.76513L8.64303 2.76435Z" fill="#67592E"/>
<path d="M8.72765 3.39043L8.72843 3.39031C8.58205 3.16857 8.53593 2.979 8.59686 2.76422L8.4712 2.76486C8.4272 2.90833 8.44497 3.12442 8.55286 3.30833H7.29632C7.3729 3.15094 7.44355 2.9592 7.49517 2.76486H7.3674C7.31028 2.97312 7.23032 3.17877 7.1402 3.34312L7.11105 3.39573L7.81759 3.85225L7.42075 4.12094L7.48886 4.22703L7.93309 3.9266L8.41117 4.24746L8.47675 4.14007L8.03251 3.8579C8.03251 3.8579 8.69675 3.41442 8.73059 3.39268C8.73038 3.39239 8.73025 3.39213 8.73005 3.39187L8.72765 3.39043ZM7.92803 3.77348L7.40765 3.43652L8.42726 3.43678L7.92803 3.77348Z" fill="#67592E"/>
<path d="M10.1111 1.44064C10.1103 1.22109 10.0441 0.293079 9.92262 0.0375833C9.59299 0.167063 8.99278 0.587548 8.85875 1.01626C8.20954 0.915795 7.47656 0.927921 6.83153 1.04263C6.72431 0.579277 6.18651 0.228512 5.78023 0.0293121C5.60892 0.328545 5.53269 1.02098 5.55238 1.51465C5.55164 1.51516 5.55085 1.51566 5.55011 1.51621C5.6255 3.58183 6.6056 4.86797 7.88727 5.64745C9.20663 4.86797 10.149 3.34799 10.1113 1.4426C10.1119 1.44293 10.1124 1.44319 10.1129 1.44353L10.1111 1.44064ZM9.01372 1.04224C9.0185 1.04313 9.02331 1.04406 9.02813 1.04499C9.02336 1.04406 9.01854 1.04313 9.01372 1.04224ZM8.93163 1.02761C8.94315 1.02951 8.95483 1.03167 8.96639 1.03371C8.95483 1.03168 8.94323 1.02961 8.93163 1.02761ZM9.90754 1.59056C9.94147 3.30975 9.09498 4.67816 7.90546 5.37969C5.89081 4.34039 5.50966 1.71182 5.85311 0.313086C5.94861 0.85439 6.12201 1.19216 6.49813 1.35672C7.31488 1.11465 8.44158 1.0956 9.27089 1.33208C9.61644 1.07225 9.75257 0.673854 9.82377 0.327419C9.91508 0.731016 9.90461 1.6049 9.90503 1.6049L9.90754 1.59056Z" fill="#67592E"/>
<path d="M10.7813 7.53357C10.5743 7.29409 10.1697 7.18107 9.83047 7.1893C9.59006 6.89353 8.19697 5.37484 8.19697 5.37484L8.10022 5.50043L9.78398 7.37117L9.85686 7.36472C10.3134 7.32423 10.5731 7.58038 10.6443 7.66006C10.6946 7.71852 10.7251 7.77178 10.7419 7.81335H9.81623C7.69687 6.67012 5.83301 5.86466 3.86862 5.68711C3.87297 5.4026 3.92181 5.08085 4.01605 4.72142L3.83427 4.67032C3.73752 5.03928 3.68684 5.37186 3.68097 5.67066C3.4749 5.65654 3.26757 5.64922 3.05689 5.64922C2.8793 5.64922 2.71763 5.66628 2.57103 5.69599C2.37878 5.49722 2.21501 5.30798 2.07679 5.1287C2.99407 4.14136 4.51029 3.24496 5.82547 2.91585L5.78274 2.72531C4.36704 3.07824 2.81731 4.03743 1.95449 4.96848C1.55407 4.40985 1.39324 3.95082 1.34716 3.60439C1.28769 3.16701 1.38892 2.76428 1.64036 2.4395C2.03407 1.93284 2.59114 1.8982 3.16914 1.9978C3.15792 2.09177 3.16986 2.18141 3.20621 2.23684C3.35825 2.46895 4.17375 2.55079 4.6638 2.32561C4.30359 1.80596 3.5748 1.55046 3.37375 1.65006C3.30673 1.68384 3.25647 1.74577 3.22171 1.81852C3.02276 1.78175 2.82548 1.75443 2.6814 1.75529C2.17459 1.75914 1.78507 1.94237 1.49606 2.31392C1.21125 2.67984 1.09607 3.13237 1.16308 3.62604C1.22675 4.09373 1.45041 4.59173 1.82486 5.10705C1.76245 5.17634 1.70214 5.24432 1.64433 5.31145C0.73125 6.36807 0.0610962 7.50698 0.0610962 7.69319V7.79062H1.26737L1.24622 7.675C1.17795 7.30258 1.31407 6.83489 1.59303 6.48846C1.7681 6.2702 2.05795 6.02077 2.51449 5.90385C2.91909 6.31221 3.43595 6.74395 4.00977 7.16401H4.9061V7.06657C4.9061 6.95658 4.85332 6.86044 4.75783 6.79549C4.61626 6.69978 4.39762 6.68636 4.19657 6.75733C4.00516 6.53692 3.89752 6.24201 3.87448 5.87826C5.82212 6.05667 7.68179 6.86993 9.78021 8.0045H10.9362L10.9513 7.92612C10.973 7.81439 10.9142 7.66499 10.7943 7.52642L10.7813 7.53357ZM1.44098 6.37301C1.15533 6.7294 1.00538 7.20012 1.03889 7.60285H0.276593C0.429471 7.26118 1.03889 6.27341 1.93522 5.27308C2.0592 5.43157 2.197 5.59137 2.34862 5.75376C1.90884 5.89103 1.61564 6.14609 1.43554 6.37301H1.44098Z" fill="#67592E"/>
</g>
<defs>
<clipPath id="clip0_138_4395">
<rect width="11" height="8" fill="white"/>
</clipPath>
</defs>
</svg>
