<svg width="8" height="8" viewBox="0 0 8 8" fill="none" xmlns="http://www.w3.org/2000/svg">
<path fill-rule="evenodd" clip-rule="evenodd" d="M0.78125 0H7.21875C7.65022 0 8 0.349778 8 0.78125V7.21875C8 7.65022 7.65022 8 7.21875 8H0.78125C0.349778 8 0 7.65022 0 7.21875V0.78125C0 0.349778 0.349778 0 0.78125 0ZM4.95217 7.1482V6.366C5.094 6.48497 5.24806 6.57419 5.41434 6.63366C5.58064 6.69314 5.74855 6.72288 5.91809 6.72288C6.01755 6.72288 6.10434 6.71392 6.17853 6.69598C6.2527 6.67806 6.31466 6.65322 6.36438 6.62144C6.41409 6.58966 6.45119 6.55219 6.47564 6.509C6.50009 6.46581 6.51233 6.41897 6.51233 6.36845C6.51233 6.3 6.49277 6.23889 6.45364 6.18512C6.4145 6.13134 6.36111 6.08164 6.29345 6.03602C6.22581 5.99039 6.14552 5.94639 6.05259 5.90402C5.95967 5.86164 5.85941 5.81847 5.75181 5.77447C5.47792 5.66039 5.27373 5.52106 5.13925 5.35648C5.00475 5.19189 4.9375 4.99308 4.9375 4.76005C4.9375 4.57753 4.97419 4.42069 5.04755 4.28952C5.12091 4.15833 5.22075 4.05037 5.34709 3.96563C5.47345 3.88089 5.61977 3.81856 5.78605 3.77864C5.95233 3.73872 6.12839 3.71875 6.31425 3.71875C6.49683 3.71875 6.65864 3.72975 6.79966 3.75175C6.94067 3.77375 7.07069 3.80756 7.18969 3.85319V4.58406C7.131 4.54331 7.06702 4.50747 6.99773 4.4765C6.92844 4.44555 6.85713 4.41988 6.78377 4.3995C6.71039 4.37914 6.63744 4.36406 6.56489 4.35428C6.49234 4.34452 6.42347 4.33962 6.35827 4.33962C6.26859 4.33962 6.18709 4.34817 6.11372 4.36528C6.04036 4.38239 5.97842 4.40644 5.92788 4.43739C5.87734 4.46836 5.83822 4.50542 5.8105 4.54861C5.78278 4.5918 5.76892 4.64028 5.76892 4.69405C5.76892 4.75272 5.78442 4.80527 5.81539 4.85172C5.84636 4.89816 5.89037 4.94216 5.94744 4.98372C6.0045 5.02527 6.07378 5.066 6.1553 5.10594C6.23681 5.14586 6.32892 5.187 6.43162 5.22937C6.57183 5.28803 6.69777 5.35036 6.80944 5.41636C6.92111 5.48236 7.01689 5.55692 7.09677 5.64003C7.17666 5.72314 7.23778 5.81806 7.28017 5.9248C7.32256 6.03153 7.34375 6.15578 7.34375 6.29756C7.34375 6.49311 7.30666 6.65728 7.23248 6.79009C7.15831 6.92291 7.05764 7.03047 6.93048 7.11275C6.80333 7.19505 6.65538 7.25413 6.48664 7.28997C6.31791 7.32583 6.13981 7.34375 5.95233 7.34375C5.75995 7.34375 5.57697 7.32745 5.40334 7.29486C5.22972 7.26227 5.07933 7.21339 4.95217 7.1482ZM4.64062 4.43878H3.63719V7.29688H2.84228V4.43878H1.84375V3.79688H4.64062V4.43878Z" fill="white"/>
</svg>
