<svg width="452" height="512" viewBox="0 0 452 512" fill="none" xmlns="http://www.w3.org/2000/svg">
<path d="M41.357 460.819L0.272003 0H451.728L410.599 460.746L225.724 512L41.357 460.819Z" fill="#264DE4"/>
<path d="M375.388 431.408L410.536 37.678H226V472.824L375.388 431.408Z" fill="#2965F1"/>
<path d="M94.46 208.59L99.525 265.107H226V208.59H94.46ZM89.419 150.715H226V94.197H84.281L89.419 150.715ZM226 355.372L225.752 355.438L162.808 338.442L158.785 293.366H102.049L109.968 382.107L225.74 414.247L226 414.174V355.372Z" fill="#EBEBEB"/>
<path d="M225.805 208.59V265.107H295.4L288.84 338.406L225.805 355.419V414.219L341.669 382.107L342.519 372.558L355.799 223.766L357.179 208.59L367.382 94.197H225.805V150.715H305.444L300.3 208.59H225.805Z" fill="white"/>
</svg>
