<svg width="597" height="597" viewBox="0 0 597 597" fill="none" xmlns="http://www.w3.org/2000/svg">
<g clip-path="url(#clip0_12_228)">
<path d="M298.5 597C463.357 597 597 463.357 597 298.5C597 133.643 463.357 0 298.5 0C133.643 0 0 133.643 0 298.5C0 463.357 133.643 597 298.5 597Z" fill="#E43961"/>
<path d="M423.019 272.513C420.851 350.194 397.687 357.186 396.815 372.068C396.03 388.8 400.126 407.538 416.872 411.724C437.458 416.871 443.095 409.616 452.642 400.068C460.23 390.04 460.308 380.663 459.928 371.535C456.835 359.821 445.096 346.286 428.925 347.364C432.279 338.021 446.413 334.427 452.898 334.526C469.292 334.547 476.812 344.299 479.953 345.567C490.246 355.86 488.937 376.351 488.924 380.845C494.207 380.185 508.342 378.747 518.523 392.402C521.758 396.714 525.83 404.261 525.59 418.635C524.393 434.446 517.445 442.352 509.539 445.466C509.06 431.931 505.107 419.114 489.176 411.328C477.438 405.818 469.053 407.016 464.022 410.969C451.205 421.39 432.678 437.03 421.897 444.395C389.021 462.968 335.235 481.188 273.477 470.895C238.325 465.036 194.921 432.98 169.838 409.561C134.902 376.943 113.226 327.548 113.226 277.914C113.226 192.643 185.613 121.242 270.883 121.242C356.154 121.242 423.019 187.243 423.019 272.513Z" fill="white"/>
</g>
<defs>
<clipPath id="clip0_12_228">
<rect width="597" height="597" fill="white"/>
</clipPath>
</defs>
</svg>
