<svg width="115" height="172" viewBox="0 0 115 172" fill="none" xmlns="http://www.w3.org/2000/svg">
<g clip-path="url(#clip0_12_294)">
<path d="M57.5 86C57.5 78.3971 60.529 71.1056 65.9207 65.7296C71.3124 60.3536 78.625 57.3333 86.25 57.3333C93.875 57.3333 101.188 60.3536 106.579 65.7296C111.971 71.1056 115 78.3971 115 86C115 93.6029 111.971 100.894 106.579 106.27C101.188 111.646 93.875 114.667 86.25 114.667C78.625 114.667 71.3124 111.646 65.9207 106.27C60.529 100.894 57.5 93.6029 57.5 86V86Z" fill="#1ABCFE"/>
<path d="M0 143.333C0 135.73 3.02901 128.439 8.42068 123.063C13.8124 117.687 21.125 114.667 28.75 114.667H57.5V143.333C57.5 150.936 54.471 158.228 49.0793 163.604C43.6876 168.98 36.375 172 28.75 172C21.125 172 13.8124 168.98 8.42068 163.604C3.02901 158.228 0 150.936 0 143.333H0Z" fill="#0ACF83"/>
<path d="M57.5 0V57.3333H86.25C93.875 57.3333 101.188 54.3131 106.579 48.9371C111.971 43.561 115 36.2695 115 28.6667C115 21.0638 111.971 13.7723 106.579 8.39627C101.188 3.02023 93.875 0 86.25 0L57.5 0Z" fill="#FF7262"/>
<path d="M0 28.6667C0 36.2695 3.02901 43.561 8.42068 48.9371C13.8124 54.3131 21.125 57.3333 28.75 57.3333H57.5V0H28.75C21.125 0 13.8124 3.02023 8.42068 8.39627C3.02901 13.7723 0 21.0638 0 28.6667H0Z" fill="#F24E1E"/>
<path d="M0 86C0 93.6029 3.02901 100.894 8.42068 106.27C13.8124 111.646 21.125 114.667 28.75 114.667H57.5V57.3333H28.75C21.125 57.3333 13.8124 60.3536 8.42068 65.7296C3.02901 71.1056 0 78.3971 0 86H0Z" fill="#A259FF"/>
</g>
<defs>
<clipPath id="clip0_12_294">
<rect width="115" height="172" fill="white"/>
</clipPath>
</defs>
</svg>
