<svg width="97" height="133" viewBox="0 0 97 133" fill="none" xmlns="http://www.w3.org/2000/svg">
<path d="M0.833313 106.719L16.9655 3.49061C17.1627 2.22461 18.1473 1.22661 19.4105 1.01201C20.6737 0.797414 21.9325 1.41481 22.5365 2.54471L39.22 33.662L45.87 21.0005C46.385 20.0215 47.4003 19.4085 48.5066 19.4085C49.6129 19.4085 50.6281 20.0215 51.1432 21.0005L96.1659 106.719L0.833313 106.719Z" fill="#FFA000"/>
<path d="M56.566 66.5074L39.2124 33.6472L0.833405 106.719L56.566 66.5074Z" fill="#F57C00"/>
<path d="M96.1666 106.719L83.8106 30.2584C83.6239 29.1604 82.8403 28.2584 81.7791 27.9184C80.7179 27.5784 79.5565 27.8614 78.7684 28.6486L0.833405 106.718L43.9568 130.901C46.6648 132.413 49.9628 132.413 52.6708 130.901L96.1666 106.718V106.719Z" fill="#FFCA28"/>
<path d="M83.8105 30.2584C83.6238 29.1604 82.8402 28.2584 81.779 27.9184C80.7178 27.5784 79.5564 27.8614 78.7683 28.6486L63.3 44.1562L51.1365 21C50.6215 20.021 49.6062 19.408 48.4999 19.408C47.3936 19.408 46.3784 20.021 45.8633 21L39.2133 33.6615L22.529 2.5447C21.924 1.4145 20.6637 0.798096 19.399 1.0143C18.1343 1.2305 17.153 2.231 16.958 3.498L0.833311 106.719H0.781311L0.833311 106.778L1.25781 106.987L78.7458 29.4093C79.5335 28.6178 80.6978 28.3333 81.7618 28.6723C82.8258 29.0113 83.6108 29.9168 83.7956 31.018L96.0474 106.793L96.1666 106.718L83.8105 30.2584ZM0.974812 106.577L16.9655 4.228C17.1603 2.961 18.1439 1.9605 19.4075 1.7443C20.6711 1.5281 21.9315 2.1443 22.5375 3.2747L39.22 34.392L45.87 21.7305C46.385 20.7515 47.4003 20.1385 48.5066 20.1385C49.6129 20.1385 50.6281 20.7515 51.1432 21.7305L63.0599 44.3945L0.974812 106.577Z" fill="white" fill-opacity="0.2"/>
<path opacity="0.2" d="M52.6708 130.172C49.9628 131.684 46.6648 131.684 43.9568 130.172L0.937613 106.056L0.833313 106.719L43.9567 130.895C46.6647 132.407 49.9627 132.407 52.6707 130.895L96.1665 106.719L96.0548 106.034L52.6708 130.172Z" fill="#A52714"/>
<path d="M83.687 30.2742C83.501 29.1765 82.72 28.2742 81.6626 27.9362C80.6052 27.5982 79.4478 27.8792 78.6624 28.6662L63.2473 44.166L51.1273 21.0205C50.614 20.0419 49.6023 19.4291 48.5 19.4291C47.3977 19.4291 46.386 20.0419 45.8727 21.0205L39.245 33.6765L22.62 2.5726C22.017 1.4429 20.7612 0.826602 19.502 1.0429C18.2428 1.2592 17.2626 2.2589 17.0685 3.5256L1 106.701L43.9727 130.866C46.6712 132.378 49.9577 132.378 52.6563 130.866L96 106.701L83.687 30.274V30.2742Z" fill="url(#paint0_linear_12_407)"/>
<defs>
<linearGradient id="paint0_linear_12_407" x1="-330.55" y1="2230.62" x2="11524.6" y2="8484.07" gradientUnits="userSpaceOnUse">
<stop stop-color="white" stop-opacity="0.1"/>
<stop offset="0.14" stop-color="white" stop-opacity="0.08"/>
<stop offset="0.61" stop-color="white" stop-opacity="0.02"/>
<stop offset="1" stop-color="white" stop-opacity="0"/>
</linearGradient>
</defs>
</svg>
