<svg width="72" height="72" viewBox="0 0 72 72" fill="none" xmlns="http://www.w3.org/2000/svg">
<path d="M68.9 0.200012H34.3C34.3 8.80001 41.3 15.8 49.9 15.8H56.3V21.9C56.3 30.5 63.3 37.5 71.9 37.5V3.20001C71.9 1.50001 70.5 0.200012 68.9 0.200012Z" fill="#0082FF"/>
<path d="M51.8 17.4H17.2C17.2 26 24.2 33 32.8 33H39.2V39.2C39.2 47.8 46.2 54.8 54.8 54.8V20.5C54.8 18.8 53.4 17.4 51.8 17.4Z" fill="url(#paint0_linear_13_560)"/>
<path d="M34.7 34.6H0.100006C0.100006 43.2 7.10001 50.2 15.7 50.2H22V56.3C22 64.9 29 71.9 37.6 71.9V37.5C37.7 36 36.3 34.6 34.7 34.6Z" fill="url(#paint1_linear_13_560)"/>
<defs>
<linearGradient id="paint0_linear_13_560" x1="54.0326" y1="17.4728" x2="39.3226" y2="32.6428" gradientUnits="userSpaceOnUse">
<stop offset="0.18" stop-color="#0050D3"/>
<stop offset="1" stop-color="#0082FF"/>
</linearGradient>
<linearGradient id="paint1_linear_13_560" x1="37.8974" y1="34.7974" x2="20.8874" y2="51.3474" gradientUnits="userSpaceOnUse">
<stop offset="0.18" stop-color="#0050D3"/>
<stop offset="1" stop-color="#0082FF"/>
</linearGradient>
</defs>
</svg>
