<svg width="232" height="31" viewBox="0 0 232 31" fill="none" xmlns="http://www.w3.org/2000/svg">
<path d="M99.9755 19.5244H115.215L107.165 6.52444L92.3655 30.0044H85.6355L103.635 1.83444C104.028 1.27232 104.549 0.812418 105.156 0.493266C105.763 0.174114 106.437 0.00500599 107.123 0.000109455C107.808 -0.00478708 108.485 0.15467 109.096 0.465123C109.707 0.775576 110.235 1.22798 110.635 1.78444L128.685 30.0044H121.955L118.785 24.7544H103.365L100.005 19.5244M169.935 24.7544V0.284443H164.215V27.1644C164.214 27.538 164.289 27.9078 164.435 28.2516C164.581 28.5954 164.796 28.9059 165.065 29.1644C165.336 29.4414 165.66 29.6612 166.017 29.8106C166.374 29.9601 166.758 30.0362 167.145 30.0344H193.145L196.535 24.7844H169.905M75.3655 20.3844C78.0309 20.3844 80.5871 19.3256 82.4719 17.4409C84.3566 15.5561 85.4155 12.9999 85.4155 10.3344C85.4155 7.66902 84.3566 5.11276 82.4719 3.22802C80.5871 1.34328 78.0309 0.284443 75.3655 0.284443H50.3655V30.0044H56.0755V5.54444H75.0155C76.2911 5.54444 77.5146 6.05121 78.4166 6.95326C79.3187 7.85531 79.8255 9.07875 79.8255 10.3544C79.8255 11.6301 79.3187 12.8536 78.4166 13.7556C77.5146 14.6577 76.2911 15.1644 75.0155 15.1644H58.9055L75.9655 30.0044H84.2555L72.7955 20.3844H75.3655ZM15.2455 30.0044H32.5155C36.3885 29.9039 40.0692 28.2948 42.773 25.5199C45.4768 22.745 46.99 19.0238 46.99 15.1494C46.99 11.2751 45.4768 7.55391 42.773 4.77901C40.0692 2.00412 36.3885 0.394941 32.5155 0.294443H15.2455C13.2622 0.242983 11.2888 0.589159 9.4415 1.31256C7.5942 2.03595 5.91046 3.12193 4.48957 4.50643C3.06867 5.89094 1.93939 7.54594 1.16832 9.37385C0.397249 11.2018 0 13.1656 0 15.1494C0 17.1333 0.397249 19.0971 1.16832 20.925C1.93939 22.7529 3.06867 24.408 4.48957 25.7925C5.91046 27.177 7.5942 28.2629 9.4415 28.9863C11.2888 29.7097 13.2622 30.0559 15.2455 30.0044ZM32.1255 24.7744H15.6255C13.1291 24.6939 10.7619 23.6456 9.02443 21.8513C7.28701 20.0569 6.31558 17.6571 6.31558 15.1594C6.31558 12.6618 7.28701 10.262 9.02443 8.46762C10.7619 6.67325 13.1291 5.62496 15.6255 5.54444H32.1255C33.4142 5.50288 34.6982 5.72081 35.901 6.18531C37.1039 6.6498 38.2011 7.35136 39.1274 8.2483C40.0537 9.14524 40.7903 10.2193 41.2933 11.4065C41.7964 12.5938 42.0556 13.87 42.0556 15.1594C42.0556 16.4489 41.7964 17.7251 41.2933 18.9124C40.7903 20.0996 40.0537 21.1736 39.1274 22.0706C38.2011 22.9675 37.1039 23.6691 35.901 24.1336C34.6982 24.5981 33.4142 24.816 32.1255 24.7744ZM140.615 30.0044H158.245L161.585 24.7744H141.005C139.717 24.816 138.433 24.5981 137.23 24.1336C136.027 23.6691 134.93 22.9675 134.004 22.0706C133.077 21.1736 132.341 20.0996 131.838 18.9124C131.335 17.7251 131.075 16.4489 131.075 15.1594C131.075 13.87 131.335 12.5938 131.838 11.4065C132.341 10.2193 133.077 9.14524 134.004 8.2483C134.93 7.35136 136.027 6.6498 137.23 6.18531C138.433 5.72081 139.717 5.50288 141.005 5.54444H157.755L161.135 0.294443H140.615C138.632 0.242983 136.659 0.589159 134.811 1.31256C132.964 2.03595 131.28 3.12193 129.86 4.50643C128.439 5.89094 127.309 7.54594 126.538 9.37385C125.767 11.2018 125.37 13.1656 125.37 15.1494C125.37 17.1333 125.767 19.0971 126.538 20.925C127.309 22.7529 128.439 24.408 129.86 25.7925C131.28 27.177 132.964 28.2629 134.811 28.9863C136.659 29.7097 138.632 30.0559 140.615 30.0044ZM210.485 24.7744C208.39 24.7752 206.352 24.092 204.681 22.8285C203.009 21.565 201.796 19.7905 201.225 17.7744H225.645L229.005 12.5344H201.225C201.795 10.5176 203.007 8.74207 204.679 7.47835C206.351 6.21463 208.39 5.532 210.485 5.53444H227.245L230.595 0.284443H210.095C206.222 0.384941 202.542 1.99412 199.838 4.76901C197.134 7.54391 195.621 11.2651 195.621 15.1394C195.621 19.0138 197.134 22.735 199.838 25.5099C202.542 28.2848 206.222 29.8939 210.095 29.9944H227.725L231.075 24.7644H210.475" fill="#B84F3C"/>
</svg>
