<svg width="504" height="449" viewBox="0 0 504 449" fill="none" xmlns="http://www.w3.org/2000/svg">
<path d="M504 224.551C504 191.151 462.188 159.498 398.084 139.869C412.877 74.5079 406.303 22.5065 377.332 5.85786C370.655 1.95262 362.847 0.102768 354.32 0.102768V23.0204C359.046 23.0204 362.847 23.9453 366.032 25.6924C380.003 33.7084 386.064 64.2309 381.339 103.489C380.209 113.149 378.36 123.323 376.099 133.703C355.964 128.77 333.98 124.968 310.865 122.501C296.996 103.489 282.614 86.2236 268.129 71.1165C301.619 39.9773 333.055 22.9176 354.423 22.9176V0C326.172 0 289.189 20.1428 251.795 55.0845C214.4 20.3484 177.417 0.41108 149.166 0.41108V23.3287C170.431 23.3287 201.97 40.2856 235.46 71.2193C221.078 86.3264 206.696 103.489 193.032 122.501C169.815 124.968 147.83 128.77 127.695 133.806C125.332 123.529 123.586 113.56 122.353 104.003C117.525 64.7448 123.483 34.2222 137.352 26.1035C140.434 24.2536 144.44 23.4315 149.166 23.4315V0.513848C140.536 0.513848 132.729 2.3637 125.949 6.26894C97.0811 22.9176 90.6091 74.8162 105.505 139.972C41.6062 159.704 0 191.254 0 224.551C0 257.951 41.8117 289.604 105.916 309.233C91.1227 374.595 97.6975 426.596 126.668 443.245C133.345 447.15 141.153 449 149.782 449C178.033 449 215.017 428.857 252.411 393.916C289.805 428.652 326.788 448.589 355.04 448.589C363.669 448.589 371.477 446.739 378.257 442.834C407.124 426.185 413.596 374.287 398.7 309.131C462.394 289.502 504 257.849 504 224.551ZM370.244 156.004C366.443 169.261 361.717 182.93 356.375 196.598C352.163 188.376 347.746 180.155 342.917 171.933C338.192 163.712 333.158 155.696 328.124 147.885C342.712 150.043 356.786 152.715 370.244 156.004ZM323.193 265.454C315.18 279.328 306.961 292.482 298.435 304.712C283.128 306.048 267.615 306.767 252 306.767C236.488 306.767 220.975 306.048 205.771 304.814C197.244 292.585 188.923 279.533 180.91 265.762C173.102 252.299 166.014 238.631 159.542 224.86C165.911 211.089 173.102 197.317 180.807 183.855C188.82 169.981 197.039 156.826 205.565 144.597C220.872 143.261 236.385 142.541 252 142.541C267.512 142.541 283.025 143.261 298.229 144.494C306.756 156.724 315.077 169.775 323.09 183.546C330.898 197.009 337.986 210.677 344.458 224.449C337.986 238.22 330.898 251.991 323.193 265.454ZM356.375 252.094C361.923 265.865 366.648 279.636 370.552 292.996C357.094 296.284 342.917 299.059 328.227 301.217C333.261 293.304 338.294 285.185 343.02 276.861C347.746 268.639 352.163 260.315 356.375 252.094ZM252.206 361.749C242.651 351.883 233.097 340.886 223.646 328.862C232.892 329.273 242.343 329.582 251.897 329.582C261.554 329.582 271.108 329.376 280.457 328.862C271.211 340.886 261.657 351.883 252.206 361.749ZM175.773 301.217C161.185 299.059 147.111 296.387 133.653 293.099C137.455 279.841 142.18 266.173 147.522 252.505C151.734 260.726 156.152 268.948 160.98 277.169C165.808 285.391 170.74 293.407 175.773 301.217ZM251.692 87.3541C261.246 97.22 270.8 108.216 280.251 120.24C271.005 119.829 261.554 119.521 252 119.521C242.343 119.521 232.789 119.726 223.441 120.24C232.687 108.216 242.241 97.22 251.692 87.3541ZM175.671 147.885C170.637 155.799 165.603 163.917 160.877 172.242C156.152 180.463 151.734 188.685 147.522 196.906C141.975 183.135 137.249 169.364 133.345 156.004C146.803 152.818 160.98 150.043 175.671 147.885ZM82.6988 276.553C46.3319 261.035 22.8064 240.686 22.8064 224.551C22.8064 208.417 46.3319 187.965 82.6988 172.55C91.5337 168.748 101.19 165.356 111.155 162.17C117.011 182.313 124.716 203.278 134.27 224.757C124.819 246.133 117.216 266.995 111.464 287.035C101.293 283.849 91.6364 280.355 82.6988 276.553ZM137.968 423.41C123.997 415.394 117.936 384.872 122.661 345.614C123.791 335.954 125.64 325.779 127.901 315.4C148.036 320.333 170.02 324.135 193.135 326.601C207.004 345.614 221.386 362.879 235.871 377.986C202.381 409.125 170.945 426.185 149.577 426.185C144.954 426.082 141.05 425.157 137.968 423.41ZM381.647 345.1C386.475 384.358 380.517 414.881 366.648 422.999C363.566 424.849 359.56 425.671 354.834 425.671C333.569 425.671 302.03 408.714 268.54 377.781C282.922 362.674 297.305 345.511 310.968 326.499C334.185 324.032 356.17 320.23 376.305 315.194C378.668 325.574 380.517 335.542 381.647 345.1ZM421.199 276.553C412.364 280.355 402.707 283.747 392.742 286.932C386.886 266.79 379.181 245.825 369.627 224.346C379.079 202.97 386.681 182.108 392.434 162.068C402.604 165.253 412.261 168.748 421.301 172.55C457.668 188.068 481.194 208.417 481.194 224.551C481.091 240.686 457.565 261.137 421.199 276.553Z" fill="#61DAFB"/>
<path d="M252 271C277.957 271 299 249.957 299 224C299 198.043 277.957 177 252 177C226.043 177 205 198.043 205 224C205 249.957 226.043 271 252 271Z" fill="#61DAFB"/>
</svg>
