<svg width="216" height="503" viewBox="0 0 216 503" fill="none" xmlns="http://www.w3.org/2000/svg">
<path d="M54.2126 219.229C57.9456 218.448 61.7901 217.89 65.6346 217.556L95.4989 214.711L54.9369 170.196C42.7349 156.752 35.9932 139.347 35.9932 121.162H2.45154C2.45154 147.715 12.3134 173.208 30.1986 192.844L54.2126 219.229Z" fill="#1C1E21"/>
<path d="M158.961 284.44C155.952 284.998 152.887 285.389 149.823 285.723L117.507 288.791L157.958 333.195C170.16 346.639 176.901 364.043 176.901 382.229H210.499C210.499 355.676 200.637 330.238 182.752 310.547L158.961 284.44Z" fill="#1C1E21"/>
<path d="M214.51 185.759C208.994 158.314 187.488 138.343 159.741 134.829L154.615 134.159C137.287 131.984 124.193 117.145 124.193 99.6852V81.7786C139.571 75.3635 150.38 60.1904 150.38 42.507C150.38 19.0222 131.381 0 107.924 0C84.4669 0 65.4674 19.0222 65.4674 42.507C65.4674 59.7999 75.8308 74.6941 90.6515 81.3324V99.6852C90.6515 134.104 116.337 163.278 150.436 167.518L155.562 168.187C171.553 170.196 179.52 182.022 181.637 192.397C183.755 202.773 181.024 216.775 167.039 224.863C160.186 228.824 152.776 231.223 144.92 231.948L67.8633 239.2C55.1598 240.427 43.1249 244.276 32.093 250.635C7.85609 264.693 -4.2345 291.469 1.3372 318.914C6.85318 346.36 28.3599 366.33 56.107 369.845L61.233 370.514C78.5609 372.69 91.6544 387.528 91.6544 404.988V421.277C76.3323 427.692 65.5789 442.865 65.5789 460.493C65.5789 483.978 84.5784 503 108.035 503C131.492 503 150.492 483.978 150.492 460.493C150.492 443.144 140.072 428.194 125.196 421.612V404.988C125.196 370.57 99.5105 341.395 65.4117 337.156L60.2858 336.486C44.295 334.478 36.3275 322.652 34.2102 312.276C32.093 301.9 34.8231 287.899 48.8081 279.81C55.6613 275.85 63.0716 273.451 70.9277 272.726L147.984 265.474C160.688 264.247 172.723 260.397 183.755 254.038C207.991 239.981 220.026 213.205 214.51 185.759Z" fill="#1C1E21"/>
</svg>
