<svg width="172" height="172" viewBox="0 0 172 172" fill="none" xmlns="http://www.w3.org/2000/svg">
<path d="M156.135 11.0381C153.842 16.6735 150.666 22.1328 146.961 27.0638C114.146 -6.92482 59.9841 -7.80536 26.1107 24.9506C-7.76264 57.7065 -8.82118 111.771 23.9937 145.584C25.0522 146.817 26.2872 147.873 27.5221 148.93L30.6978 151.748C66.6882 182.038 120.674 177.459 151.019 141.533C162.663 127.797 169.72 110.539 170.955 92.5757C173.425 71.2667 166.897 43.794 156.135 11.0381ZM39.8718 149.81C37.4019 152.98 32.8148 153.333 29.6392 150.867C26.4636 148.402 26.1107 143.823 28.5807 140.653C31.0506 137.483 35.6376 137.131 38.8133 139.596C41.8125 142.062 42.3417 146.641 39.8718 149.81ZM155.606 124.275C134.611 152.276 89.4469 142.766 60.6898 144.175C60.6898 144.175 55.5735 144.527 50.4572 145.232C50.4572 145.232 52.3979 144.351 54.8678 143.471C75.1566 136.426 84.6835 135.017 97.0331 128.678C120.145 116.878 143.256 90.9907 147.843 64.2224C139.022 89.9341 112.206 112.124 87.8591 121.105C71.0988 127.269 40.9303 133.256 40.9303 133.256L39.6954 132.552C19.2302 122.514 18.5245 78.1349 55.9264 63.8702C72.3338 57.5304 87.8591 61.0525 105.678 56.8259C124.555 52.4233 146.432 38.3347 155.253 19.8435C165.133 49.6056 177.13 95.7456 155.606 124.275Z" fill="#6DB33F"/>
<path d="M155.606 124.275C134.611 152.276 89.4469 142.766 60.6898 144.175C60.6898 144.175 55.5735 144.527 50.4572 145.232C50.4572 145.232 52.3979 144.351 54.8678 143.471C75.1566 136.426 84.6834 135.017 97.0331 128.678C120.145 116.878 143.256 90.9907 147.843 64.2224C139.022 89.9341 112.206 112.124 87.8591 121.105C71.0988 127.269 40.9303 133.256 40.9303 133.256L39.6954 132.552C19.2302 122.514 18.5245 78.1349 55.9264 63.8702C72.3338 57.5304 87.8591 61.0525 105.678 56.8259C124.555 52.4233 146.432 38.3347 155.253 19.8434C165.133 49.6055 177.13 95.7456 155.606 124.275Z" fill="white"/>
<path d="M39.8718 149.811C37.4019 152.98 32.8148 153.333 29.6392 150.867C26.4636 148.402 26.1107 143.823 28.5807 140.653C31.0506 137.483 35.6376 137.131 38.8133 139.596C41.8125 142.062 42.3417 146.641 39.8718 149.811Z" fill="white"/>
</svg>
