<svg width="226" height="202" viewBox="0 0 226 202" fill="none" xmlns="http://www.w3.org/2000/svg">
<circle cx="113.5" cy="100.5" r="85.5" fill="white"/>
<path d="M223.11 88.8662L178.569 12.1338C174.714 5.47153 165.23 0 157.474 0H68.4838C60.7716 0 51.2439 5.47153 47.3886 12.1338L2.8921 88.8662C-0.964032 95.5285 -0.964032 106.427 2.8921 113.09L47.3877 189.865C51.2428 196.528 60.7273 202 68.4829 202H157.517C165.23 202 174.712 196.528 178.613 189.866L223.108 113.091C226.964 106.427 226.966 95.5285 223.11 88.8662ZM103.361 42.4475C103.361 37.4174 107.483 33.3139 112.535 33.3139C117.587 33.3139 121.709 37.4174 121.709 42.4475V97.0285C121.709 102.06 117.587 106.162 112.535 106.162C107.483 106.162 103.361 102.06 103.361 97.0285V42.4475ZM112.535 158.979C78.2328 158.979 50.3126 131.181 50.3126 97.0285C50.3569 77.4377 59.6633 59.0383 75.4408 47.301C76.3012 46.6611 77.28 46.1967 78.3212 45.9345C79.3623 45.6724 80.4451 45.6177 81.5075 45.7734C82.5702 45.9291 83.5913 46.2925 84.5122 46.8422C85.4331 47.3921 86.2361 48.1178 86.8746 48.9773C87.5175 49.834 87.984 50.8087 88.2475 51.8453C88.5108 52.882 88.566 53.9602 88.4093 55.0182C88.253 56.076 87.8882 57.0928 87.3358 58.01C86.7835 58.9269 86.0544 59.7263 85.1909 60.362C64.8491 75.4078 60.5946 104.044 75.7063 124.297C90.8192 144.551 119.581 148.786 139.923 133.74C151.579 125.136 158.449 111.501 158.449 97.0285C158.43 89.8675 156.728 82.8105 153.481 76.4208C150.234 70.0314 145.53 64.4867 139.746 60.2299C136.111 57.5822 135.358 52.4632 138.017 48.8453C140.677 45.2264 145.817 44.4762 149.452 47.1248C165.361 58.8171 174.713 77.3495 174.758 97.0285C174.758 131.225 146.837 158.979 112.535 158.979Z" fill="#6DB33F"/>
</svg>
