<svg width="168" height="209" viewBox="0 0 168 209" fill="none" xmlns="http://www.w3.org/2000/svg">
<path d="M6.47886 192.593L-0.000143129 20.064C-0.0979193 17.3238 0.878794 14.6538 2.72169 12.6235C4.56458 10.5932 7.12779 9.36323 9.86466 9.19599L156.583 0.0208907C158.016 -0.070584 159.453 0.13298 160.805 0.618996C162.157 1.10501 163.394 1.86315 164.441 2.84652C165.488 3.8299 166.323 5.0176 166.892 6.3362C167.462 7.65481 167.755 9.07627 167.754 10.5127V198.498C167.752 199.917 167.464 201.321 166.905 202.626C166.346 203.931 165.529 205.109 164.503 206.089C163.476 207.069 162.262 207.832 160.933 208.33C159.605 208.829 158.189 209.053 156.771 208.99L16.5109 202.688C13.8759 202.569 11.3818 201.465 9.52351 199.593C7.6652 197.721 6.57844 195.229 6.47886 192.593Z" fill="#FF4785"/>
<path fill-rule="evenodd" clip-rule="evenodd" d="M145.046 0.741943L124.857 1.99594L123.874 25.6861C123.862 25.9825 123.935 26.2762 124.083 26.5332C124.231 26.7901 124.449 26.9997 124.712 27.1376C124.975 27.2755 125.271 27.336 125.567 27.3122C125.862 27.2883 126.145 27.181 126.382 27.0028L135.578 20.0222L143.353 26.1459C143.588 26.3317 143.871 26.4464 144.169 26.4764C144.467 26.5065 144.767 26.4506 145.034 26.3154C145.301 26.1802 145.524 25.9713 145.676 25.7135C145.828 25.4557 145.903 25.1597 145.892 24.8605L145.046 0.741943ZM129.329 80.0574C125.64 82.9312 98.0941 84.8853 98.0941 80.7994C98.6793 65.1975 91.6987 64.5183 87.8113 64.5183C84.1329 64.5183 77.9256 65.626 77.9256 73.986C77.9256 82.5027 86.9962 87.3097 97.6448 92.9527C112.766 100.968 131.085 110.676 131.085 135.087C131.085 158.495 112.066 171.411 87.8218 171.411C62.7941 171.411 40.9222 161.285 43.3884 126.184C44.3602 122.066 76.1805 123.049 76.1805 126.184C75.7834 140.667 79.0856 144.931 87.4247 144.931C93.8306 144.931 96.7356 141.399 96.7356 135.463C96.7356 126.466 87.2888 121.157 76.4104 115.054C61.6863 106.789 44.3602 97.0596 44.3602 74.7279C44.3602 52.4485 59.68 37.5886 87.0381 37.5886C114.396 37.5886 129.329 52.2186 129.329 80.0574Z" fill="white"/>
</svg>
