<svg width="334" height="304" viewBox="0 0 334 304" fill="none" xmlns="http://www.w3.org/2000/svg">
<path d="M180.853 42.0538C182.778 42.0538 184.627 42.807 186.006 44.1527C187.384 45.4984 188.183 47.3301 188.232 49.2571L188.235 49.445V134.05C188.235 135.978 187.483 137.829 186.139 139.21C184.795 140.59 182.965 141.391 181.04 141.44L180.853 141.442H111.947C110.021 141.442 108.171 140.689 106.792 139.343C105.413 137.997 104.614 136.165 104.566 134.238L104.564 134.05V49.445C104.565 47.5173 105.317 45.6659 106.661 44.2855C108.005 42.9051 109.834 42.1047 111.759 42.0551L111.947 42.0538H180.853ZM180.853 45.3417H111.947C110.885 45.3419 109.864 45.7542 109.1 46.4919C108.335 47.2295 107.885 48.2352 107.846 49.2976L107.842 49.445V134.05C107.843 135.114 108.256 136.136 108.994 136.901C109.732 137.667 110.737 138.117 111.799 138.157L111.947 138.16H180.853C181.915 138.158 182.936 137.744 183.7 137.005C184.465 136.266 184.914 135.26 184.954 134.197L184.956 134.05V49.445C184.955 48.3561 184.521 47.3125 183.752 46.5431C182.982 45.7738 181.939 45.3417 180.851 45.3417H180.853ZM121.788 120.908V125.833H116.865V120.908H121.788ZM176.755 120.908V125.833H124.252V120.908H176.753H176.755ZM121.788 99.5541V104.478H116.865V99.5541H121.788ZM176.755 99.5541V104.478H124.252V99.5541H176.753H176.755ZM121.788 79.0204V83.9431H116.865V79.0204H121.788ZM176.755 79.0204V83.9431H124.252V79.0204H176.753H176.755ZM176.755 60.1281V65.0573H116.864V60.1268H176.753L176.755 60.1281ZM180.853 158.68V158.732C182.77 158.732 184.612 159.478 185.989 160.814C187.366 162.149 188.171 163.968 188.232 165.886L188.235 166.073V250.677C188.235 252.605 187.483 254.457 186.139 255.838C184.795 257.218 182.965 258.018 181.04 258.067L180.853 258.07H111.947C110.027 258.07 108.184 257.322 106.806 255.984C105.428 254.646 104.625 252.824 104.567 250.903L104.564 250.677V166.073C104.565 164.145 105.317 162.294 106.661 160.913C108.005 159.533 109.834 158.732 111.759 158.683L111.947 158.681H180.853V158.68ZM180.853 161.969H111.947C110.885 161.97 109.864 162.382 109.1 163.12C108.335 163.857 107.885 164.863 107.846 165.925L107.842 166.073V250.677C107.843 251.741 108.256 252.763 108.994 253.529C109.732 254.295 110.737 254.745 111.799 254.785L111.947 254.787H180.853C181.911 254.786 182.928 254.375 183.692 253.642C184.456 252.908 184.908 251.908 184.954 250.85L184.956 250.703V166.099C184.955 165.036 184.542 164.015 183.804 163.25C183.066 162.485 182.061 162.037 181 161.998L180.853 161.995V161.969ZM121.788 237.554V242.485H116.865V237.554H121.788ZM176.755 237.594V242.447H124.252V237.594H176.753H176.755ZM121.788 216.2V221.129H116.865V216.2H121.788ZM176.755 216.238V221.092H124.252V216.238H176.753H176.755ZM121.788 195.672V200.596H116.865V195.672H121.788ZM176.755 195.711V200.558H124.252V195.708H176.753L176.755 195.711ZM176.755 176.779V181.709H116.864V176.779H176.753H176.755ZM200.724 91.748V95.85H225.332V207.444H200.724V211.553H229.436V91.748H225.332H200.724Z" fill="#8E8F8F"/>
<path d="M25.3882 19.3033C30.2398 11.3354 38.2334 6.688 46.3078 3.98984L47.409 3.63365L48.5088 3.30094C49.0588 3.14046 49.6074 2.98781 50.1547 2.84429L51.2455 2.56639C51.4279 2.52203 51.6091 2.47767 51.7889 2.43591L52.8705 2.18802L53.4061 2.0719L54.4721 1.85401L55.5264 1.65569L56.5663 1.47303L57.5919 1.30864L58.5992 1.15859L59.5883 1.02551L60.5566 0.906781L61.5026 0.801099L62.4253 0.708463L63.7597 0.591039L65.0303 0.499708L66.2318 0.431863L67.5376 0.37576L68.7326 0.341837L69.4624 0.330094L70.1348 0.324875H70.7486L71.5526 0.335313L72.0061 0.344446L72.8336 0.37315L73.1985 0.391416V20.111C55.7779 18.4514 48.0045 23.7198 44.5772 29.334L44.2684 29.8611C43.8423 30.6208 43.4742 31.4115 43.1672 32.2266L42.9821 32.7433C42.9522 32.8281 42.9235 32.9129 42.8961 32.999L42.7384 33.5078L42.5977 34.0076L42.4752 34.4981C42.4557 34.579 42.4361 34.6599 42.4192 34.7395L42.3188 35.2157L42.2745 35.4506L42.1963 35.9072L42.1286 36.3508L42.0751 36.7801L42.0139 37.3933L41.9735 37.9661L41.9539 38.4149L41.9448 38.8311V39.2095L41.9513 39.5487L41.9644 39.8488L41.9865 40.2141L42.0282 40.6447V47.8898L41.9852 62.6814L41.9331 73.341L41.8731 82.307L41.808 89.8835L41.7428 95.85L41.6672 101.659L41.5891 106.61L41.49 111.856L41.4288 114.59L41.3623 117.173L41.2763 120.05L41.2463 120.95L41.2437 122.615L41.2346 123.634L41.2229 124.323L41.1968 125.364L41.1551 126.371L41.1212 126.985L41.0821 127.6L41.0326 128.219L40.944 129.148L40.8736 129.769L40.7915 130.391L40.699 131.014L40.6482 131.324L40.5374 131.945L40.4775 132.256L40.3471 132.875L40.2038 133.494L40.0461 134.111C39.9901 134.316 39.9327 134.521 39.8715 134.724L39.6812 135.337L39.4753 135.944L39.2512 136.548C36.7283 143.076 31.0152 148.888 18.0813 151.58C30.6647 154.196 36.4129 159.76 39.0388 166.062L39.2785 166.665C39.5105 167.27 39.7151 167.881 39.8949 168.496L40.0683 169.111C40.1777 169.522 40.2768 169.936 40.368 170.351L40.4957 170.972L40.5543 171.284L40.6638 171.906L40.7615 172.53L40.8463 173.153L40.9218 173.777L40.987 174.399L41.0417 175.02L41.0886 175.64L41.1447 176.565L41.1733 177.178L41.2085 178.207L41.2242 178.885L41.2359 179.56L41.2437 180.558L41.2463 182.215L41.3349 185.103L41.4131 188.154L41.4861 191.423L41.5513 194.886L41.6229 199.132L41.7194 206.145L41.7845 212.088L41.8184 215.43L41.8875 223.971L41.9631 236.642L42.0152 250.356L42.0347 250.345V262.509L42.0152 262.681L41.9917 262.939L41.9774 263.171L41.9578 263.603L41.9513 263.944V264.322L41.9605 264.738L41.98 265.187L42.0191 265.753L42.0569 266.151L42.1325 266.78L42.1976 267.219L42.2745 267.669L42.3657 268.132L42.4153 268.367L42.5273 268.847L42.5899 269.09L42.7254 269.583L42.8792 270.082C42.9052 270.167 42.9339 270.252 42.9626 270.336L43.1437 270.844C43.2063 271.015 43.274 271.188 43.3431 271.36L43.5646 271.876C46.3013 278.019 53.5169 284.654 72.182 283.132L73.205 283.041V302.762L72.6825 302.788L71.7129 302.815L70.9154 302.828H69.968L69.2578 302.822L68.4889 302.806L67.6653 302.783L66.5941 302.74L65.8383 302.702L65.0538 302.655L64.238 302.599L63.3961 302.533L62.5282 302.455L61.6356 302.368L60.7194 302.267L59.7825 302.154L58.826 302.027C58.6643 302.005 58.5027 301.982 58.3412 301.958L57.3586 301.809L56.8608 301.731L55.8547 301.559C55.6852 301.529 55.5158 301.499 55.3465 301.468L54.3209 301.269C54.1484 301.235 53.9759 301.2 53.8036 301.165L52.761 300.943L51.712 300.7C51.3602 300.617 51.0083 300.531 50.6551 300.439L49.5918 300.159C39.8311 297.495 29.5752 292.229 24.3013 281.91C25.4455 269.225 30.6555 258.412 40.0135 251.681C40.454 251.37 40.8997 251.067 41.3519 250.777L41.8627 250.452C41.2294 250.843 40.6065 251.258 39.9953 251.694C30.6555 258.412 25.4455 269.225 24.3013 281.859C21.953 277.112 20.7226 271.889 20.7046 266.592L20.5873 261.156L20.4348 254.564L20.2446 246.851L19.984 237.018L19.7468 228.491L19.4184 217.326L19.0483 205.367L18.428 186.548L18.2781 182.183C17.9119 172.304 13.9516 167.492 9.82973 165.17L9.34365 164.908C9.26322 164.866 9.18242 164.825 9.10126 164.785L8.61518 164.555C8.45512 164.483 8.29394 164.414 8.13171 164.347L7.65085 164.159C7.49311 164.099 7.33409 164.042 7.17389 163.989L6.70215 163.835C6.54577 163.788 6.39199 163.744 6.23822 163.701L5.86943 163.603L5.50715 163.515L5.15008 163.437L4.80083 163.368L4.2913 163.279L3.9616 163.231L3.64232 163.189L3.18231 163.138L2.77572 163.136L1.94561 163.127C1.51212 163.12 1.07855 163.12 0.645055 163.127L0.195465 163.138V140.028C1.27579 140.067 2.24143 140.047 3.18231 139.997L3.64232 139.944L3.9616 139.904L4.2913 139.854L4.80083 139.766L5.15008 139.696L5.50715 139.618L5.86943 139.531L6.23822 139.434L6.70215 139.299L7.17389 139.146L7.65085 138.976C12.4413 137.182 17.8468 132.573 18.2781 120.95L18.8385 104.237L19.2724 90.5842L19.507 82.8367L19.8667 70.408L20.1012 61.7629L20.272 55.178L20.487 46.362L20.6121 40.8821L20.7046 36.5361C20.848 29.6876 22.5342 24.1282 25.2096 19.6165L25.3895 19.3177L25.3882 19.3033ZM260.795 19.7861V0.0678454L261.324 0.041751L262.059 0.0195707L262.536 0.0104377L263.378 0.00130463H264.02L264.724 0.00913295L265.808 0.0313132L267.193 0.0808926L267.935 0.11612L268.706 0.160481L269.92 0.242678L270.763 0.310524L271.631 0.388807L272.523 0.480137L273.437 0.581906L274.373 0.696721L275.327 0.824584L276.299 0.968103L277.288 1.12467L277.787 1.20948L278.797 1.39083L279.819 1.58915L280.851 1.80312L281.893 2.03797L282.941 2.28848C283.467 2.41895 283.996 2.55856 284.526 2.70338L285.586 3.00608C295.503 5.92213 305.698 11.6068 310.487 22.6121C312.309 26.9141 313.264 31.5345 313.295 36.2073L313.413 41.6441L313.565 48.2355L313.672 52.6455L313.841 59.2474L314.075 67.9407L314.253 74.313L314.582 85.4788L314.952 97.4379L315.572 116.257L315.722 120.621C316.095 130.665 320.181 135.469 324.376 137.746L324.861 137.998L325.103 138.115L325.585 138.337L326.068 138.535C326.147 138.568 326.228 138.598 326.307 138.628L326.783 138.8L327.019 138.878L327.487 139.023L327.717 139.09L328.403 139.266L328.85 139.366L329.285 139.451L329.709 139.524L330.038 139.574L330.358 139.616L330.818 139.666C331.624 139.71 332.464 139.73 333.355 139.711L333.805 139.698V162.815C332.809 162.781 331.812 162.791 330.818 162.847L330.514 162.879L330.199 162.918L329.709 162.988L329.199 163.077L328.85 163.146L328.493 163.225L328.131 163.312L327.762 163.408L327.531 163.474L327.062 163.617L326.826 163.696L326.349 163.866C326.269 163.896 326.189 163.927 326.109 163.958L325.627 164.157C321.031 166.139 316.131 170.851 315.723 181.892L315.16 198.597L314.728 212.251L314.493 219.999L314.133 232.43L313.899 241.075L313.728 247.66L313.513 256.476L313.388 261.955L313.295 266.3C313.259 270.364 312.538 274.392 311.163 278.216L310.999 278.664L311.007 278.705C306.097 291.407 294.215 297.379 283.245 300.158L282.168 300.421L281.634 300.545L280.569 300.78L280.041 300.888L278.994 301.094L278.474 301.191L277.444 301.371L276.936 301.454L275.93 301.611L274.942 301.751L273.974 301.876L273.025 301.987L272.1 302.086L271.199 302.172L269.896 302.279L269.062 302.338L267.87 302.408L266.749 302.458L265.381 302.5L264.601 302.513L263.885 302.518H263.236L262.656 302.511L262.15 302.502L261.534 302.484L261 302.462L260.813 302.451V282.732C279.051 284.47 286.715 278.614 289.889 272.718L290.163 272.19C290.249 272.015 290.332 271.837 290.411 271.662L290.639 271.138C290.71 270.964 290.779 270.79 290.845 270.616L291.031 270.101L291.198 269.589L291.275 269.336L291.415 268.836L291.538 268.345L291.646 267.863L291.739 267.393L291.817 266.937L291.883 266.493L291.938 266.063L291.999 265.449L292.028 265.063L292.059 264.428L292.068 264.013V263.635L292.062 263.293L292.049 262.994L292.036 262.739L292.004 262.37L291.985 262.198V251.383L292.015 241.315L292.064 230.925L292.123 222.169L292.2 213.231L292.288 205.208L292.351 200.543L292.41 196.787L292.488 192.479L292.543 189.752L292.604 187.158L292.668 184.712L292.754 181.886L292.756 180.229L292.765 179.219L292.776 178.538L292.793 177.852L292.829 176.813L292.863 176.116L292.901 175.495L292.947 174.873L292.999 174.248L293.064 173.622L293.136 172.996L293.219 172.367L293.266 172.054L293.366 171.426L293.48 170.8L293.606 170.173L293.747 169.547C293.919 168.82 294.121 168.096 294.357 167.379L294.569 166.766C294.863 165.951 295.205 165.148 295.602 164.357L295.91 163.767C298.889 158.29 304.675 153.59 315.919 151.25C301.738 148.302 296.238 141.612 294.104 134.339L293.932 133.723C293.822 133.312 293.723 132.899 293.632 132.484L293.504 131.863L293.446 131.552L293.336 130.929L293.238 130.305L293.154 129.681L293.078 129.059L293.013 128.437L292.958 127.816L292.911 127.196L292.855 126.271L292.827 125.658L292.791 124.63L292.776 123.951L292.764 123.278L292.756 122.278L292.754 120.621L292.692 118.694L292.626 116.244L292.55 113.091L292.481 109.732L292.416 106.196L292.341 101.255L292.251 94.15L292.183 87.5102L292.12 79.8189L292.038 66.1415L291.985 51.3199C293.106 50.7015 294.191 50.0217 295.238 49.2845C300.455 45.5426 304.386 40.4985 307.035 34.5647L307.217 34.1498C304.564 40.2637 300.571 45.4578 295.219 49.2924C294.346 49.9056 293.447 50.4797 292.522 51.0133L291.965 51.3264V40.3224L291.985 40.1502L292.008 39.8905L292.023 39.6583L292.042 39.2277L292.049 38.8872V38.5088L292.04 38.0913L292.02 37.6425L291.997 37.2707L291.944 36.6783L291.868 36.0494L291.802 35.6124L291.725 35.1609L291.634 34.6978C291.618 34.6194 291.602 34.5411 291.585 34.4629L291.473 33.9841C291.452 33.9026 291.432 33.8213 291.41 33.7401L291.275 33.2469L291.121 32.7472C291.095 32.6637 291.066 32.5789 291.037 32.4941L290.856 31.9852C290.794 31.8156 290.726 31.6434 290.657 31.4712L290.435 30.9532C287.699 24.8119 280.483 18.1774 261.818 19.6974L260.795 19.7887V19.7861Z" fill="#FE0902"/>
<path d="M40.815 47.09C41.0105 47.2335 41.2137 47.3679 41.417 47.4997L42.0282 47.8911V40.646L42.0087 40.4737L41.9865 40.2141L41.9709 39.9819L41.9513 39.55L41.9448 39.2108V38.8311L41.9539 38.4149L41.9735 37.9661L41.9982 37.5877L42.0308 37.1924L42.0751 36.7801L42.1286 36.3508L42.195 35.9072L42.2732 35.4506L42.367 34.9796L42.4192 34.7395L42.5338 34.2541L42.6655 33.7584L42.7384 33.5065L42.8948 32.999L42.9821 32.7433L43.1672 32.2266C43.4617 31.4477 43.824 30.6531 44.2684 29.8611L44.5772 29.334C48.0045 23.7198 55.7779 18.4527 73.1998 20.111V0.391416L72.8349 0.37315L72.2081 0.35097L71.7885 0.339227L70.7486 0.32618H70.1361L69.4623 0.330094L68.3469 0.35097L67.3278 0.383588L66.2318 0.431863L65.0303 0.501013L63.7597 0.592343L62.8762 0.666712L61.5026 0.801099L60.5566 0.905476L59.5883 1.02551L58.5992 1.15859L57.5919 1.30864L56.5663 1.47303L55.5264 1.65569L54.4721 1.85401L53.4061 2.0719C53.227 2.11035 53.048 2.14949 52.8692 2.18932L51.7889 2.43591C51.6091 2.47767 51.4279 2.52203 51.2455 2.56639L50.1547 2.84429C49.6074 2.98781 49.0601 3.14046 48.5088 3.30094L47.409 3.63365L46.3078 3.98984C38.2334 6.688 30.2398 11.3354 25.3882 19.3033C26.9572 30.9375 32.0786 40.856 40.815 47.09ZM73.205 302.763V283.042C54.1515 284.857 46.6388 278.384 43.7302 272.237L43.4917 271.711C43.3795 271.452 43.2734 271.191 43.1737 270.928L42.9887 270.41C42.9594 270.325 42.9307 270.24 42.9026 270.154L42.745 269.645L42.6042 269.147L42.4804 268.655L42.3736 268.174L42.281 267.704L42.2015 267.247L42.1364 266.804L42.0816 266.373L42.0204 265.76L41.98 265.187L41.9605 264.738L41.9513 264.322V263.944L41.9579 263.605L41.9709 263.304L41.9839 263.05L42.0152 262.681L42.0347 262.498V250.345C41.348 250.769 40.6742 251.215 40.0148 251.681C30.6555 258.412 25.4455 269.225 24.3013 281.911C29.5765 292.229 39.8298 297.495 49.5918 300.159L50.6551 300.439C51.007 300.531 51.3602 300.617 51.712 300.7L52.7624 300.942L53.8036 301.165L54.8344 301.37C55.0064 301.404 55.1758 301.435 55.3465 301.466L56.3591 301.646L56.8608 301.73L57.8512 301.886L58.3412 301.958L59.3068 302.092L59.7825 302.154L60.7208 302.267L61.6356 302.368L62.5282 302.455L63.3961 302.533L64.238 302.599L65.0538 302.655L65.8383 302.702L66.959 302.757L67.6653 302.783L68.4902 302.806L69.2591 302.822L69.968 302.828L70.9154 302.827L71.7129 302.815L72.3515 302.798L73.205 302.762V302.763ZM310.487 22.6108C305.392 10.9049 294.183 5.21888 283.698 2.48027L282.652 2.21672L281.612 1.97143L281.096 1.85531L280.069 1.63742L279.558 1.53566L278.547 1.34386L277.548 1.16773L276.563 1.00724L275.594 0.861116L274.641 0.730644L273.707 0.613219L272.793 0.507536L271.9 0.414901L271.031 0.332704L269.774 0.230936L268.576 0.151348L267.445 0.0900257L266.384 0.04697L265.72 0.0273991L264.918 0.0104378L264.177 0H263.502L262.893 0.00391416L262.356 0.0117425L261.689 0.0287039L261.199 0.04697L260.795 0.0665408V19.7874C279.848 17.9712 287.361 24.4439 290.27 30.5918L290.508 31.1189C290.622 31.3798 290.727 31.6421 290.826 31.9017L291.011 32.4184C291.041 32.5045 291.07 32.5893 291.097 32.6754L291.255 33.183L291.396 33.6827L291.52 34.1733L291.626 34.656L291.719 35.1257L291.798 35.5824L291.864 36.026L291.918 36.4565L291.98 37.0697L292.02 37.6412L292.04 38.0913L292.049 38.5062V38.8846L292.042 39.2251L292.029 39.5252L292.008 39.8905L291.965 40.3237V51.3264C293.085 50.7066 294.172 50.0272 295.219 49.2911C303.688 43.2215 308.759 33.7505 310.487 22.6108ZM296.057 253.882C294.758 252.957 293.398 252.121 291.985 251.382V262.197L292.004 262.369L292.026 262.627L292.042 262.86L292.062 263.291L292.068 263.632V264.01L292.059 264.427L292.028 265.062L291.999 265.448L291.938 266.061L291.883 266.492L291.818 266.935L291.738 267.392L291.646 267.862L291.538 268.345L291.415 268.835L291.275 269.335L291.198 269.588L291.031 270.099L290.845 270.616C290.779 270.788 290.71 270.963 290.639 271.138L290.412 271.661C290.332 271.837 290.249 272.013 290.162 272.188L289.889 272.717C286.715 278.614 279.051 284.468 260.813 282.73V302.45L261.105 302.466L261.944 302.496L262.975 302.514L263.601 302.518L264.669 302.511L265.462 302.497L266.315 302.472L267.373 302.43L268.502 302.372L269.292 302.321L270.528 302.229L271.384 302.154L272.265 302.068L273.168 301.97L274.094 301.859L275.037 301.736L276 301.598L276.978 301.447C277.143 301.421 277.307 301.393 277.473 301.364L278.474 301.19L279.486 300.998L279.997 300.896L281.027 300.679L281.544 300.565L282.586 300.319C293.736 297.613 305.998 291.66 311.008 278.704C309.025 268.354 304.031 259.6 296.057 253.882Z" fill="#FFAB00"/>
</svg>
