<svg width="470" height="470" viewBox="0 0 470 470" fill="none" xmlns="http://www.w3.org/2000/svg">
<g clip-path="url(#clip0_14_167)">
<path d="M424.102 0H45.8984C20.5494 0 0 20.5494 0 45.8984V424.102C0 449.451 20.5494 470 45.8984 470H424.102C449.451 470 470 449.451 470 424.102V45.8984C470 20.5494 449.451 0 424.102 0Z" fill="#3178C6"/>
<path d="M424.102 0H45.8984C20.5494 0 0 20.5494 0 45.8984V424.102C0 449.451 20.5494 470 45.8984 470H424.102C449.451 470 470 449.451 470 424.102V45.8984C470 20.5494 449.451 0 424.102 0Z" fill="#3178C6"/>
<path fill-rule="evenodd" clip-rule="evenodd" d="M290.94 374.003V419.957C298.411 423.787 307.246 426.658 317.446 428.573C327.647 430.488 338.397 431.445 349.699 431.445C360.714 431.445 371.177 430.392 381.09 428.286C391.003 426.18 399.696 422.709 407.166 417.874C414.636 413.04 420.551 406.721 424.908 398.918C429.266 391.115 431.445 381.47 431.445 369.982C431.445 361.652 430.201 354.352 427.71 348.082C425.22 341.811 421.629 336.235 416.935 331.352C412.242 326.469 406.615 322.089 400.054 318.211C393.494 314.334 386.095 310.672 377.858 307.226C371.824 304.736 366.413 302.319 361.624 299.974C356.835 297.627 352.764 295.234 349.412 292.793C346.06 290.352 343.474 287.767 341.654 285.038C339.835 282.309 338.924 279.222 338.924 275.775C338.924 272.617 339.738 269.768 341.367 267.231C342.995 264.694 345.294 262.516 348.263 260.697C351.232 258.878 354.871 257.465 359.181 256.46C363.492 255.455 368.28 254.953 373.548 254.953C377.379 254.953 381.425 255.24 385.687 255.814C389.949 256.389 394.235 257.275 398.546 258.471C402.856 259.668 407.046 261.176 411.117 262.994C415.187 264.814 418.946 266.92 422.394 269.314V226.375C415.403 223.694 407.764 221.708 399.48 220.415C391.195 219.123 381.689 218.477 370.962 218.477C360.043 218.477 349.699 219.65 339.93 221.995C330.161 224.341 321.565 228.002 314.142 232.98C306.719 237.96 300.853 244.302 296.543 252.009C292.234 259.715 290.078 268.93 290.078 279.653C290.078 293.343 294.029 305.024 301.931 314.693C309.832 324.362 321.828 332.548 337.919 339.25C344.24 341.835 350.131 344.371 355.59 346.861C361.049 349.35 365.766 351.935 369.74 354.616C373.715 357.296 376.852 360.216 379.151 363.376C381.45 366.535 382.599 370.125 382.599 374.147C382.599 377.114 381.881 379.866 380.444 382.404C379.007 384.941 376.828 387.142 373.907 389.009C370.986 390.877 367.346 392.336 362.989 393.389C358.63 394.443 353.531 394.969 347.688 394.969C337.727 394.969 327.863 393.222 318.093 389.727C308.324 386.234 299.272 380.992 290.94 374.003ZM213.685 260.778H272.637V223.066H108.32V260.778H166.984V428.691H213.685V260.778Z" fill="white"/>
</g>
<defs>
<clipPath id="clip0_14_167">
<rect width="470" height="470" fill="white"/>
</clipPath>
</defs>
</svg>
