<svg width="392" height="393" viewBox="0 0 392 393" fill="none" xmlns="http://www.w3.org/2000/svg">
<path d="M390.397 58.0467L206.399 387.067C202.6 393.86 192.84 393.9 188.984 387.14L1.33793 58.0784C-2.8629 50.7117 3.43642 41.7886 11.7843 43.2807L195.979 76.2045C197.154 76.4145 198.357 76.4125 199.532 76.1984L379.875 43.3279C388.195 41.8115 394.524 50.6655 390.397 58.0467Z" fill="url(#paint0_linear_14_174)"/>
<path d="M283.721 0.0965522L147.557 26.7774C145.319 27.2159 143.662 29.1125 143.527 31.3886L135.151 172.852C134.954 176.184 138.014 178.77 141.266 178.02L179.176 169.271C182.723 168.453 185.928 171.577 185.199 175.144L173.936 230.297C173.178 234.009 176.663 237.183 180.288 236.082L203.703 228.968C207.333 227.866 210.821 231.049 210.053 234.764L192.154 321.397C191.034 326.816 198.242 329.771 201.248 325.125L203.256 322.022L314.21 100.594C316.068 96.8867 312.864 92.6592 308.792 93.445L269.77 100.976C266.103 101.683 262.983 98.2682 264.018 94.6805L289.487 6.38904C290.523 2.79529 287.392 -0.622667 283.721 0.0965522Z" fill="url(#paint1_linear_14_174)"/>
<defs>
<linearGradient id="paint0_linear_14_174" x1="-3.2436" y1="31.522" x2="225.756" y2="342.522" gradientUnits="userSpaceOnUse">
<stop stop-color="#41D1FF"/>
<stop offset="1" stop-color="#BD34FE"/>
</linearGradient>
<linearGradient id="paint1_linear_14_174" x1="185.407" y1="7.34033" x2="226.832" y2="291.511" gradientUnits="userSpaceOnUse">
<stop stop-color="#FFEA83"/>
<stop offset="0.0833333" stop-color="#FFDD35"/>
<stop offset="1" stop-color="#FFA800"/>
</linearGradient>
</defs>
</svg>
