<svg width="10" height="10" viewBox="0 0 10 10" fill="none" xmlns="http://www.w3.org/2000/svg">
<g clip-path="url(#clip0_7_241)">
<path d="M4.37684 2.88261C4.28678 3.1221 4.09138 3.64653 3.94101 4.04772C3.79063 4.44891 3.48224 5.27314 3.2554 5.87886C3.02941 6.48457 2.84165 6.98278 2.83996 6.98628C2.83741 6.99065 3.07614 6.99327 3.36924 6.99327H3.90362L3.93506 6.90324C3.9529 6.8543 4.01577 6.68123 4.07439 6.51866L4.18144 6.22411H4.98344C5.62232 6.22411 5.78544 6.22148 5.78289 6.21274C5.77439 6.18914 5.64356 5.80456 5.57389 5.59916L5.49913 5.38065L4.96814 5.37628L4.43801 5.37191L4.78294 4.39385C4.99023 3.80648 5.13041 3.4219 5.13296 3.43064C5.13636 3.43851 5.27399 3.84145 5.43966 4.32567C5.60533 4.80989 5.87889 5.60703 6.04711 6.09737L6.3521 6.9889L6.88394 6.99152C7.17619 6.9924 7.41577 6.99152 7.41577 6.98977C7.41577 6.98803 7.34696 6.80185 7.262 6.57722C7.17704 6.35172 6.99523 5.86662 6.8576 5.49864C6.71997 5.13067 6.56535 4.71812 6.51352 4.58089C6.46255 4.44367 6.37334 4.20593 6.31557 4.05209C6.2578 3.89826 6.10742 3.49532 5.97999 3.15619C5.85255 2.81706 5.74126 2.51901 5.73191 2.49366L5.71577 2.44821H4.53911L4.37684 2.88261Z" fill="white"/>
<path d="M4.87981 0.00698973C4.86112 0.00786378 4.79061 0.0139821 4.72264 0.0192264C3.87306 0.0839061 3.01159 0.407304 2.3056 0.92649C2.07196 1.0978 1.88761 1.25863 1.68201 1.47015C0.500247 2.68683 0.0134402 4.42793 0.383006 6.11922C0.53423 6.81321 0.857069 7.51158 1.28526 8.07272C1.95727 8.95463 2.87821 9.57608 3.9113 9.84529C4.33184 9.95542 4.68101 10 5.12194 10C5.55692 10 5.87721 9.95979 6.29181 9.85578C6.88736 9.70544 7.4107 9.45809 7.93404 9.08137C8.43529 8.71951 8.90171 8.21257 9.23644 7.66629C9.66802 6.96005 9.91355 6.1804 9.97387 5.32471C9.98661 5.14465 9.97897 4.69889 9.96028 4.51534C9.9229 4.15086 9.82774 3.67013 9.77252 3.56962C9.75043 3.53028 9.68841 3.47959 9.64254 3.46298C9.62639 3.45774 9.59071 3.45337 9.56183 3.45337C9.43439 3.45337 9.32734 3.56262 9.32734 3.69111C9.32734 3.7217 9.34094 3.79512 9.36048 3.87466C9.52869 4.54768 9.54229 5.28712 9.39871 5.96189C9.2152 6.82632 8.8057 7.58849 8.18806 8.21344C7.90006 8.5045 7.62224 8.71951 7.26287 8.93103C6.42434 9.42487 5.38191 9.61192 4.40405 9.4441C3.66152 9.31736 3.01669 9.02368 2.40415 8.53334C2.11614 8.30259 1.76527 7.92238 1.54777 7.60423C1.17226 7.05533 0.93608 6.4767 0.813741 5.80456C0.751722 5.46193 0.730482 5.00743 0.759368 4.6377C0.803546 4.07656 0.940328 3.55563 1.17226 3.06179C1.27931 2.83192 1.34558 2.71217 1.47386 2.51376C1.73553 2.10646 2.08216 1.72537 2.46532 1.42295C2.91474 1.06721 3.44828 0.79713 3.98776 0.652038C4.27916 0.573374 4.51195 0.534042 4.8076 0.51219C5.87721 0.433526 6.9171 0.749932 7.76412 1.41334C7.82699 1.46228 7.89326 1.5156 7.9111 1.53221L7.94338 1.56105L7.93064 1.59776C7.86522 1.78655 7.91365 2.02167 8.05128 2.186C8.12179 2.2699 8.24923 2.34857 8.35713 2.37479C8.43104 2.39315 8.55933 2.39315 8.63409 2.37479C8.82354 2.32847 9.00026 2.16152 9.05633 1.97622C9.1192 1.76907 9.08267 1.56455 8.95353 1.39848C8.8108 1.21493 8.56527 1.13277 8.33844 1.19395L8.28916 1.20706L8.2195 1.14762C7.93659 0.903764 7.59421 0.67826 7.23399 0.49908C6.64948 0.208021 6.06242 0.0515662 5.39381 0.00961187C5.26552 0.00174542 4.96222 -2.66894e-06 4.87981 0.00698973Z" fill="white"/>
</g>
<defs>
<clipPath id="clip0_7_241">
<rect width="10" height="10" fill="white"/>
</clipPath>
</defs>
</svg>
