<svg width="10" height="10" viewBox="0 0 10 10" fill="none" xmlns="http://www.w3.org/2000/svg">
<circle cx="5" cy="5" r="5" fill="white"/>
<path d="M7.08575 4.56471C7.04943 5.8659 6.66142 5.98302 6.64681 6.23229C6.63367 6.51257 6.70227 6.82643 6.98278 6.89655C7.32761 6.98276 7.42203 6.86124 7.58195 6.70131C7.70904 6.53334 7.71036 6.37627 7.70399 6.22337C7.65217 6.02715 7.45554 5.80043 7.18468 5.81849C7.24086 5.66199 7.47761 5.60179 7.58623 5.60345C7.86084 5.6038 7.9868 5.76715 8.03941 5.78839C8.21183 5.9608 8.1899 6.30404 8.18968 6.37931C8.27818 6.36825 8.51494 6.34417 8.68548 6.5729C8.73966 6.64513 8.80787 6.77154 8.80386 7.01231C8.7838 7.27716 8.66742 7.40958 8.535 7.46175C8.52697 7.23502 8.46076 7.02033 8.19391 6.88992C7.99728 6.79762 7.85683 6.81769 7.77256 6.8839C7.55787 7.05846 7.24754 7.32044 7.06696 7.4438C6.51627 7.75491 5.61533 8.0601 4.58085 7.88768C3.99204 7.78955 3.26501 7.25259 2.84485 6.86031C2.25967 6.31395 1.89658 5.48657 1.89658 4.65517C1.89658 3.22685 3.10909 2.03085 4.53741 2.03085C5.96573 2.03085 7.08575 3.13639 7.08575 4.56471Z" fill="#E43961"/>
</svg>
