<svg width="12" height="9" viewBox="0 0 12 9" fill="none" xmlns="http://www.w3.org/2000/svg">
<path d="M0.452912 2.97206C0.215048 2.58003 0.383537 2.06822 0.807765 1.89414L2.68904 1.1222C4.03386 0.570371 5.52387 1.49916 5.62061 2.94958V2.94958L1.40515 4.79977C1.40515 4.79977 0.983607 3.91495 0.814988 3.16415V3.16415C0.701687 3.21048 0.571517 3.16754 0.50802 3.06289L0.452912 2.97206Z" fill="white"/>
<path d="M1.68619 5.28244L5.76113 3.5127C5.76113 3.5127 5.81733 3.80765 5.92975 4.20987C6.04216 4.61208 6.15457 4.88023 6.15457 4.88023L2.61359 6.62316C2.61359 6.62316 2.36066 6.35502 2.10773 5.97962C1.85481 5.60422 1.68619 5.28244 1.68619 5.28244Z" fill="white"/>
<path d="M2.97891 7.05218L6.37938 5.4165C6.37938 5.4165 7.05385 6.64996 8.09367 7.21307C8.98086 7.69352 10.0726 7.62739 10.374 7.59763C10.415 7.59358 10.4387 7.55132 10.4228 7.5133V7.5133C10.4092 7.48091 10.4248 7.44368 10.4574 7.43058L10.86 7.26885C10.9017 7.25208 10.9495 7.26758 10.9734 7.30566V7.30566C10.9981 7.34485 11.0478 7.35997 11.0901 7.34114L11.2695 7.26125C11.3688 7.21703 11.4854 7.24516 11.5536 7.32979L11.7792 7.60958C11.8904 7.7475 11.84 7.95339 11.6777 8.02437L11.38 8.15454C11.3506 8.16743 11.3382 8.20261 11.3531 8.2311V8.2311C11.3684 8.26026 11.3551 8.29623 11.3245 8.30839L10.8023 8.51599C10.7491 8.53713 10.6888 8.51265 10.6653 8.46047V8.46047C10.6417 8.40786 10.581 8.38301 10.5269 8.4032C10.1021 8.56196 8.33236 9.16633 6.5199 8.956C4.44027 8.71467 2.97891 7.05218 2.97891 7.05218Z" fill="white"/>
</svg>
