<svg width="10" height="10" viewBox="0 0 10 10" fill="none" xmlns="http://www.w3.org/2000/svg">
<path fill-rule="evenodd" clip-rule="evenodd" d="M0 0H10V10H0V0ZM7.64444 8.38315C7.18095 8.38315 6.91888 8.14141 6.71745 7.81252L5.9538 8.25617C6.22968 8.80125 6.79349 9.21712 7.66618 9.21712C8.55872 9.21712 9.22333 8.75363 9.22333 7.9076C9.22333 7.12284 8.77253 6.77379 7.97412 6.43141L7.7392 6.33077C7.33603 6.15617 7.16142 6.04204 7.16142 5.76014C7.16142 5.53204 7.33587 5.35744 7.6111 5.35744C7.88095 5.35744 8.05476 5.47125 8.21587 5.76014L8.94761 5.2903C8.63809 4.74585 8.20856 4.53792 7.6111 4.53792C6.7719 4.53792 6.23491 5.07442 6.23491 5.77919C6.23491 6.54427 6.68539 6.90617 7.36349 7.19506L7.59841 7.29585C8.02698 7.48331 8.28253 7.59744 8.28253 7.91966C8.28253 8.18855 8.0338 8.38315 7.64444 8.38315ZM4.00269 8.37728C3.67983 8.37728 3.54555 8.15585 3.39793 7.89395L2.63301 8.35704C2.8546 8.82601 3.29031 9.21538 4.04269 9.21538C4.87539 9.21538 5.44587 8.77252 5.44587 7.7995V4.59157H4.50618V7.78681C4.50618 8.25649 4.31142 8.37728 4.00269 8.37728Z" fill="#463E00"/>
</svg>
