<svg width="8" height="8" viewBox="0 0 8 8" fill="none" xmlns="http://www.w3.org/2000/svg">
<path d="M7.66573 0H3.81058C3.81058 0.959552 4.59052 1.74058 5.54874 1.74058H6.26183V2.4212C6.26183 3.38075 7.04178 4.16178 7.99999 4.16178V0.334728C7.99999 0.145049 7.844 0 7.66573 0Z" fill="white"/>
<path d="M5.76046 1.91919H1.9053C1.9053 2.87874 2.68525 3.65977 3.64347 3.65977H4.35656V4.35154C4.35656 5.3111 5.1365 6.09213 6.09472 6.09213V2.26507C6.09472 2.0754 5.93873 1.91919 5.76046 1.91919Z" fill="white"/>
<path d="M3.85515 3.83826H0C0 4.79781 0.779944 5.57884 1.73816 5.57884H2.44011V6.25945C2.44011 7.21901 3.22006 8.00004 4.17827 8.00004V4.16183C4.18942 3.99446 4.03343 3.83826 3.85515 3.83826Z" fill="white"/>
</svg>
