<svg width="10" height="10" viewBox="0 0 10 10" fill="none" xmlns="http://www.w3.org/2000/svg">
<g clip-path="url(#clip0_202_889)">
<path fill-rule="evenodd" clip-rule="evenodd" d="M5.79548 0.165894C5.7271 0.165894 5.66359 0.181064 5.60498 0.201289C5.72954 0.287251 5.79792 0.401024 5.83211 0.529966C5.83456 0.547663 5.83944 0.560305 5.84189 0.578002C5.84434 0.593172 5.84677 0.608342 5.84677 0.623512C5.85654 0.846 5.79059 0.873811 5.74419 1.00528C5.67336 1.17468 5.6929 1.35671 5.77838 1.50335C5.78571 1.52105 5.79548 1.54128 5.80769 1.55897C5.71488 0.91932 6.23021 0.823245 6.32546 0.623512C6.33279 0.449061 6.19358 0.33276 6.08367 0.251855C5.97865 0.18612 5.8834 0.165894 5.79548 0.165894ZM6.57214 0.310005C6.56236 0.368156 6.56969 0.352986 6.56725 0.383326C6.56481 0.403551 6.56481 0.428835 6.56237 0.44906C6.55749 0.469287 6.5526 0.489513 6.54528 0.50974C6.5404 0.529966 6.53307 0.550192 6.52574 0.570418C6.51597 0.590645 6.50864 0.608342 6.49887 0.628568C6.49155 0.638685 6.48666 0.648794 6.47934 0.658908C6.47445 0.666493 6.46956 0.674077 6.46468 0.681662C6.45247 0.699361 6.44026 0.717058 6.42805 0.732227C6.41339 0.747398 6.40118 0.765095 6.38408 0.777737V0.780269C6.36943 0.79291 6.35478 0.80808 6.33768 0.820721C6.28639 0.861173 6.22778 0.891512 6.17405 0.929437C6.15695 0.942078 6.13985 0.952192 6.1252 0.967361C6.1081 0.980002 6.09345 0.992643 6.0788 1.00781C6.0617 1.02298 6.04949 1.03815 6.03483 1.05585C6.02262 1.07102 6.00797 1.08872 5.9982 1.10642C5.98599 1.12411 5.97378 1.14181 5.96401 1.15951C5.95423 1.17974 5.94691 1.19743 5.93714 1.21766C5.92981 1.23789 5.92249 1.25558 5.9176 1.27581C5.91028 1.29856 5.90539 1.31879 5.90051 1.33902C5.89806 1.34914 5.89806 1.36177 5.89563 1.37188C5.89318 1.382 5.89318 1.39211 5.89075 1.40222C5.89075 1.42245 5.8883 1.44521 5.8883 1.46543C5.8883 1.4806 5.8883 1.49577 5.89075 1.51094C5.89075 1.53117 5.89319 1.55139 5.89807 1.57415C5.90052 1.59437 5.9054 1.6146 5.91028 1.63483C5.91761 1.65505 5.9225 1.67528 5.92982 1.6955C5.9347 1.70815 5.94203 1.72079 5.94692 1.7309L5.38519 1.50588C5.28994 1.47807 5.19713 1.45279 5.10188 1.43004C5.05059 1.41739 4.9993 1.40475 4.94801 1.39211C4.80147 1.36177 4.65249 1.33902 4.50351 1.32385C4.49863 1.32385 4.49618 1.32132 4.4913 1.32132C4.34476 1.30615 4.20066 1.29856 4.05413 1.29856C3.94666 1.29856 3.8392 1.30361 3.73418 1.3112C3.5852 1.32132 3.43622 1.34154 3.28724 1.36683C3.2506 1.37188 3.21397 1.37947 3.17733 1.38705C3.10162 1.40222 3.02835 1.41992 2.95752 1.43762C2.92089 1.44773 2.88425 1.45784 2.84762 1.46796C2.81099 1.48313 2.77679 1.50082 2.7426 1.51599C2.71573 1.52863 2.68887 1.54128 2.662 1.55392C2.65712 1.55645 2.65223 1.55645 2.64979 1.55897C2.62537 1.57161 2.60339 1.58172 2.58141 1.59437C2.57408 1.5969 2.5692 1.59942 2.56431 1.60195C2.53745 1.61459 2.51058 1.62976 2.4886 1.6424C2.4715 1.64999 2.45441 1.6601 2.43975 1.66769C2.43243 1.67274 2.42266 1.6778 2.41777 1.68033C2.39579 1.69297 2.37381 1.70561 2.35427 1.71825C2.33229 1.73089 2.31275 1.74353 2.29566 1.75618C2.27856 1.76882 2.26146 1.77893 2.24681 1.79157C2.24436 1.7941 2.24193 1.7941 2.23948 1.79662C2.22483 1.80674 2.20773 1.81938 2.19308 1.83202C2.19308 1.83202 2.19063 1.83455 2.1882 1.83707C2.17599 1.84719 2.16378 1.8573 2.15156 1.86741C2.14668 1.86994 2.14179 1.875 2.13691 1.87753C2.1247 1.88765 2.11249 1.90028 2.10028 1.9104C2.09783 1.91545 2.09295 1.91798 2.0905 1.92051C2.07585 1.93568 2.0612 1.94832 2.04654 1.9635C2.04409 1.9635 2.04409 1.96603 2.04166 1.96855C2.02701 1.98119 2.01235 1.99636 1.9977 2.01153C1.99525 2.01406 1.99525 2.01658 1.99282 2.01658C1.98061 2.02922 1.96839 2.04186 1.95618 2.05703C1.9513 2.06209 1.94397 2.06715 1.93909 2.0722C1.92688 2.08737 1.91222 2.10254 1.89757 2.11771C1.89512 2.12276 1.89024 2.1253 1.88779 2.13035C1.86826 2.15058 1.85116 2.17081 1.83162 2.19103C1.82917 2.19356 1.82674 2.19608 1.82429 2.19862C1.78522 2.2416 1.7437 2.28458 1.69974 2.3225C1.65577 2.36295 1.60937 2.40088 1.56297 2.43375C1.51412 2.46914 1.46772 2.49948 1.41643 2.52982C1.36758 2.55763 1.31629 2.58291 1.26256 2.60567C1.21127 2.62842 1.15754 2.64865 1.10381 2.66635C1.00123 2.6891 0.896214 2.73208 0.805848 2.73967C0.78631 2.73967 0.764329 2.74472 0.744791 2.74725C0.72281 2.7523 0.703272 2.75737 0.683733 2.76242C0.664195 2.77001 0.644656 2.77759 0.625117 2.78518C0.605579 2.79276 0.586041 2.80287 0.566502 2.81299C0.549406 2.82563 0.529868 2.83574 0.512771 2.84838C0.495675 2.86102 0.478578 2.87619 0.463924 2.89136C0.446829 2.90401 0.429732 2.9217 0.415078 2.93687C0.400424 2.95457 0.38577 2.96974 0.373559 2.98744C0.361348 3.00766 0.346694 3.02536 0.336924 3.04559C0.324713 3.06329 0.312501 3.08351 0.302732 3.10374C0.292959 3.12649 0.283193 3.14672 0.275866 3.16947C0.268539 3.1897 0.261212 3.21246 0.253885 3.23521C0.249005 3.25544 0.244112 3.27566 0.241674 3.29589C0.241674 3.29842 0.239228 3.30094 0.239228 3.30347C0.234347 3.32623 0.234347 3.35657 0.231901 3.37174C0.229455 3.38944 0.22702 3.4046 0.22702 3.4223C0.22702 3.43242 0.22702 3.44506 0.229466 3.45517C0.231912 3.47287 0.234347 3.48804 0.239239 3.50321C0.24412 3.51838 0.249013 3.53355 0.256335 3.54872V3.55125C0.263662 3.56642 0.273432 3.58159 0.2832 3.59676C0.292973 3.61193 0.30274 3.6271 0.314951 3.64227C0.327162 3.65491 0.341816 3.67008 0.35647 3.68272C0.371124 3.69789 0.385778 3.71053 0.402874 3.72317C0.46149 3.77627 0.476144 3.79396 0.551855 3.83442C0.564067 3.842 0.576279 3.84706 0.590933 3.85464C0.59338 3.85464 0.595814 3.85717 0.59826 3.85717C0.59826 3.86223 0.59826 3.86476 0.600707 3.86982C0.603153 3.89004 0.608034 3.91027 0.612918 3.93049C0.617799 3.95325 0.62513 3.97348 0.632457 3.99117C0.639784 4.00634 0.644669 4.02151 0.651996 4.03668C0.654442 4.04174 0.656877 4.0468 0.659323 4.04932C0.669096 4.06955 0.678861 4.08725 0.688629 4.10495C0.700842 4.12264 0.713053 4.14034 0.725264 4.15804C0.737476 4.17321 0.75213 4.19091 0.766784 4.20608C0.781438 4.22125 0.796092 4.23389 0.813188 4.24906C0.813188 4.24906 0.815635 4.25159 0.818069 4.25159C0.832723 4.26423 0.847377 4.27688 0.862031 4.28699C0.879127 4.29963 0.896224 4.30974 0.915762 4.31986C0.932859 4.32997 0.952397 4.34008 0.971935 4.34767C0.986589 4.35525 1.00368 4.36031 1.02078 4.36536C1.02323 4.3679 1.02566 4.3679 1.03055 4.37042C1.04033 4.37295 1.05253 4.37547 1.0623 4.378C1.05498 4.51453 1.05253 4.64347 1.07208 4.68898C1.09406 4.73955 1.20152 4.58532 1.30898 4.40834C1.29433 4.58279 1.28456 4.78758 1.30898 4.84826C1.33585 4.91147 1.48239 4.71426 1.60939 4.49683C3.34099 4.0822 4.92117 5.32105 5.08724 7.07062C5.05549 6.79756 4.73066 6.64587 4.58168 6.68379C4.50841 6.87088 4.38386 7.11107 4.18359 7.26024C4.20068 7.09337 4.19336 6.92145 4.15916 6.75458C4.10543 6.98718 4.00041 7.20462 3.85632 7.39171C3.6243 7.40941 3.39228 7.2931 3.27016 7.11865C3.26039 7.11107 3.25795 7.0959 3.25062 7.08579C3.24329 7.06809 3.23597 7.05039 3.23108 7.03269C3.22376 7.01499 3.21887 6.9973 3.21643 6.9796C3.21398 6.9619 3.21398 6.9442 3.21398 6.92398C3.21398 6.91133 3.21398 6.89869 3.21398 6.88605C3.21643 6.86835 3.22131 6.85066 3.22619 6.83296C3.23107 6.81526 3.23597 6.79756 3.24329 6.77986C3.25306 6.76217 3.26039 6.74447 3.2726 6.72677C3.31412 6.60541 3.31412 6.50681 3.23841 6.44866C3.22375 6.43854 3.2091 6.43096 3.192 6.42338C3.18223 6.42085 3.17002 6.41579 3.16025 6.41326C3.15292 6.41073 3.14804 6.40821 3.14071 6.40567C3.12362 6.40062 3.10652 6.39556 3.08942 6.39303C3.07233 6.38798 3.05523 6.38545 3.03814 6.38545C3.02104 6.38291 3.0015 6.3804 2.9844 6.3804C2.97219 6.3804 2.95998 6.38293 2.94777 6.38293C2.92823 6.38293 2.91113 6.38546 2.89404 6.39051C2.87694 6.39305 2.85985 6.39557 2.84275 6.40063C2.82565 6.40568 2.80856 6.41075 2.79146 6.41833C2.77437 6.42591 2.75971 6.4335 2.74262 6.44108C2.72796 6.44867 2.71331 6.45878 2.69621 6.46637C2.12715 6.85066 2.46663 7.75073 2.85496 8.01114C2.70842 8.03895 2.55944 8.07182 2.51792 8.10469C2.51548 8.10722 2.51304 8.10974 2.51304 8.10974C2.61806 8.17548 2.72797 8.2311 2.84275 8.27913C2.99906 8.33223 3.16514 8.38027 3.23841 8.40049V8.40302C3.44112 8.44601 3.64628 8.46118 3.85387 8.44853C4.93582 8.37016 5.82238 7.51813 5.98357 6.39557C5.98845 6.41833 5.99335 6.43855 5.99823 6.46131C6.00555 6.50682 6.01532 6.55485 6.02021 6.60289V6.60543C6.02509 6.62818 6.02753 6.65094 6.02998 6.67116V6.68128C6.03243 6.70403 6.03486 6.72679 6.03486 6.74701C6.03731 6.77482 6.03974 6.80264 6.03974 6.83045V6.8709C6.03974 6.88354 6.04219 6.89871 6.04219 6.91135C6.04219 6.92652 6.03974 6.94169 6.03974 6.95686V6.99226C6.03974 7.00995 6.03729 7.02512 6.03729 7.04282C6.03729 7.05294 6.03729 7.06305 6.03485 7.07569C6.03485 7.09339 6.0324 7.11109 6.0324 7.13131C6.02995 7.1389 6.02995 7.14648 6.02995 7.15407C6.02751 7.17429 6.02507 7.19199 6.02262 7.21222C6.02262 7.2198 6.02263 7.22739 6.02018 7.23497C6.01773 7.26025 6.01285 7.28301 6.01041 7.30829V7.31083V7.31336C6.00553 7.33611 6.00063 7.36139 5.99575 7.38415V7.39173C5.99087 7.41449 5.98598 7.43724 5.9811 7.46C5.9811 7.46253 5.97865 7.46758 5.97865 7.47011C5.97377 7.49287 5.96888 7.51562 5.96156 7.53838V7.54596C5.95423 7.57124 5.9469 7.594 5.94202 7.61675C5.93957 7.61929 5.93957 7.62181 5.93957 7.62181C5.93225 7.64709 5.92492 7.67237 5.91759 7.69766C5.90782 7.72294 5.9005 7.74569 5.89073 7.77098C5.88096 7.79626 5.87363 7.82154 5.86386 7.8443C5.85409 7.86958 5.84432 7.89233 5.83456 7.91762H5.83211C5.82233 7.94037 5.81257 7.96565 5.80035 7.98841C5.79791 7.99599 5.79547 8.00105 5.79303 8.0061C5.79058 8.00864 5.79058 8.01116 5.78815 8.01369C5.6294 8.34489 5.39493 8.63565 5.10186 8.86319C5.08232 8.87583 5.06278 8.891 5.04324 8.90617C5.03836 8.91122 5.03103 8.91376 5.02615 8.91881C5.00905 8.93145 4.99195 8.94409 4.97242 8.95674L4.97974 8.97191H4.98219C5.01638 8.96686 5.05057 8.96179 5.08476 8.95674H5.08721C5.15071 8.94662 5.21421 8.93398 5.27771 8.92134C5.29481 8.91881 5.31435 8.91376 5.33144 8.9087C5.34365 8.90616 5.35342 8.90365 5.36563 8.90111C5.38273 8.89858 5.39983 8.89353 5.41692 8.891C5.43158 8.88594 5.44623 8.88341 5.46088 8.87836C5.70512 8.81768 5.94202 8.73424 6.16915 8.63564C5.78083 9.18428 5.26061 9.62673 4.65248 9.91748C4.93334 9.89725 5.21421 9.84921 5.48531 9.76831C6.46956 9.46744 7.2975 8.78228 7.79329 7.85946C7.69316 8.44349 7.46847 8.99971 7.13631 9.48514C7.37322 9.32333 7.59058 9.13624 7.78841 8.92386C8.33549 8.33225 8.69451 7.58135 8.81662 6.77483C8.89966 7.1743 8.92409 7.58641 8.88745 7.99346C10.6508 5.44748 9.03399 2.80796 8.35747 2.11269C8.35502 2.10764 8.35259 2.1051 8.35259 2.10005C8.35014 2.10258 8.35014 2.10258 8.35014 2.1051C8.35014 2.10257 8.35014 2.10257 8.34769 2.10005C8.34769 2.13039 8.34525 2.16073 8.34281 2.19106C8.33549 2.24922 8.32816 2.30484 8.31839 2.36046C8.30618 2.41608 8.29152 2.4717 8.27687 2.52733C8.25977 2.58042 8.24024 2.63604 8.21826 2.68914C8.19627 2.7397 8.17185 2.79279 8.14499 2.84336C8.11812 2.8914 8.08881 2.94196 8.05706 2.98747C8.02531 3.03551 7.99112 3.08102 7.95693 3.124C7.92029 3.16951 7.88122 3.20996 7.84214 3.25041C7.81772 3.27317 7.79573 3.29339 7.77131 3.31362C7.75177 3.33132 7.73468 3.34649 7.71514 3.36418C7.67118 3.39958 7.62721 3.43245 7.57837 3.46279C7.53196 3.49313 7.48312 3.52347 7.43427 3.54875C7.38298 3.57403 7.33169 3.59679 7.28041 3.61954C7.22912 3.63977 7.17539 3.65746 7.12165 3.67263C7.06792 3.6878 7.01175 3.70045 6.95802 3.71056C6.90185 3.72068 6.84567 3.72573 6.79194 3.73079C6.75287 3.73332 6.71379 3.73584 6.67471 3.73584C6.61854 3.73584 6.56237 3.73079 6.50864 3.72572C6.45246 3.72067 6.39629 3.71308 6.34256 3.70044C6.28638 3.69032 6.23265 3.67515 6.17892 3.65746H6.17648C6.23021 3.6524 6.28394 3.64734 6.33767 3.63723C6.39384 3.62711 6.44757 3.61448 6.5013 3.59931C6.55504 3.58414 6.60877 3.56644 6.66006 3.54621C6.71379 3.52599 6.76507 3.5007 6.81392 3.47542C6.86521 3.45014 6.91161 3.42233 6.96046 3.39199C7.00686 3.35912 7.05327 3.32625 7.09723 3.29086C7.14119 3.25546 7.18271 3.21754 7.22179 3.17708C7.26331 3.13916 7.29994 3.09618 7.33658 3.0532C7.37321 3.00769 7.4074 2.96218 7.43915 2.91667C7.44403 2.90909 7.44893 2.89897 7.45381 2.89139C7.47823 2.85094 7.50265 2.81048 7.52463 2.77003C7.5515 2.71947 7.57592 2.6689 7.5979 2.61581C7.61988 2.56271 7.63942 2.50962 7.65652 2.454C7.67362 2.4009 7.68583 2.34528 7.69804 2.28966C7.70781 2.23151 7.71758 2.17589 7.72246 2.12026C7.72734 2.06211 7.73223 2.00396 7.73223 1.94834C7.73223 1.90789 7.72979 1.86744 7.72735 1.82699C7.72247 1.76884 7.71514 1.71321 7.70782 1.65759C7.69804 1.59944 7.68584 1.54382 7.67118 1.4882C7.65409 1.4351 7.63699 1.37948 7.61745 1.32639C7.59791 1.27329 7.57349 1.2202 7.54906 1.16963C7.5222 1.11907 7.49533 1.0685 7.46603 1.02047C7.43428 0.972428 7.40253 0.926919 7.36833 0.88141C7.3317 0.838429 7.29506 0.795448 7.25599 0.752468C7.23645 0.732242 7.21447 0.709487 7.19249 0.689261C7.08258 0.600771 6.96779 0.517338 6.85301 0.44149C6.83591 0.431373 6.82126 0.423792 6.80416 0.416206C6.72356 0.363113 6.64785 0.335287 6.57214 0.310005Z" fill="white"/>
</g>
<defs>
<clipPath id="clip0_202_889">
<rect width="10" height="10" fill="white"/>
</clipPath>
</defs>
</svg>
