<svg width="14" height="8" viewBox="0 0 14 8" fill="none" xmlns="http://www.w3.org/2000/svg">
<ellipse cx="1.32806" cy="1.28859" rx="1.32806" ry="1.28859" fill="white"/>
<ellipse cx="12.6719" cy="6.71144" rx="1.32806" ry="1.28859" fill="white"/>
<path d="M2.57312 0.91272H8.57707C8.57707 0.91272 9.44861 0.952988 9.96047 1.44963C10.4723 1.94628 10.4447 2.63084 10.4447 2.63084C10.4447 2.63084 10.4723 3.30198 9.96047 3.79863C9.44861 4.29527 8.57707 4.34896 8.57707 4.34896H5.16008C5.16008 4.34896 4.74506 4.37581 4.48221 4.63084C4.21937 4.88587 4.2747 5.34225 4.2747 5.34225C4.2747 5.34225 4.2332 5.7852 4.48221 6.02681C4.73122 6.26842 5.16008 6.33554 5.16008 6.33554H11.4545V7.06037H5.16008C5.16008 7.06037 4.44071 7.00668 3.94269 6.52346C3.44466 6.04024 3.51383 5.34225 3.51383 5.34225C3.51383 5.34225 3.47233 4.59057 3.94269 4.1342C4.41304 3.67782 5.16008 3.65097 5.16008 3.65097H8.57707C8.57707 3.65097 9.17193 3.53017 9.43478 3.27514C9.69763 3.0201 9.69763 2.63084 9.69763 2.63084C9.69763 2.63084 9.78063 2.28185 9.43478 1.94628C9.08893 1.61071 8.57707 1.61071 8.57707 1.61071H2.57312V0.91272Z" fill="white"/>
</svg>
