<svg width="10" height="10" viewBox="0 0 10 10" fill="white" xmlns="http://www.w3.org/2000/svg">
<path d="M9.91409 1.32276C9.80295 1.13352 9.59851 1.01597 9.3806 1.01597C9.34299 1.01597 9.30499 1.01942 9.26761 1.02618L7.36493 1.37263L7.57614 0.641097C7.62029 0.488122 7.59068 0.327463 7.495 0.200381C7.40047 0.0749125 7.25056 0 7.09395 0C7.0615 0 7.02881 0.00315025 6.99681 0.00945057L3.78817 0.637486C3.56334 0.681511 3.39681 0.871827 3.38328 1.10025L3.35989 1.49425L0.730353 1.02488C0.693664 1.01835 0.656283 1.01497 0.61944 1.01497C0.400459 1.01497 0.195477 1.13337 0.0846407 1.32399C-0.0274265 1.51677 -0.0282726 1.74765 0.082487 1.94165L4.50426 9.68737C4.6144 9.88022 4.82084 10 5.04306 10C5.26742 10 5.47486 9.87845 5.58439 9.68283L9.92017 1.93804C10.0287 1.74419 10.0265 1.51415 9.91409 1.32276ZM6.60646 2.61295C6.58423 2.68986 6.64322 2.76331 6.71914 2.76331C6.7266 2.76331 6.73422 2.76262 6.74198 2.76108L7.66152 2.58383C7.66937 2.58229 7.67713 2.5816 7.68467 2.5816C7.76905 2.5816 7.82935 2.67203 7.7892 2.75209L5.17458 7.9643L5.12728 8.03737C5.10274 8.07525 5.06636 8.09162 5.03036 8.09162C4.96237 8.09162 4.89568 8.03299 4.91299 7.94963L5.3348 5.9104C5.35041 5.83495 5.29134 5.76879 5.21981 5.76879C5.2085 5.76879 5.19681 5.77048 5.18512 5.77402L4.6334 5.94144C4.62171 5.94497 4.61009 5.94666 4.59871 5.94666C4.52733 5.94666 4.46826 5.88066 4.48372 5.80529L4.74916 4.50704C4.76446 4.4322 4.70616 4.36566 4.63417 4.36566C4.62532 4.36566 4.61632 4.36666 4.60725 4.36874L3.71394 4.57465C3.70494 4.57673 3.69594 4.57772 3.68717 4.57772C3.62141 4.57772 3.56572 4.52217 3.56988 4.45302L3.76724 1.12315C3.76963 1.08296 3.79216 1.04778 3.82555 1.02841C3.8367 1.02196 3.84901 1.0172 3.86216 1.01466L7.0708 0.386625C7.07865 0.385089 7.08642 0.38432 7.09403 0.38432C7.13195 0.38432 7.16572 0.402683 7.18718 0.430651C7.19256 0.437642 7.19718 0.445249 7.20087 0.453316C7.20825 0.469451 7.2121 0.48743 7.21141 0.506178C7.21102 0.515551 7.20956 0.525079 7.20679 0.53476L6.60646 2.61295ZM9.58443 1.75065L5.24865 9.49536C5.20373 9.57565 5.12336 9.61583 5.04298 9.61583C4.96329 9.61583 4.88353 9.57627 4.8383 9.49705L0.416535 1.75141C0.324928 1.59099 0.445147 1.39921 0.61944 1.39921C0.633516 1.39921 0.647976 1.40044 0.662744 1.40313L3.41327 1.89425L3.26267 4.43497C3.25575 4.55137 3.29767 4.66677 3.37766 4.75152C3.45781 4.8365 3.57057 4.88521 3.6871 4.88521C3.71925 4.88521 3.75155 4.88152 3.78301 4.8743L4.38857 4.7347L4.18228 5.7439C4.15659 5.86952 4.18836 5.99837 4.26935 6.09749C4.35065 6.19699 4.47072 6.25407 4.59871 6.25407C4.64063 6.25407 4.68239 6.24785 4.72278 6.23563L4.96875 6.16095L4.61163 7.88755C4.58548 8.01378 4.61648 8.14263 4.6967 8.24098C4.77739 8.33994 4.90214 8.3991 5.03036 8.3991C5.17381 8.3991 5.30665 8.32634 5.38556 8.20448L5.43287 8.13142C5.43902 8.12197 5.44456 8.11221 5.44964 8.10214L8.06418 2.89001C8.13079 2.75731 8.12394 2.60273 8.04603 2.47657C7.9678 2.35002 7.83274 2.27442 7.68467 2.27442C7.65744 2.27442 7.63006 2.27703 7.60314 2.28225L6.98789 2.40089L7.16133 1.80036L9.33653 1.40436C9.35153 1.40159 9.36622 1.40036 9.3806 1.40036C9.55389 1.40013 9.67427 1.59014 9.58443 1.75065Z" />
</svg>
