<svg width="440" height="309" viewBox="0 0 440 309" fill="none" xmlns="http://www.w3.org/2000/svg">
<path d="M379.615 111.7C377.315 95 368.115 80.5 351.515 67.4L341.915 60.9L335.515 70.6C327.315 83.1 323.215 100.5 324.515 117.2C325.115 123 327.015 133.6 332.915 142.7C327.015 146 315.315 150.4 299.715 150.1H1.71507L1.11507 153.6C-1.68493 170.3 -1.68493 222.6 31.8151 262.7C57.3151 293.2 95.4151 308.7 145.215 308.7C253.215 308.7 333.015 258.4 370.515 166.8C385.215 167.1 416.915 166.9 433.215 135.4C433.615 134.7 434.615 132.8 437.415 126.8L439.015 123.5L429.915 117.3C419.915 110.8 397.215 108.3 379.615 111.7ZM240.015 0H194.715V41.7H240.015V0ZM240.015 50.1H194.715V91.8H240.015V50.1ZM186.415 50.1H141.115V91.8H186.415V50.1ZM132.915 50.1H87.6151V91.8H132.915V50.1ZM79.3151 100.2H34.0151V141.9H79.3151V100.2ZM132.915 100.2H87.6151V141.9H132.915V100.2ZM186.415 100.2H141.115V141.9H186.415V100.2ZM240.015 100.2H194.715V141.9H240.015V100.2ZM293.615 100.2H248.315V141.9H293.615V100.2Z" fill="#1D63ED"/>
</svg>
