<svg width="247" height="221" viewBox="0 0 247 221" fill="none" xmlns="http://www.w3.org/2000/svg">
<path d="M117.043 81.2504C119.072 78.2836 121.283 77.9087 123.078 77.9087C124.873 77.9087 127.853 78.2836 129.883 81.2504C145.799 102.993 172.076 146.317 191.464 178.288C204.112 199.12 213.822 215.133 215.819 217.168C223.297 224.815 233.551 220.049 239.512 211.373C245.376 202.837 247 196.839 247 190.445C247 186.086 161.993 28.8543 153.436 15.766C145.211 3.18104 142.519 0 128.44 0H117.887C103.84 0 101.81 3.18104 93.5744 15.766C85.0181 28.8543 0 186.086 0 190.434C0 196.839 1.63435 202.837 7.50945 211.373C13.47 220.049 23.7247 224.815 31.2021 217.157C33.189 215.122 42.8989 199.12 55.5464 178.278C74.9343 146.317 101.127 102.993 117.053 81.2397L117.043 81.2504Z" fill="#151718"/>
</svg>
