<svg width="192" height="171" viewBox="0 0 192 171" fill="none" xmlns="http://www.w3.org/2000/svg">
<path d="M57.1241 152.319C49.8419 146.591 42.0738 141.1 36.7655 133.367C25.596 119.73 16.9961 103.942 11.1168 87.3502C7.56315 76.5616 6.3461 64.9948 1.765 54.6231C-3.02729 47.0901 2.58622 38.8552 10.8377 36.4607C14.5115 35.7556 20.971 32.2904 13.1737 34.7672C6.18308 39.896 5.50654 30.1116 12.6748 29.492C17.5669 28.8417 19.3677 24.8369 17.6948 21.2317C12.4435 17.8073 30.4286 14.0437 21.3792 8.93394C11.9522 -1.23672 34.5655 -3.1946 28.9865 8.35616C27.651 17.2382 44.7877 6.72825 40.8116 16.9851C44.8529 21.9108 55.9451 18.1062 55.67 25.0165C61.5571 25.4212 63.5775 30.3746 69.104 30.7548C74.8315 33.3414 85.2148 35.3796 87.1638 41.834C81.4813 46.3327 68.3229 32.5413 67.6907 44.9944C69.4073 63.3905 68.97 82.3408 75.7006 99.8594C78.8841 110.467 86.6018 118.817 93.5717 127.079C100.24 135.17 109.274 140.866 118.481 145.662C126.557 149.471 135.264 151.997 144.066 153.583C147.636 150.852 153.939 140.7 159.509 144.981C159.773 149.791 148.455 155.036 158.976 154.504C165.154 152.64 169.44 159.282 174.527 153.291C179.214 158.843 194.009 149.744 190.674 161.093C186.164 164.002 179.587 162.244 175.07 166.247C167.623 162.527 161.693 169.575 153.448 168.684C144.292 170.324 134.977 170.986 125.693 171C110.464 169.797 94.9119 169.289 80.4238 163.987C72.2621 161.615 64.2973 156.968 57.1241 152.319ZM69.9862 157.892C77.9558 161.338 85.7486 164.971 94.4827 166.066C108.34 167.994 122.649 170.958 136.556 168.254C130.262 165.412 123.755 169.361 117.485 166.222C109.964 167.84 101.894 165.809 94.249 164.81C85.5551 160.937 76.1728 158.274 68.0313 153.248C57.8582 149.532 73.2927 158.013 76.04 158.7C82.3996 162.309 69.0466 156.849 67.1641 155.349C61.8377 152.361 61.1589 152.985 66.6367 156.02C67.74 156.665 68.8303 157.342 69.9862 157.892ZM54.8215 147.175C62.5442 150.035 54.7874 141.744 51.2485 142.226C49.6806 139.506 45.2582 137.787 48.3778 136.326C42.7663 138.274 42.4995 128.918 39.8618 130.255C33.9253 128.38 37.5513 121.74 30.4799 117.662C29.8344 113.365 23.4541 109.638 21.4191 103.156C20.5203 99.838 14.2107 90.3086 18.0867 99.1772C21.3869 107.715 27.1933 115.026 32.0254 122.329C35.7775 129.282 40.2079 136.549 47.0411 140.887C49.3446 143.096 51.5686 146.482 54.8215 147.175ZM32.5738 122.749C33.9862 125.273 32.8433 121.582 32.5738 122.749ZM64.0702 150.604C65.7803 149.838 61.611 149.639 64.0702 150.604ZM68.2625 152.133C67.8283 150.021 66.3487 153.314 68.2625 152.133ZM73.5099 154.322C76.0082 151.943 69.6599 152.822 73.5099 154.322ZM82.5038 159.335C84.0219 157.091 77.6451 158.488 82.5038 159.335ZM65.2331 147.295C69.1134 144.785 60.2213 147.261 65.2331 147.295ZM69.1697 149.258C69.0597 147.931 67.7668 149.853 69.1697 149.258ZM88.8445 161.538C92.0073 163.534 107.314 165.913 97.7292 162.357C96.1255 162.695 79.9566 157.783 88.8445 161.538ZM57.6102 137.212C57.3027 135.881 52.7008 135.743 57.6102 137.212ZM66.7695 142.55C69.1532 140.888 61.8219 141.268 66.7695 142.55ZM74.4737 147.274C77.8944 145.985 68.9246 145.978 74.4737 147.274ZM53.8831 133.153C57.5945 135.999 68.8508 133.518 59.5669 131.454C55.3414 129.202 45.818 127.66 52.3093 132.812L53.8831 133.153ZM79.6918 148.905C81.2378 146.271 73.2089 147.401 79.6918 148.905ZM71.8494 142.672C80.9246 145.24 64.2179 136.933 69.6103 141.728L70.8054 142.269L71.8494 142.672ZM87.5729 151.76C79.8099 150.575 96.1676 151.842 87.5729 151.76ZM50.5762 128.18C50.2405 126.58 48.4552 128.315 50.5762 128.18ZM102.112 159.915C102.341 157.024 99.3067 162.067 102.112 159.915ZM65.2434 137.163C64.7235 135.64 62.5579 137.1 65.2434 137.163ZM51.3913 127.176C56.3255 126.88 44.636 125.002 51.3913 127.176ZM34.9816 116.569C34.3674 114.204 29.6124 112.317 34.9816 116.569ZM78.0609 143.908C77.6358 144.134 77.1572 142.878 78.0609 143.908ZM104.875 160.363C104.789 158.788 103.415 160.959 104.875 160.363ZM75.6879 141.458C76.1705 139.429 71.4805 140.843 75.6879 141.458ZM55.7118 128.798C59.3826 128.405 49.8314 126.316 55.7118 128.798ZM89.5032 149.795C95.2236 147.529 83.9277 148.689 89.5032 149.795ZM71.9263 137.864C78.5191 138.714 64.0819 133.379 70.4798 137.386L71.9263 137.864ZM94.8393 151.952C100.994 148.272 98.9652 160.569 105.282 152.991C111.513 148.442 99.901 158.615 107.58 153.802C113.134 150.088 121.337 155.563 126.519 157.349C130.245 157.166 133.868 160.572 137.688 158.5C145.043 156.519 123.307 155.562 129.005 152.048C122.276 154.006 117.304 149.713 113.993 145.403C106.445 143.66 97.7174 139.801 93.9503 133.121C92.4144 130.613 96.1691 133.474 92.6244 129.374C88.0761 125.329 85.8049 120.737 82.7516 115.819C79.1041 113.873 78.6792 108.146 78.3104 115.627C78.3393 110.905 73.9065 107.727 72.8245 109.049C72.8051 104.501 77.5685 106.781 74.234 103.416C73.5163 98.7032 71.1531 93.7921 70.4428 88.4709C69.3392 85.9059 70.2874 80.4123 66.6762 86.2189C65.3605 92.3556 66.2395 78.6776 68.2855 83.1881C70.9709 78.5856 67.3214 79.1269 67.1719 79.766C68.9212 75.8826 68.2791 70.3744 66.7155 72.4757C67.6476 68.3599 68.188 57.3282 65.3204 59.2832C67.0587 54.9792 68.617 39.5891 61.0707 45.4568C58.0124 45.4998 52.7162 46.567 50.2127 47.8121C58.0622 52.1389 49.4232 49.3747 46.2279 48.687C45.8116 52.6906 42.6467 50.959 38.6928 50.9983C45.0081 51.7796 35.6175 57.4573 31.9946 55.2518C27.2895 57.5006 36.0553 63.1138 32.0891 64.8494C32.5765 67.466 24.8808 63.9045 25.4852 69.9471C20.9175 68.0255 24.8563 77.115 27.1415 74.0409C34.9104 76.1435 32.6106 80.9372 32.8084 85.4908C31.5426 88.1442 26.5589 79.2539 31.6985 79.6657C27.6438 73.0789 27.2133 77.2849 23.8439 80.3448C23.0601 80.567 32.4383 84.6985 26.553 86.7415C31.7309 87.5404 31.8782 92.0715 32.9323 94.9388C36.0445 98.1803 35.4075 91.3595 39.1313 95.2551C36.7749 91.7846 26.6495 85.4767 34.8018 87.4997C34.7582 84.0068 33.3274 81.1902 35.825 81.2586C38.2984 76.7793 33.2346 92.3026 38.8097 86.6098C40.353 85.9359 40.7353 82.1249 43.5093 86.9697C47.5384 90.9333 44.9646 93.8055 39.2811 90.1762C40.2979 93.6256 46.8842 94.8583 45.6465 100.253C46.9586 104.997 48.7943 103.25 50.3945 102.975C51.6497 107.585 52.3625 104.195 52.422 102.002C58.1694 103.232 56.8232 106.629 58.6215 109.003C62.5819 110.791 52.9528 96.886 59.7521 104.822C66.9057 111.281 62.4349 113.977 56.0153 112.942C60.0784 112.614 61.3887 118.435 66.471 118.231C71.1055 120.435 74.2433 128.903 66.2548 125.378C63.4841 122.88 53.6791 119.798 61.6875 124.55C69.0841 127.975 74.9587 130.024 82.0924 134.324C87.1977 137.969 89.4034 142.143 91.3385 142.969C87.0476 145.019 78.4076 141.333 84.8233 140.203C80.8216 139.474 76.3207 137.451 80.1537 142.436C83.413 145.158 91.7008 144.869 93.1865 145.178C91.9272 147.953 89.7658 148.173 93.2381 148.389C89.3644 150.453 94.4803 150.773 94.8393 151.952ZM86.9178 129.582C84.561 127.117 83.9516 122.501 86.4993 126.518C87.8058 127.043 90.6845 134.062 86.9178 129.582ZM112.715 145.969C114.185 145.874 112.758 147.086 112.715 145.969ZM83.1965 123.539C84.049 126.413 83.1061 119.812 83.1965 123.539ZM80.6325 120.089C84.3697 121.711 77.6681 114.361 80.6325 120.089ZM49.5618 98.6442C51.3034 98.1797 50.4187 101.623 49.5618 98.6442ZM74.2901 112.048C75.5471 115.418 75.3597 108.031 74.2901 112.048ZM56.8204 99.9003C59.3964 101.979 55.5888 97.6839 56.8204 99.9003ZM71.8131 104.706C69.0046 98.4142 73.8015 101.269 72.4345 105.738L71.8131 104.706ZM45.958 87.4637C44.7023 85.3993 42.6253 79.3423 43.294 77.4932C43.8989 80.5046 49.6979 90.4528 46.1385 81.6142C42.2052 74.2051 50.8404 84.0191 51.7286 85.8671C52.1422 87.7055 49.3018 85.3648 51.2264 89.6754C47.7166 84.7677 49.1544 92.3863 45.958 87.4637ZM37.9673 81.9575C39.7965 85.2489 38.2962 77.1577 37.9673 81.9575ZM41.5615 83.1948C44.4698 88.2453 43.2767 79.572 41.5615 83.1948ZM32.9154 76.5063C29.9404 73.5501 27.7876 70.825 33.0546 74.6716C35.0841 74.7508 28.5456 68.4746 33.5433 72.6786C38.7986 73.6368 36.1384 81.2953 32.9154 76.5063ZM37.4571 76.3876C39.1848 74.6756 38.3743 78.0729 37.4571 76.3876ZM40.2517 77.2835C43.4305 79.3417 37.6325 72.3741 40.2517 77.2835ZM34.6962 71.9744C26.0478 64.2779 45.5635 75.9989 36.1091 73.4013L34.6962 71.9744ZM59.4753 86.3716C55.7328 84.1276 58.4835 70.5741 59.7598 79.8438C63.3981 78.6668 59.5589 84.631 62.2726 84.5758C61.8449 88.3389 60.6309 89.6918 59.4753 86.3716ZM68.6405 91.7884C69.413 94.5811 69.0076 87.7038 68.6405 91.7884ZM67.0485 90.2155C67.4606 88.4705 67.0911 92.2704 67.0485 90.2155ZM36.3928 69.4453C30.8367 61.7797 52.5401 77.1995 39.9513 71.3896C38.6359 71.0456 37.0531 70.9228 36.3928 69.4453ZM54.0419 78.8028C55.2162 79.8728 53.5161 72.3482 54.0419 78.8028ZM67.4416 87.3987C68.4786 83.722 67.5189 89.8309 67.4416 87.3987ZM37.2439 66.5197C40.5461 65.8134 50.9286 72.3191 41.3941 68.3781C40.3347 67.2053 38.0763 67.7381 37.2439 66.5197ZM65.6006 80.6529C65.9536 74.0528 67.572 76.7105 65.6128 81.5976L65.6006 80.6529ZM39.702 64.2231C41.0474 62.2495 36.1303 55.3001 40.4108 61.7303C42.2603 63.1999 45.7659 64.1923 42.6708 64.8105C47.5385 69.1047 41.4835 65.9742 39.702 64.2231ZM64.1981 78.5913C65.1276 71.0728 65.0178 82.9961 64.1981 78.5913ZM36.892 57.2789C37.9197 56.8397 37.4347 58.6483 36.892 57.2789ZM43.2816 61.082C46.3151 64.9303 44.926 57.6315 43.2816 61.082ZM61.3051 71.1083C61.6452 73.0359 61.2877 69.7831 61.3051 71.1083ZM60.2611 68.7969C62.588 72.0645 57.7595 62.6253 60.2611 68.7969ZM58.7251 64.7505C60.1523 67.9544 58.3052 62.2003 58.7251 64.7505ZM61.2249 60.687C59.5082 57.6619 63.3926 47.3559 63.8261 53.7476C62.0142 58.7279 63.3034 61.5139 64.5674 54.834C66.9015 49.5768 64.0632 65.208 61.2249 60.687ZM63.7937 45.3604C64.5421 44.4414 63.9598 46.4675 63.7937 45.3604ZM59.5037 129.895C59.6315 130.46 58.4862 129.007 59.5037 129.895ZM68.3415 134.365C73.2575 135.627 73.2323 133.6 68.7893 132.998C66.3995 130.775 58.8588 128.417 65.6081 132.723C66.0551 133.855 67.4675 133.828 68.3415 134.365ZM50.8873 122.772C53.5955 124.792 61.0885 128.496 54.7455 123.541C56.884 121.056 50.6521 119.734 52.7194 118.072C47.4612 114.854 48.5714 115.14 52.2553 115.242C45.9359 112.417 53.1674 112.628 52.8269 111.181C50.3902 110.7 40.7239 106.884 46.4105 111.494C40.6297 108.547 45.0329 112.592 43.2857 112.165C37.3743 110.553 48.5501 116.667 42.3468 115.149C45.7381 117.837 51.4751 122.033 43.7806 117.993C42.7668 119.453 49.2869 121.665 50.8873 122.772ZM60.1305 128.082C71.3692 131.704 54.6204 123.658 60.1305 128.082ZM107.447 156.747C107.592 154.517 105.911 158.649 107.447 156.747ZM112.31 158.794C114.903 156.281 112.416 162.796 116.607 158.178C116.652 154.873 116.478 152.921 111.791 156.936C110.499 157.652 109.922 160.699 112.31 158.794ZM35.1116 110.311C34.3152 107.181 29.5296 107.197 35.1116 110.311ZM40.3046 113.714C38.3762 110.517 33.4241 110.82 40.3046 113.714ZM69.848 131.531C72.7324 134.093 83.0956 133.411 73.3513 131.847C71.9081 129.713 64.1871 130.226 69.848 131.531ZM110.46 156.613C114.9 152.888 106.159 158.275 110.46 156.613ZM119.693 162.958C119.721 161.762 117.78 163.481 119.693 162.958ZM119.707 161.284C114.944 161.592 124.623 156.075 119.707 161.284ZM22.339 99.6184C18.1491 93.6401 19.7344 90.953 15.6939 86.0716C14.929 82.3389 8.7622 73.8684 12.5043 82.8422C15.9318 88.0905 16.9503 96.2165 22.339 99.6184ZM118.165 159.628C127.21 153.782 114.453 157.082 118.165 159.628ZM125.069 162.333C129.599 158.444 122.205 161.519 125.069 162.333ZM33.5723 103.703C34.8685 101.775 30.2247 103.457 33.5723 103.703ZM123.628 160.486C128.013 157.659 122.618 158.093 122.833 160.746L123.628 160.486ZM64.114 122.974C63.9633 121.065 61.7983 123.136 64.114 122.974ZM67.792 125.091C66.6231 122.727 65.9948 125.462 67.792 125.091ZM130.664 162.397C136.283 158.344 127.259 161.621 129.485 163.165L130.664 162.397ZM128.513 161.357C133.09 157.522 123.681 163.057 128.513 161.357ZM139.505 168.677C142.578 166.619 135.772 168.011 139.505 168.677ZM36.3904 102.313C40.5094 103.236 52.8508 112.457 45.5699 102.951C41.8409 101.847 44.0773 92.7315 40.2737 94.3448C42.8267 98.6097 42.3742 100.425 37.0141 97.7362C30.2773 94.4476 33.2282 99.3659 34.5448 100.721C32.7506 101.129 36.918 102.279 36.3904 102.313ZM17.6246 87.4926C18.362 84.4427 10.8348 70.7138 14.0701 80.6134C15.238 82.6871 15.1192 86.6173 17.6246 87.4926ZM52.068 108.728C51.9672 108.477 49.947 106.954 52.068 108.728ZM57.291 109.943C57.2883 106.712 51.5178 108.631 57.291 109.943ZM102.552 138.476C99.1401 138.425 101.689 136.269 102.552 138.476ZM104.726 140.064C104.405 138.829 103.472 140.303 104.726 140.064ZM122.666 151.364C124.392 150.089 120.513 151.201 122.666 151.364ZM26.9983 89.8856C31.9335 87.9749 21.7105 88.5231 26.9983 89.8856ZM98.568 134.975C98.5131 131.78 95.4218 135.768 98.568 134.975ZM25.0483 85.3418C28.2185 84.2709 22.1157 84.6365 25.0483 85.3418ZM34.2499 89.799C34.1924 88.7489 33.2765 90.1965 34.2499 89.799ZM146.481 158.621C150.558 157.794 159.847 160.696 161.349 157.54C156.398 157.42 144.221 154.047 143.645 158.345L144.729 158.515L146.481 158.621ZM37.1744 90.536C37.2452 87.2985 34.6497 90.4151 37.1744 90.536ZM12.9812 73.7537C11.8825 67.5853 8.80241 72.8201 12.9812 73.7537ZM18.7504 75.2038C18.8213 73.2231 13.4698 73.4216 18.7504 75.2038ZM22.0473 76.8231C21.3013 77.7983 21.0943 76.0511 22.0473 76.8231ZM42.792 90.1308C43.7686 89.2336 40.4799 89.4663 42.792 90.1308ZM19.8514 73.1712C19.2938 68.5122 13.1694 72.4731 19.8514 73.1712ZM8.02364 65.4967C7.85542 63.3465 6.87101 66.3078 8.02364 65.4967ZM9.78298 64.168C9.49595 61.6184 8.27246 64.4924 9.78298 64.168ZM19.5038 69.9705C23.6143 68.3558 12.0165 66.6306 18.6639 69.6654L19.5038 69.9705ZM149.601 150.33C152.232 147.917 146.258 149.584 149.601 150.33ZM165.318 158.476C166.372 155.358 162.664 158.887 165.318 158.476ZM20.4972 64.8755C20.9302 61.8587 17.2384 65.4745 20.4972 64.8755ZM6.66688 55.6093C5.92392 51.3502 6.02555 43.8742 13.132 46.4007C3.64606 48.284 19.6974 58.1908 17.6704 50.369C21.659 50.5643 25.473 48.0118 23.3799 51.8854C31.2386 51.0175 36.687 44.2028 44.278 45.1578C50.1911 44.3753 56.6562 43.7818 63.0283 41.4016C68.2673 41.0242 73.3106 35.3835 70.439 32.0402C63.2944 31.4357 55.8156 32.3296 47.9189 33.8992C39.1683 35.7183 31.2198 39.1745 22.3907 40.6581C13.7848 41.8141 24.1217 43.8433 21.6567 44.2953C17.166 45.8535 27.0121 46.9042 21.0745 48.5467C17.4075 47.8495 13.5906 46.5896 15.157 42.7252C6.9133 43.7949 -0.330537 47.2163 6.18247 55.6054L6.66688 55.6093ZM26.5312 45.4925C28.464 38.372 36.8864 51.3517 29.6992 46.4382C28.8408 45.7958 27.4289 45.2717 26.5312 45.4925ZM26.9072 42.0403C29.6969 39.962 28.3902 43.2054 26.9072 42.0403ZM30.4494 42.0965C30.7013 38.82 38.5582 43.831 31.7449 43.276L30.4494 42.0965ZM35.2949 40.1483C37.0643 38.0808 35.8035 41.9874 35.2949 40.1483ZM36.5344 39.3182C39.4808 35.778 53.22 37.0588 43.1634 38.9731C40.4678 36.9437 38.4016 40.1696 36.5344 39.3182ZM54.4644 36.5544C63.3722 39.9908 54.0162 26.8841 54.4644 36.5544ZM59.552 36.5265C61.412 31.6526 66.7701 34.5707 60.4127 35.5471C60.5508 36.0658 60.2263 38.0633 59.552 36.5265ZM18.491 62.3738C24.0486 58.9705 12.5911 59.4212 18.491 62.3738ZM22.6003 63.5156C24.5488 61.4437 18.3664 62.6753 22.6003 63.5156ZM10.4926 54.9227C13.6682 52.4833 6.73475 53.9952 10.4926 54.9227ZM174.595 157.585C174.687 154.755 172.168 158.861 174.595 157.585ZM157.92 146.206C158.394 142.947 155.777 146.49 157.92 146.206ZM179.18 158.683C183.62 158.698 192.633 157.304 182.973 157.308C181.457 157.545 174.139 157.494 179.18 158.683ZM26.2148 61.5184C29.8081 61.2716 31.8367 57.5548 25.5199 57.7684C15.7299 56.7549 34.1574 61.1206 24.264 59.8723C22.9346 60.7526 26.1376 61.762 26.2148 61.5184ZM29.3794 63.1202C29.0042 60.8131 28.2683 64.3458 29.3794 63.1202ZM33.1333 53.1103C34.6926 51.1762 30.9756 52.5932 33.1333 53.1103ZM21.1832 33.135C27.5961 30.9534 36.3656 28.5019 39.3935 34.2092C36.3119 30.5003 38.1499 26.849 41.0605 32.2718C45.1761 37.7585 47.2364 29.7763 44.5596 27.936C47.61 31.7262 51.0796 33.5173 46.602 28.1755C51.4677 22.3226 36.8593 28.942 33.5389 28.8753C31.9413 29.5924 17.0453 32.6742 21.1832 33.135ZM24.9415 25.9372C28.5988 23.1768 37.5905 27.5792 31.8206 23.1938C31.2565 22.6955 19.1845 26.5193 24.9415 25.9372ZM38.275 26.4877C42.5554 26.5969 36.4287 20.7374 41.5293 23.3925C40.6916 20.6559 35.5907 20.1435 33.097 19.0502C31.6865 21.5522 35.968 26.5213 38.275 26.4877ZM27.2795 14.3842C28.7603 12.3768 24.6843 15.4019 27.2795 14.3842ZM32.7291 15.6885C39.6269 14.7736 30.9708 12.718 31.3391 15.615L32.7291 15.6885ZM22.5536 7.72646C17.6967 1.38625 31.6876 8.79223 26.753 2.15381C22.5997 -1.15343 18.6087 5.87559 22.5536 7.72646ZM84.8837 41.2993C87.1113 37.3503 75.6867 35.9763 83.3828 39.8997C84.0914 40.1365 83.931 41.5724 84.8837 41.2993Z" fill="black"/>
</svg>
