<svg width="87" height="87" viewBox="0 0 87 87" fill="none" xmlns="http://www.w3.org/2000/svg">
<path d="M86.5 43.2C86.5 67.1 67.1 86.4 43.3 86.4C19.4 86.5 0 67.1 0 43.2C0 19.4 19.4 0 43.2 0C67.1 0 86.5 19.4 86.5 43.2Z" fill="#FEB571"/>
<path d="M8.30001 39.6C8.80001 39.6 10.8 39.5 17.6 39.5C17.7 39.5 17.9 39.6 17.9 39.7C19.8 44.8 24.8 49 31.5 51.3C31.8 51.4 31.8 51.8 31.5 51.9C30.9 52.2 30 52.5 29.7 52.7C29.1 53 28.2 53.7 27.7 54.5C27.3 55.1 27 55.9 26.8 56.4C26.7 56.7 26.7 57.2 26.7 57.8C26.7 59.1 26.9 60.9 27.4 62.1C27.9 63.5 28.2 63.9 28.8 65.3C29.1 65.9 29.3 66.5 29.4 66.7C29.4 66.8 29.4 66.9 29.4 67C29.2 67.2 28.9 67.7 28.3 68C27.3 68.6 25.1 68.8 24 68.8C22.9 68.8 20.8 68.6 19.7 68C19.1 67.7 18.8 67.2 18.6 67C18.5 66.9 18.5 66.8 18.6 66.7C18.7 66.4 19 65.9 19.2 65.3C19.8 63.9 20.1 63.5 20.6 62.1C21.1 60.9 21.3 59.1 21.3 57.8C21.3 57.2 21.3 56.7 21.2 56.4C21.1 55.9 20.7 55.1 20.4 54.5C19.9 53.7 19 53 18.4 52.7C18 52.5 16.5 51.9 16 51.6C15.3 51.2 14.4 50.6 13.7 50.1C13 49.6 11.7 48.2 11.1 47.6C10.1 46.3 9.10001 44.9 8.70001 43.3C8.10001 41.3 8.20001 40.5 8.10001 39.8C8.10001 39.7 8.20001 39.6 8.30001 39.6Z" fill="white"/>
<path d="M68.4 29.9C67.3 29.9 62.5 29.8 42.8 29.8C23.1 29.8 18.3 29.9 17.2 29.9C17 29.9 16.9 30.1 16.9 30.2C17 31.2 17 32.6 17.9 35.8C18.6 38.4 20.2 40.8 21.8 42.8C22.7 43.9 24.9 46 26 46.9C27 47.7 28.5 48.7 29.7 49.3C30.6 49.8 32.9 50.7 33.6 51C34.6 51.5 36 52.6 36.9 53.9C37.5 54.9 38.1 56.2 38.3 57C38.4 57.5 38.5 58.3 38.5 59.2C38.5 61.4 38.1 64.2 37.4 66.2C36.6 68.4 36.1 69.2 35.1 71.4C34.7 72.4 34.3 73.3 34.1 73.7C34 73.9 34 74.1 34.2 74.2C34.5 74.6 35 75.3 36 75.9C37.7 76.8 41.2 77.1 42.9 77.1C44.6 77.1 48.2 76.8 49.8 75.9C50.8 75.4 51.3 74.6 51.6 74.2C51.7 74 51.7 73.8 51.7 73.7C51.5 73.3 51.1 72.3 50.7 71.4C49.7 69.1 49.3 68.4 48.4 66.2C47.7 64.2 47.3 61.4 47.3 59.2C47.3 58.3 47.3 57.5 47.5 57C47.7 56.1 48.3 54.9 48.9 53.9C49.7 52.6 51.2 51.5 52.2 51C52.9 50.6 55.2 49.8 56.1 49.3C57.2 48.7 58.7 47.7 59.8 46.9C60.9 46 63.1 43.9 64 42.8C65.6 40.8 67.2 38.4 67.9 35.8C68.8 32.6 68.8 31.2 68.9 30.2C68.7 30.1 68.6 29.9 68.4 29.9Z" fill="white"/>
<path d="M77.6 39.6C77.1 39.6 75.1 39.5 68.3 39.5C68.2 39.5 68 39.6 68 39.7C66 44.9 61 49.1 54.4 51.4C54.1 51.5 54.1 51.9 54.4 52C55 52.3 55.9 52.6 56.2 52.8C56.8 53.1 57.7 53.8 58.2 54.6C58.6 55.2 58.9 56 59.1 56.5C59.2 56.8 59.2 57.3 59.2 57.9C59.2 59.2 59 61 58.5 62.2C58 63.6 57.7 64 57.1 65.4C56.8 66 56.6 66.6 56.5 66.8C56.5 66.9 56.5 67 56.5 67.1C56.7 67.3 57 67.8 57.6 68.1C58.6 68.7 60.8 68.9 61.9 68.9C63 68.9 65.1 68.7 66.2 68.1C66.8 67.8 67.1 67.3 67.3 67.1C67.4 67 67.4 66.9 67.3 66.8C67.2 66.5 66.9 66 66.7 65.4C66.1 64 65.8 63.6 65.3 62.2C64.8 61 64.6 59.2 64.6 57.9C64.6 57.3 64.6 56.8 64.7 56.5C64.8 56 65.2 55.2 65.5 54.6C66 53.8 66.9 53.1 67.5 52.8C67.9 52.6 69.4 52 69.9 51.7C70.6 51.3 71.5 50.7 72.2 50.2C72.9 49.7 74.2 48.3 74.8 47.7C75.8 46.4 76.8 45 77.2 43.4C77.8 41.4 77.7 40.6 77.8 39.9C77.7 39.7 77.7 39.6 77.6 39.6Z" fill="white"/>
<path d="M22.5 25.8C21.7 25.8 21 25.7 20.3 25.4C19.6 25.2 19.1 24.8 18.6 24.3C18.1 23.8 17.7 23.3 17.5 22.6C17.2 22 17 21.3 17 20.5C17 19.7 17.1 18.9 17.4 18.3C17.7 17.6 18.1 17.1 18.5 16.6C19 16.1 19.6 15.8 20.2 15.5C20.9 15.3 21.6 15.1 22.4 15.1C23.2 15.1 24 15.2 24.7 15.4C25.4 15.6 25.9 15.9 26.5 16.4L25 18.1C24.7 17.8 24.4 17.6 24 17.4C23.6 17.2 23.1 17.2 22.5 17.2C22 17.2 21.6 17.3 21.2 17.4C20.8 17.6 20.5 17.8 20.2 18.1C19.9 18.4 19.7 18.8 19.5 19.2C19.3 19.6 19.3 20.1 19.3 20.5C19.3 21 19.4 21.4 19.5 21.8C19.7 22.2 19.9 22.6 20.2 22.9C20.5 23.2 20.8 23.4 21.2 23.6C21.6 23.8 22 23.8 22.5 23.8C23 23.8 23.4 23.7 23.8 23.6C24.1 23.5 24.4 23.4 24.6 23.3V21.6H22.8V19.6H26.7V24.9C26 25.2 25.4 25.5 24.7 25.6C24 25.7 23.3 25.8 22.5 25.8Z" fill="white"/>
<path d="M30.9 19.7H32.3C32.5 19.7 32.7 19.7 32.9 19.7C33.1 19.7 33.3 19.6 33.5 19.6C33.7 19.5 33.9 19.4 34 19.2C34.1 19 34.2 18.8 34.2 18.5C34.2 18.2 34.1 18 34 17.8C33.9 17.6 33.7 17.5 33.6 17.4C33.4 17.3 33.2 17.3 33 17.2C32.8 17.2 32.6 17.2 32.4 17.2H30.9V19.7ZM34.2 25.6L32.1 21.5H30.9V25.6H28.8V15.4H32.7C33.2 15.4 33.7 15.4 34.2 15.6C34.7 15.7 35.1 15.9 35.4 16.1C35.7 16.3 36 16.6 36.2 17C36.4 17.4 36.5 17.9 36.5 18.5C36.5 19.2 36.3 19.8 35.9 20.3C35.5 20.8 35 21.1 34.4 21.2H34.2L36.8 25.5H34.2V25.6Z" fill="white"/>
<path d="M41.5 21.6H44.2L42.9 18.2L41.5 21.6ZM45.8 25.6L44.9 23.4H40.8L40 25.6H37.6L42 15.4H43.8L48.2 25.5H45.8V25.6Z" fill="white"/>
<path d="M51.6 15.4H49.5V25.5H51.6V15.4Z" fill="white"/>
<path d="M54.2 25.6V15.4H56.4V23.6H60.5V25.6H54.2Z" fill="white"/>
<path d="M64.9 25.8C64.2 25.8 63.6 25.7 63.1 25.5C62.6 25.3 62 25 61.6 24.6L63.1 22.9C63.3 23.2 63.6 23.4 64 23.6C64.4 23.8 64.7 23.9 65.1 23.9C65.3 23.9 65.5 23.9 65.7 23.8C65.9 23.8 66.1 23.7 66.2 23.6C66.4 23.5 66.5 23.4 66.6 23.2C66.7 23.1 66.7 22.9 66.7 22.7C66.7 22.4 66.6 22.1 66.3 21.9C66.1 21.7 65.8 21.6 65.4 21.4C65 21.3 64.7 21.1 64.2 21C63.8 20.9 63.4 20.7 63.1 20.5C62.8 20.3 62.5 20 62.2 19.7C62 19.4 61.9 18.9 61.9 18.4C61.9 17.9 62 17.4 62.2 17C62.4 16.6 62.7 16.2 63.1 16C63.5 15.7 63.9 15.5 64.3 15.4C64.8 15.3 65.3 15.2 65.7 15.2C66.3 15.2 66.8 15.3 67.4 15.4C67.9 15.6 68.4 15.8 68.8 16.2L67.3 17.8C67.1 17.6 66.9 17.4 66.6 17.3C66.3 17.2 66 17.1 65.7 17.1C65.5 17.1 65.4 17.1 65.2 17.2C65 17.2 64.9 17.3 64.7 17.4C64.5 17.5 64.4 17.6 64.3 17.7C64.2 17.8 64.1 18 64.1 18.2C64.1 18.5 64.2 18.8 64.5 19C64.7 19.2 65 19.3 65.4 19.4C65.8 19.5 66.1 19.6 66.5 19.7C66.9 19.8 67.3 20 67.6 20.2C67.9 20.4 68.2 20.7 68.5 21C68.7 21.3 68.8 21.8 68.8 22.4C68.8 23 68.7 23.5 68.5 23.9C68.3 24.3 68 24.7 67.7 24.9C67.3 25.2 66.9 25.4 66.5 25.5C65.9 25.8 65.4 25.8 64.9 25.8Z" fill="white"/>
</svg>
