<svg width="371" height="502" viewBox="0 0 371 502" fill="none" xmlns="http://www.w3.org/2000/svg">
<path d="M119.934 387.761C119.934 387.761 100.776 398.903 133.569 402.674C173.298 407.207 193.603 406.557 237.384 398.27C237.384 398.27 248.894 405.488 264.97 411.739C166.824 453.807 42.8459 409.302 119.934 387.761ZM107.941 332.866C107.941 332.866 86.4528 348.773 119.271 352.168C161.71 356.546 195.226 356.905 253.22 345.737C253.22 345.737 261.241 353.869 273.854 358.317C155.19 393.019 23.0191 361.054 107.941 332.866Z" fill="#0B6FB6"/>
<path d="M209.045 239.745C233.229 267.59 202.692 292.646 202.692 292.646C202.692 292.646 264.097 260.944 235.896 221.246C209.557 184.225 189.359 165.83 298.704 102.409C298.704 102.409 127.069 145.279 209.045 239.745Z" fill="#E11F21"/>
<path d="M338.851 428.365C338.851 428.365 353.029 440.048 323.237 449.086C266.586 466.25 87.4487 471.432 37.685 449.77C19.7965 441.987 53.343 431.187 63.8954 428.92C74.9002 426.533 81.1894 426.978 81.1894 426.978C61.2957 412.962 -47.3975 454.499 25.9788 466.394C226.086 498.849 390.757 451.78 338.851 428.365ZM129.148 275.988C129.148 275.988 38.027 297.632 96.8795 305.492C121.729 308.819 171.265 308.067 217.407 304.2C255.117 301.019 292.982 294.255 292.982 294.255C292.982 294.255 279.685 299.95 270.065 306.519C177.534 330.857 -1.21882 319.535 50.2414 294.64C93.7622 273.601 129.148 275.988 129.148 275.988ZM292.606 367.364C386.669 318.481 343.178 271.505 312.822 277.834C305.382 279.383 302.064 280.724 302.064 280.724C302.064 280.724 304.826 276.397 310.102 274.524C370.156 253.409 416.341 336.8 290.716 369.827C290.716 369.828 292.171 368.527 292.606 367.364Z" fill="#0B6FB6"/>
<path d="M235.896 0C235.896 0 287.989 52.1153 186.488 132.254C105.094 196.539 167.928 233.193 186.454 275.071C138.943 232.201 104.076 194.462 127.468 159.338C161.8 107.78 256.914 82.7827 235.896 0Z" fill="#E11F21"/>
<path d="M138.391 499.825C228.678 505.605 367.326 496.618 370.61 453.892C370.61 453.892 364.298 470.089 295.992 482.952C218.929 497.456 123.883 495.762 67.5102 486.467C67.5114 486.467 79.0503 496.019 138.391 499.825Z" fill="#0B6FB6"/>
</svg>
