<svg width="901" height="901" viewBox="0 0 901 901" fill="none" xmlns="http://www.w3.org/2000/svg">
<g clip-path="url(#clip0_13_496)">
<path d="M0 0H901V901H0V0Z" fill="#F0DB4F"/>
<path d="M827.258 686.113C820.664 645.003 793.856 610.487 714.462 578.284C686.884 565.609 656.137 556.531 646.973 535.633C643.718 523.471 643.29 516.619 645.345 509.253C651.255 485.358 679.775 477.907 702.386 484.759C716.946 489.64 730.735 500.861 739.043 518.76C777.926 493.581 777.84 493.751 804.99 476.452C795.055 461.035 789.745 453.926 783.236 447.332C759.855 421.21 727.994 407.763 677.035 408.791C668.213 409.904 659.307 411.103 650.484 412.217C625.048 418.64 600.809 432.001 586.592 449.901C543.94 498.292 556.102 582.995 608.004 617.854C659.135 656.223 734.246 664.959 743.839 700.845C753.174 744.782 711.551 758.998 670.183 753.946C639.693 747.608 622.736 732.106 604.407 703.929C570.663 723.456 570.663 723.456 535.976 743.411C544.198 761.397 552.847 769.534 566.637 785.121C631.9 851.326 795.227 848.071 824.519 747.865C825.717 744.438 833.597 721.485 827.258 686.113ZM489.812 414.1H405.536C405.536 486.9 405.194 559.185 405.194 631.985C405.194 678.319 407.592 720.8 400.055 733.818C387.722 759.426 355.776 756.258 341.216 751.289C326.399 744.009 318.862 733.646 310.126 719.001C307.728 714.805 305.93 711.55 305.329 711.293C282.463 725.254 259.68 739.299 236.812 753.26C248.204 776.641 264.99 796.94 286.487 810.128C318.605 829.399 361.77 835.308 406.907 824.945C436.284 816.38 461.634 798.653 474.909 771.674C494.094 736.302 489.983 693.479 489.812 646.116C490.24 568.863 489.812 491.61 489.812 414.1Z" fill="#323330"/>
</g>
<defs>
<clipPath id="clip0_13_496">
<rect width="901" height="901" fill="white"/>
</clipPath>
</defs>
</svg>
