<svg width="644" height="625" viewBox="0 0 644 625" fill="none" xmlns="http://www.w3.org/2000/svg">
<path d="M319.768 0.0550911C314.074 0.341944 308.496 1.7538 303.361 4.20783L79.4744 111.205C73.6797 113.973 68.5882 118.001 64.5779 122.989C60.5675 127.977 57.7416 133.797 56.3098 140.017L1.07562 380.36C-0.199817 385.898 -0.342557 391.633 0.655852 397.226C1.65426 402.82 3.77353 408.157 6.88824 412.924C7.64348 414.089 8.45574 415.217 9.3221 416.303L164.287 609.019C168.298 614.006 173.39 618.032 179.185 620.799C184.98 623.565 191.329 625.001 197.76 625L446.271 624.943C452.699 624.947 459.047 623.516 464.841 620.754C470.636 617.993 475.729 613.972 479.743 608.991L634.651 416.246C638.665 411.257 641.493 405.434 642.925 399.212C644.358 392.989 644.358 386.526 642.926 380.303L587.606 139.96C586.175 133.74 583.349 127.919 579.338 122.931C575.328 117.944 570.236 113.916 564.442 111.148L340.527 4.20783C334.067 1.12085 326.929 -0.307077 319.768 0.0550911Z" fill="#326CE5"/>
<path d="M321.986 81.8472C314.585 81.8479 308.585 88.5153 308.585 96.7398C308.585 96.866 308.611 96.9866 308.614 97.1121C308.603 98.2296 308.549 99.5759 308.585 100.549C308.762 105.292 309.796 108.923 310.418 113.293C311.545 122.648 312.49 130.402 311.907 137.609C311.34 140.326 309.339 142.812 307.555 144.539L307.24 150.21C299.198 150.876 291.102 152.097 283.016 153.933C248.22 161.835 218.262 179.762 195.454 203.966C193.974 202.957 191.385 201.099 190.615 200.53C188.222 200.853 185.804 201.591 182.655 199.756C176.658 195.719 171.196 190.146 164.587 183.432C161.559 180.22 159.366 177.162 155.768 174.067C154.951 173.364 153.704 172.413 152.79 171.69C149.977 169.447 146.66 168.277 143.455 168.167C139.336 168.026 135.37 169.637 132.775 172.893C128.162 178.68 129.639 187.527 136.068 192.654C136.133 192.706 136.203 192.746 136.268 192.797C137.152 193.513 138.234 194.431 139.046 195.031C142.864 197.85 146.352 199.294 150.156 201.532C158.17 206.483 164.815 210.588 170.085 215.537C172.143 217.731 172.502 221.597 172.776 223.27L177.071 227.107C154.079 261.716 143.438 304.466 149.726 348.024L144.114 349.656C142.635 351.567 140.545 354.573 138.359 355.47C131.464 357.642 123.704 358.44 114.335 359.422C109.937 359.788 106.142 359.57 101.479 360.453C100.452 360.648 99.0224 361.02 97.8994 361.284C97.8604 361.292 97.8239 361.304 97.7849 361.312C97.7236 361.327 97.6433 361.356 97.5845 361.37C89.686 363.279 84.6121 370.54 86.2456 377.694C87.8794 384.85 95.5944 389.202 103.54 387.489C103.598 387.476 103.681 387.474 103.741 387.46C103.83 387.44 103.909 387.396 103.998 387.375C105.106 387.131 106.494 386.861 107.463 386.601C112.047 385.374 115.368 383.57 119.489 381.99C128.356 378.809 135.7 376.152 142.854 375.117C145.842 374.883 148.991 376.961 150.557 377.838L156.398 376.835C169.84 418.519 198.01 452.21 233.68 473.351L231.246 479.193C232.123 481.462 233.091 484.531 232.437 486.772C229.836 493.518 225.381 500.639 220.308 508.577C217.852 512.245 215.338 515.091 213.121 519.289C212.591 520.293 211.915 521.836 211.403 522.897C207.959 530.268 210.485 538.757 217.101 541.943C223.759 545.148 232.022 541.767 235.598 534.382C235.604 534.371 235.622 534.364 235.627 534.353C235.63 534.345 235.623 534.332 235.627 534.324C236.136 533.277 236.858 531.901 237.288 530.916C239.186 526.566 239.818 522.838 241.153 518.63C244.699 509.722 246.647 500.375 251.528 494.551C252.864 492.956 255.043 492.342 257.303 491.737L260.338 486.239C291.435 498.177 326.242 501.381 361.014 493.484C368.946 491.683 376.603 489.352 384.006 486.554C384.859 488.067 386.445 490.976 386.87 491.709C389.165 492.456 391.671 492.842 393.713 495.861C397.365 502.102 399.862 509.484 402.904 518.401C404.24 522.608 404.9 526.337 406.799 530.687C407.231 531.679 407.949 533.075 408.459 534.124C412.028 541.533 420.318 544.926 426.985 541.713C433.6 538.526 436.13 530.038 432.683 522.668C432.171 521.607 431.467 520.064 430.937 519.06C428.72 514.862 426.206 512.044 423.75 508.377C418.676 500.439 414.468 493.844 411.867 487.098C410.779 483.618 412.05 481.454 412.898 479.193C412.39 478.611 411.304 475.326 410.664 473.78C447.734 451.888 475.077 416.94 487.918 376.577C489.652 376.85 492.665 377.383 493.644 377.58C495.66 376.25 497.513 374.516 501.146 374.802C508.301 375.837 515.644 378.495 524.511 381.675C528.633 383.254 531.953 385.087 536.538 386.315C537.506 386.574 538.894 386.816 540.002 387.06C540.091 387.081 540.17 387.125 540.26 387.145C540.32 387.159 540.403 387.161 540.46 387.174C548.407 388.885 556.123 384.536 557.755 377.379C559.387 370.224 554.315 362.961 546.416 361.055C545.267 360.793 543.638 360.35 542.522 360.138C537.859 359.255 534.064 359.473 529.665 359.107C520.297 358.125 512.537 357.327 505.642 355.155C502.83 354.064 500.83 350.718 499.858 349.341L494.446 347.766C497.252 327.462 496.495 306.331 491.64 285.188C486.739 263.849 478.079 244.331 466.528 227.136C467.916 225.874 470.538 223.552 471.281 222.869C471.499 220.464 471.312 217.942 473.801 215.279C479.071 210.33 485.716 206.225 493.73 201.274C497.534 199.036 501.051 197.593 504.869 194.773C505.732 194.136 506.911 193.126 507.818 192.396C514.246 187.267 515.726 178.421 511.111 172.635C506.496 166.848 497.553 166.303 491.125 171.432C490.21 172.157 488.968 173.102 488.147 173.809C484.549 176.905 482.327 179.962 479.299 183.174C472.69 189.888 467.228 195.489 461.231 199.527C458.632 201.04 454.826 200.517 453.099 200.415L448.002 204.052C418.939 173.57 379.369 154.082 336.761 150.296C336.642 148.51 336.486 145.282 336.446 144.31C334.702 142.641 332.595 141.215 332.065 137.608C331.482 130.401 332.455 122.647 333.583 113.293C334.205 108.923 335.239 105.292 335.415 100.549C335.455 99.4705 335.391 97.9057 335.387 96.7397C335.386 88.5153 329.387 81.8464 321.986 81.8472ZM305.207 185.809L301.227 256.119L300.94 256.262C300.673 262.552 295.498 267.575 289.143 267.575C286.54 267.575 284.138 266.739 282.185 265.313L282.071 265.37L224.431 224.501C242.146 207.078 264.805 194.202 290.919 188.272C295.689 187.189 300.457 186.385 305.207 185.809ZM338.794 185.809C369.282 189.559 397.477 203.367 419.083 224.53L361.815 265.141L361.615 265.055C356.532 268.768 349.37 267.847 345.408 262.878C343.785 260.843 342.934 258.449 342.831 256.033L342.774 256.005L338.794 185.809ZM203.529 250.764L256.157 297.847L256.1 298.134C260.85 302.264 261.551 309.432 257.589 314.401C255.966 316.436 253.794 317.802 251.461 318.439L251.404 318.668L183.944 338.143C180.51 306.74 187.91 276.214 203.529 250.764ZM440.071 250.792C447.891 263.469 453.812 277.628 457.337 292.978C460.82 308.144 461.694 323.283 460.258 337.914L392.453 318.382L392.396 318.095C386.324 316.436 382.593 310.258 384.006 304.062C384.586 301.524 385.933 299.376 387.757 297.79L387.729 297.647L440.071 250.792ZM311.191 301.484H332.752L346.153 318.238L341.342 339.145L321.986 348.453L302.572 339.117L297.762 318.21L311.191 301.484ZM380.313 358.821C381.229 358.774 382.141 358.857 383.033 359.021L383.147 358.878L452.927 370.678C442.715 399.375 423.173 424.236 397.063 440.873L369.976 375.432L370.062 375.317C367.574 369.534 370.064 362.753 375.788 359.995C377.254 359.289 378.786 358.898 380.313 358.821ZM263.115 359.107C268.44 359.182 273.217 362.879 274.454 368.301C275.033 370.839 274.752 373.354 273.796 375.575L273.996 375.833L247.195 440.616C222.138 424.533 202.179 400.452 191.503 370.907L260.681 359.165L260.796 359.308C261.57 359.165 262.355 359.097 263.115 359.107ZM321.556 387.489C323.411 387.421 325.294 387.802 327.083 388.663C329.428 389.793 331.24 391.571 332.38 393.704H332.638L366.74 455.336C362.314 456.82 357.764 458.089 353.111 459.145C327.029 465.068 301.031 463.274 277.489 455.25L311.506 393.733H311.563C313.604 389.916 317.476 387.639 321.556 387.489Z" fill="white"/>
</svg>
