<svg width="301" height="197" viewBox="0 0 301 197" fill="none" xmlns="http://www.w3.org/2000/svg">
<path d="M299.2 1.95997C298.382 1.28093 297.343 0.925184 296.28 0.959972C293.38 0.959972 289.63 2.95997 287.62 3.95997C287.27 4.14997 287 4.28997 286.81 4.36997C283.436 6.03069 279.756 6.9771 276 7.14997C272.14 7.26997 268.81 7.49997 264.5 7.94997C238.82 10.62 227.43 30.22 216.42 49.22C210.42 59.54 204.24 70.22 195.75 78.5C193.994 80.2027 192.127 81.7862 190.16 83.24C181.38 89.78 170.35 94.41 161.73 97.71C153.47 100.86 144.45 103.71 135.73 106.45C127.73 108.96 120.22 111.34 113.29 113.91C110.16 115.07 107.5 115.91 105.16 116.74C98.85 118.84 94.29 120.36 87.65 124.91C85.06 126.68 82.46 128.6 80.65 130.05C75.3841 134.264 70.7236 139.184 66.8 144.67C63.4352 149.731 59.5471 154.423 55.2 158.67C53.8 160.04 51.31 160.67 47.58 160.67C43.21 160.67 37.91 159.77 32.3 158.82C26.53 157.82 20.55 156.82 15.43 156.82C11.26 156.82 8.08 157.49 5.69 158.88C5.69 158.88 1.69 161.22 0 164.24L1.66 164.99C4.23048 166.375 6.61599 168.078 8.76 170.06C10.9819 172.118 13.4588 173.883 16.13 175.31C16.9834 175.65 17.7565 176.164 18.4 176.82C17.7 177.82 16.67 179.17 15.6 180.58C9.68 188.32 6.23 193.21 8.21 195.87C9.13256 196.36 10.1657 196.605 11.21 196.58C24.11 196.58 31.03 193.22 39.8 188.98C42.34 187.75 44.96 186.48 47.96 185.18C53.08 182.96 58.6 179.42 64.44 175.66C72.18 170.66 80.18 165.55 87.93 163.06C94.3153 161.114 100.966 160.18 107.64 160.29C115.87 160.29 124.47 161.39 132.79 162.46C139 163.25 145.42 164.07 151.72 164.46C154.17 164.61 156.44 164.68 158.64 164.68C161.59 164.692 164.538 164.535 167.47 164.21L168.17 163.97C172.59 161.25 174.66 155.42 176.67 149.79C177.96 146.16 179.04 142.9 180.72 140.79C180.826 140.688 180.939 140.594 181.06 140.51C181.141 140.465 181.235 140.449 181.326 140.465C181.417 140.482 181.5 140.529 181.56 140.6C181.56 140.6 181.56 140.65 181.56 140.75C180.5 162.81 171.66 176.8 162.68 189.24L156.68 195.67C156.68 195.67 165.07 195.67 169.84 193.83C187.26 188.62 200.42 177.14 209.99 158.83C212.349 154.131 214.459 149.311 216.31 144.39C216.47 143.98 217.99 143.22 217.84 145.34C217.84 145.97 217.75 146.66 217.7 147.34C217.7 147.77 217.64 148.21 217.62 148.65C217.37 151.65 216.62 158.22 216.62 158.22L222 155.34C235 147.12 245 130.6 252.56 104.87C255.72 94.15 258.03 83.5 260.07 74.11C262.51 62.88 264.62 53.18 267.07 49.43C270.85 43.54 276.62 39.56 282.2 35.7L284.48 34.12C291.48 29.19 298.48 23.5 300.02 12.9V12.66C301.22 4.90997 300.27 2.88997 299.2 1.95997Z" fill="#003545"/>
</svg>
