<svg width="472" height="516" viewBox="0 0 472 516" fill="none" xmlns="http://www.w3.org/2000/svg">
<path d="M297.886 240.722L194.641 274.442L104.818 314.093L79.6891 320.728C73.2892 326.817 66.5788 332.984 59.321 339.228C51.3611 346.096 43.9475 352.342 38.2497 356.868C31.929 361.864 22.5642 371.23 17.8042 377.161C10.7022 386.059 5.08362 395.503 2.66424 402.763C-1.62826 415.877 0.479827 429.146 8.75173 441.401C19.3649 457.011 40.514 472.934 65.1735 483.783C77.7386 489.326 98.8869 496.429 114.806 500.409C141.261 507.122 192.455 514.381 220.627 515.475C226.323 515.709 233.971 515.709 234.283 515.475C234.908 515.083 239.278 506.732 244.351 496.352C261.676 460.992 274.162 427.819 280.951 399.486C285.009 382.315 288.208 359.444 290.314 332.361C290.861 324.789 291.095 299.421 290.627 290.835C289.924 276.785 288.675 265.39 286.726 254.228C286.413 252.589 286.334 251.105 286.491 251.028C286.802 250.794 287.739 250.481 300.459 246.812L297.885 240.725V240.723H297.886V240.722ZM274.319 254.539C275.255 254.539 277.752 278.501 278.376 293.644C278.532 296.844 278.453 298.952 278.298 298.952C277.674 298.952 265.109 291.537 256.136 285.918C248.332 281 233.505 271.165 231.164 269.291C230.382 268.745 230.46 268.668 236.86 266.481C247.706 262.812 273.46 254.539 274.319 254.539ZM221.72 271.867C222.423 271.867 224.217 272.881 228.509 275.535C244.585 285.604 266.437 297.781 275.801 301.84C278.688 303.089 278.999 302.62 272.367 307.148C258.164 316.826 240.448 326.349 218.753 335.949C214.93 337.667 211.731 338.993 211.653 338.993C211.498 338.993 211.964 337.043 212.588 334.701C217.817 315.264 220.783 295.595 220.94 279.828C221.017 272.022 221.017 272.022 221.72 271.789C221.563 271.867 221.641 271.867 221.72 271.867ZM210.873 276.003C211.34 276.471 211.029 293.956 210.404 298.717C208.999 310.113 206.814 320.728 203.226 332.672C202.367 335.558 201.585 337.979 201.431 338.134C201.117 338.524 190.426 328.065 186.914 324.006C180.827 316.981 176.068 309.956 172.556 303.088C170.761 299.575 167.952 292.707 168.185 292.473C169.434 291.614 210.561 275.692 210.873 276.003ZM159.835 296.063C159.912 296.063 159.99 296.063 160.069 296.141C160.225 296.297 160.772 297.546 161.24 298.951C163.737 305.742 169.355 315.733 174.194 322.133C179.501 329.159 186.447 336.651 192.221 341.568C194.094 343.13 195.81 344.612 196.044 344.847C196.513 345.315 196.669 345.237 183.948 350.077C169.2 355.696 153.123 361.316 134.706 367.248C130.306 368.666 125.91 370.098 121.519 371.541C120.815 371.776 121.05 371.385 123.079 368.185C132.209 353.901 146.1 325.88 153.904 306.054C155.231 302.619 156.557 299.186 156.792 298.405C157.104 297.311 157.494 296.922 158.508 296.375C159.054 296.22 159.601 296.063 159.835 296.063ZM144.228 302.542C144.462 302.699 140.482 311.049 136.58 318.699C129.01 333.451 120.738 347.97 109.656 365.61C107.784 368.653 105.989 371.464 105.755 371.776C105.365 372.323 105.208 372.166 103.96 369.747C101.306 364.517 99.1205 357.804 97.9502 351.637C96.7792 345.549 97.0138 334.934 98.341 328.378C99.3544 323.539 99.2774 323.617 101.618 322.446C111.607 317.372 143.916 302.23 144.228 302.542ZM278.845 308.006V311.284C278.845 328.69 276.972 352.575 274.24 369.981C273.771 373.025 273.38 375.522 273.303 375.601C273.303 375.601 271.04 374.977 268.387 374.196C256.682 370.527 243.961 365.141 232.489 358.82C224.918 354.683 213.915 347.891 214.228 347.579C214.305 347.501 217.583 345.784 221.406 343.754C236.704 335.793 251.374 327.207 264.095 318.7C268.855 315.499 276.034 310.348 277.596 308.943L278.845 308.006ZM85.3077 331.109C85.6197 331.109 85.5416 331.733 85.0734 334.543C84.761 336.573 84.3713 340.32 84.2162 342.894C83.5904 354.291 85.4646 362.721 91.0832 374.273C92.6439 377.473 93.8934 380.127 93.8142 380.204C93.2676 380.673 41.6069 395.817 25.3736 400.265C20.5356 401.591 16.3223 402.763 16.0085 402.84C15.4633 402.997 15.3848 402.919 15.6187 401.591C17.4134 390.118 26.1542 375.131 38.3278 362.486C46.4442 354.056 52.9218 349.139 64.0032 342.816C71.9631 338.29 84.2151 331.5 85.1515 331.187C85.1522 331.109 85.2299 331.109 85.3077 331.109ZM207.049 352.886C207.127 352.808 208.999 353.824 211.262 355.15C227.963 364.829 251.218 373.805 271.039 378.41L272.835 378.801L270.337 380.204C259.959 385.981 225.856 400.186 190.973 413.222C185.899 415.094 180.906 416.969 179.968 417.358C179.031 417.748 178.173 417.983 178.173 417.905C178.173 417.826 179.578 415.094 181.372 411.739C191.127 393.474 200.961 371.229 205.955 355.774C206.581 354.291 206.97 352.965 207.049 352.886ZM194.641 356.945C194.72 357.025 194.095 358.663 193.314 360.536C186.525 377.005 177.627 394.959 166.234 415.096C163.347 420.248 160.928 424.385 160.848 424.385C160.772 424.385 158.43 422.979 155.621 421.262C139.075 411.115 124.405 398.627 114.807 386.528L113.401 384.811L120.502 382.859C145.943 375.913 167.559 368.42 189.021 359.21C192.065 357.961 194.563 356.945 194.641 356.945ZM271.743 383.874C271.821 385.669 267.841 401.749 264.563 413.378C261.832 423.134 259.489 430.784 255.198 444.287C253.326 450.22 251.688 455.136 251.609 455.136C251.531 455.136 251.063 455.059 250.595 454.903C227.417 450.687 206.659 444.833 187.149 437.029C181.685 434.842 173.882 431.33 173.414 430.94C173.258 430.782 177.941 428.598 183.872 426.022C219.379 410.489 256.214 392.849 268.855 385.279C270.338 384.342 271.509 383.874 271.743 383.874ZM93.7365 389.963C93.8927 390.118 83.9816 404.403 70.09 423.838C65.2519 430.629 59.6333 438.59 57.5267 441.556C55.4193 444.522 52.2201 449.205 50.425 452.015L47.1459 457.089L43.634 454.123C39.4977 450.688 32.3191 443.351 29.1195 439.292C22.4076 430.941 17.8823 422.121 16.0873 414.082C15.2286 410.335 15.2286 408.461 16.0081 408.228C17.1784 407.916 38.015 402.998 57.5259 398.47C68.3734 395.973 80.9367 393.007 85.4631 391.915C89.9899 390.82 93.6587 389.963 93.7365 389.963ZM103.725 393.787L106.221 396.597C117.46 409.164 128.932 418.454 142.823 426.57C145.321 427.976 147.193 429.223 147.036 429.303C146.491 429.693 98.8081 446.629 76.7234 454.279C64.3159 458.649 54.0921 462.162 54.0151 462.162C53.9373 462.162 53.2345 461.694 52.4529 461.147L51.0491 460.132L53.3119 456.855C60.6471 446.239 69.8571 434.609 89.9129 410.413L103.725 393.787ZM166.001 438.355C166.078 438.278 169.512 439.526 173.725 441.089C183.872 444.913 191.908 447.332 202.679 450.064C215.945 453.421 235.143 456.699 246.459 457.635C248.176 457.791 249.112 457.948 248.8 458.182C248.253 458.495 236.782 462.319 228.354 464.973C214.93 469.187 173.96 481.285 140.56 490.887C134.395 492.682 129.088 494.165 128.776 494.242C127.996 494.399 125.42 493.696 125.42 493.384C125.42 493.228 127.293 490.809 129.556 488.155C140.793 474.729 151.954 459.743 161.24 445.537C163.815 441.633 166.001 438.433 166.001 438.355ZM152.265 438.747C152.343 438.824 146.802 447.722 137.127 463.02C132.99 469.499 128.385 476.836 126.746 479.412C125.185 481.909 122.844 485.813 121.518 487.998L119.255 491.979L118.084 491.667C115.274 490.886 95.5308 483.938 90.3019 481.831C83.8243 479.255 77.1131 476.134 72.1182 473.48C65.8759 470.123 58.0726 465.127 58.6962 464.972C58.852 464.895 69.5437 462.005 82.4194 458.494C116.601 449.204 135.564 443.819 147.973 439.917C150.237 439.214 152.187 438.667 152.265 438.747ZM249.424 461.537H249.501C249.814 462.318 237.172 497.443 232.566 508.526C231.553 511.023 231.164 511.649 230.617 511.569C229.29 511.493 210.951 508.917 199.79 507.277C180.36 504.311 147.739 498.612 139.545 496.74L137.673 496.35L149.299 493.695C174.272 488.075 186.29 485.031 198.464 481.285C213.838 476.601 229.056 470.747 244.429 463.567C246.848 462.474 248.877 461.615 249.424 461.537Z" fill="url(#paint0_linear_13_596)"/>
<path d="M191.441 0.00350954C189.725 -0.229369 162.02 9.76138 144.15 17.0195C120.035 26.8555 101.307 36.2225 89.7564 44.3383C85.465 47.3837 80.0792 52.7688 79.222 54.8758C78.91 55.6565 78.7531 56.5931 78.7531 57.5296L89.2108 67.4426L114.105 75.4041L173.337 86.0197L241.074 97.6499L241.776 91.7959C241.543 91.7959 241.386 91.7182 241.154 91.7182L232.255 90.3126L230.461 87.1128C221.252 70.8772 211.107 50.7391 205.177 37.1576C200.573 26.6201 196.203 14.4449 193.783 5.70238C192.456 0.394758 192.3 0.0826948 191.443 0.0049485V0.00314706H191.441V0.00350954ZM190.191 3.98549H190.272C190.348 4.06251 190.661 6.24949 190.973 8.82375C192.299 19.7529 194.72 30.2886 198.543 41.6849C201.43 50.2712 201.43 49.8032 198.075 48.7879C190.115 46.603 154.451 40.4366 128.621 36.8462C124.484 36.2995 120.972 35.7535 120.972 35.6757C120.66 35.3637 139.623 25.4499 147.973 21.5482C158.665 16.6297 188.007 4.3753 190.191 3.98549ZM114.962 38.9533L118.007 39.9669C134.55 45.5877 176.144 53.5495 199.089 55.4226C201.663 55.6569 203.849 55.8916 203.926 55.8916C204.004 55.9693 201.82 57.1402 199.01 58.4665C187.93 64.0085 175.755 70.7994 167.326 76.0293C164.83 77.5896 162.566 78.8393 162.254 78.8393C161.942 78.8393 160.304 78.5269 158.587 78.2926L155.466 77.8236L147.663 70.1738C133.928 56.8274 123.158 46.5246 119.021 42.6211L114.962 38.9533ZM111.842 41.3724L122.845 55.1105C128.853 62.6818 134.941 70.0965 136.268 71.7349C137.594 73.3751 138.687 74.7026 138.609 74.7803C138.297 75.0143 122.69 71.9696 114.417 70.0972C105.911 68.1452 102.399 67.2087 97.1707 65.5702L92.8782 64.1647V63.0712C92.9559 57.8413 99.5901 50.0365 110.827 42.0758L111.842 41.3724ZM205.332 60.1057C205.645 60.1057 206.034 60.8079 206.97 62.9154C209.623 68.769 217.897 84.5367 219.924 87.5804C220.55 88.5961 221.641 88.6739 210.639 86.8785C184.184 82.5844 175.677 81.1811 175.677 81.0248C175.677 80.9471 176.458 80.4004 177.472 79.8536C185.667 75.3274 193.938 69.5508 201.274 63.3844C203.069 61.9011 204.708 60.4962 205.02 60.2615C205.097 60.1057 205.254 60.028 205.332 60.1057Z" fill="url(#paint1_linear_13_596)"/>
<path d="M79.7664 53.7831C79.7664 53.7831 78.0506 56.5161 79.6891 60.5751C80.7046 63.0719 83.6696 66.1156 87.0246 69.2384C87.0246 69.2384 121.752 103.113 125.966 107.954C145.163 130.12 153.514 151.976 154.294 182.105C154.762 201.462 151.094 218.478 141.964 238.226C125.732 273.662 91.4718 312.768 38.6398 356.166L46.3668 353.59C51.3611 349.843 58.1507 345.863 74.0701 337.121C110.826 316.982 152.187 298.483 202.913 279.438C275.955 251.962 396.059 219.803 464.419 209.345L471.522 208.252L470.429 206.535C464.187 196.856 459.893 190.846 454.742 184.446C439.76 165.869 421.578 150.805 399.336 138.316C368.744 121.223 329.177 107.876 279.078 97.9628C269.635 96.0886 248.877 92.4986 232.02 89.9228C196.278 84.3823 173.179 80.5569 147.738 76.1859C138.609 74.6241 124.951 72.2831 115.898 70.3322C111.216 69.3165 102.242 67.2094 95.2188 64.7899C89.6002 62.6033 81.4834 60.4178 79.7664 53.7831ZM99.9017 73.2974C99.9787 73.2204 101.227 73.6872 102.867 74.2339C105.832 75.2475 109.656 76.4187 114.183 77.6684C117.609 78.6107 121.042 79.5213 124.484 80.4C129.166 81.5702 133.068 82.6633 133.146 82.6633C133.693 83.21 141.575 108.42 144.228 118.099C145.241 121.768 146.023 124.89 145.945 124.89C145.865 124.969 145.008 123.641 143.994 121.846C134.863 105.767 120.426 89.4535 103.725 76.3399C101.541 74.7803 99.9017 73.3751 99.9017 73.2974ZM138.297 83.9126C138.687 83.9126 140.404 84.1469 142.51 84.6149C155.777 87.5807 179.579 92.108 194.796 94.6841C197.372 95.0739 199.401 95.5433 199.401 95.6984C199.401 95.8553 198.464 96.4006 197.293 97.0258C194.719 98.3522 184.339 104.518 180.906 106.86C172.243 112.636 164.44 118.88 158.821 124.5C156.558 126.764 154.606 128.637 154.606 128.637C154.606 128.637 154.139 127.311 153.747 125.67C150.939 114.821 145.086 98.7413 139.779 87.4242C138.92 85.6295 138.217 83.99 138.217 83.8345C138.217 83.9904 138.217 83.9126 138.297 83.9126ZM205.878 96.7915C206.346 96.947 207.127 99.6012 208.687 105.455C211.575 116.773 212.902 129.418 212.434 141.204C212.277 144.482 212.121 147.526 211.964 147.917L211.731 148.697L207.673 147.371C199.323 144.717 185.744 140.735 174.117 137.457C167.483 135.662 162.099 134.023 162.099 133.867C162.099 133.398 171.776 123.72 175.912 120.052C183.792 113.104 205.175 96.5568 205.878 96.7915ZM211.263 97.5711C211.497 97.3383 243.571 102.879 258.164 105.689C269.013 107.796 284.776 111.075 285.712 111.466C286.18 111.621 284.541 112.558 279.312 114.899C258.71 124.188 243.414 132.539 228.198 142.687C224.218 145.341 220.862 147.526 220.784 147.526C220.706 147.526 220.628 145.263 220.628 142.531C220.628 127.701 217.662 112.714 212.199 100.07C211.653 98.8208 211.184 97.6503 211.263 97.5711ZM294.218 113.963C294.452 114.197 293.437 120.52 292.501 124.266C289.692 135.896 282.122 153.147 272.836 169.382C271.196 172.27 269.714 174.612 269.557 174.689C269.402 174.767 267.295 173.596 264.875 172.191C255.823 166.883 245.522 161.888 234.284 157.204C231.164 155.878 228.431 154.784 228.353 154.63C227.806 154.161 252.935 137.535 266.202 129.574C276.737 123.174 293.905 113.651 294.218 113.963ZM300.148 114.9C300.851 114.9 315.054 118.803 322.467 120.988C340.807 126.452 361.877 134.179 375.612 140.423L381.308 143L377.329 143.936C343.773 151.663 315.054 160.562 287.35 171.802C285.087 172.738 283.057 173.519 282.903 173.519C282.746 173.519 283.527 171.724 284.541 169.538C292.892 151.82 298.276 133.321 299.602 117.553C299.681 116.07 299.914 114.9 300.148 114.9ZM158.743 147.371C158.976 147.136 169.824 149.712 175.677 151.35C184.573 153.849 203.458 160.17 203.458 160.639C203.458 160.717 201.352 162.512 198.855 164.699C188.632 173.206 178.799 182.181 167.014 193.578C163.502 196.935 160.538 199.667 160.382 199.667C160.225 199.667 160.148 199.197 160.225 198.573C162.02 185.46 161.631 168.601 159.133 151.507C158.898 149.321 158.665 147.448 158.743 147.371ZM386.694 147.605C386.849 147.76 381.699 155.878 378.422 160.483C373.74 167.195 366.871 176.095 351.341 195.608C343.149 205.91 333.939 217.541 330.896 221.444C327.773 225.346 325.199 228.624 325.12 228.624C325.042 228.624 324.029 227.22 322.936 225.503C314.195 212.389 303.738 200.915 291.329 190.612C288.988 188.66 286.414 186.553 285.556 185.928C284.697 185.304 283.994 184.68 283.994 184.602C283.994 184.368 297.26 178.669 307.328 174.611C324.965 167.43 348.999 158.844 367.027 153.302C376.47 150.336 386.538 147.448 386.694 147.605ZM392.703 149.165C393.014 149.088 394.888 150.024 397.151 151.35C416.115 162.2 434.687 176.172 449.36 190.534C453.495 194.593 463.718 205.209 463.561 205.286C463.561 205.286 459.972 205.599 455.758 205.91C422.904 208.409 380.842 215.355 340.417 225.111C337.686 225.735 335.267 226.282 335.11 226.282C334.956 226.282 337.998 223.238 341.823 219.57C365.546 196.7 376.394 182.26 389.192 156.502C390.986 152.678 392.547 149.4 392.703 149.165C392.625 149.165 392.625 149.165 392.703 149.165ZM218.91 166.963C220.003 167.195 230.148 171.958 237.796 175.782C244.819 179.293 255.355 184.914 255.901 185.382C255.979 185.46 252.232 187.411 247.63 189.675C232.957 197.012 220.394 203.958 207.282 211.92C203.537 214.184 200.415 216.058 200.338 216.058C200.025 216.058 200.103 215.744 202.21 211.92C209.234 199.12 214.852 183.822 218.053 168.913C218.364 167.742 218.677 166.963 218.91 166.963ZM208.765 168.835C208.999 169.07 206.346 178.669 204.708 183.899C201.507 193.812 196.123 206.223 190.895 215.589C189.645 217.774 187.773 220.974 186.758 222.769L184.808 225.891L180.437 221.678C175.365 216.76 171.228 213.716 165.923 210.983C163.814 209.891 162.176 208.954 162.176 208.799C162.176 208.174 175.521 196.076 185.744 187.334C193.079 181.011 208.531 168.601 208.765 168.835ZM270.807 194.359L274.632 196.856C283.37 202.555 293.671 210.125 301.554 216.76C306.001 220.428 314.585 228.156 316.303 230.029L317.238 231.045L310.919 232.84C275.176 242.752 247.551 251.572 215.32 263.437C211.731 264.763 208.687 265.856 208.452 265.856C207.986 265.856 207.594 266.246 215.633 258.83C236.236 239.865 254.496 218.945 268.075 198.573L270.807 194.359ZM254.497 198.418C254.652 198.573 243.961 213.637 237.561 222.146C229.914 232.293 216.335 249.308 206.97 260.391C203.069 264.997 199.714 268.821 199.557 268.9C199.323 268.978 199.245 267.807 199.245 266.012C199.245 256.566 196.826 246.497 192.611 237.912C190.816 234.322 190.504 233.463 190.895 233.073C192.378 231.746 215.087 218.789 229.446 211.062C239.122 205.911 254.261 198.262 254.497 198.418ZM155.855 222.615C156.089 222.615 157.884 223.55 159.914 224.644C164.908 227.375 169.356 230.419 173.336 233.698C173.491 233.854 171.463 235.494 168.81 237.444C161.396 242.752 150.159 251.26 143.604 256.49C136.735 261.954 136.503 262.11 137.282 260.939C142.433 253.055 145.007 248.606 147.74 242.909C150.159 237.836 152.577 231.825 154.294 226.595C154.918 224.332 155.699 222.615 155.855 222.615ZM182.155 243.22C182.544 243.143 183.013 243.845 185.119 246.967C189.568 253.601 193.001 262.5 193.861 269.681L194.016 271.243L183.326 275.38C164.205 282.794 146.569 290.132 134.628 295.595C131.273 297.156 125.42 299.966 121.597 301.84C117.772 303.79 114.651 305.274 114.651 305.196C114.651 305.118 117.07 303.323 120.035 301.136C143.37 284.2 163.581 265.622 178.721 247.046C180.36 245.094 181.843 243.298 181.998 243.221L182.155 243.22ZM170.059 246.187C170.371 246.499 161.475 256.567 155.388 262.733C140.326 278.111 125.421 290.132 106.925 301.84C104.584 303.323 102.477 304.649 102.243 304.806C101.696 305.118 102.398 304.337 110.515 295.517C115.666 289.975 119.567 285.292 124.015 279.517C126.981 275.693 127.527 275.146 131.82 272.1C143.292 263.827 169.746 245.874 170.059 246.187Z" fill="url(#paint2_radial_13_596)"/>
<defs>
<linearGradient id="paint0_linear_13_596" x1="78.1719" y1="464.642" x2="115.509" y2="442.584" gradientUnits="userSpaceOnUse">
<stop stop-color="#909CA9"/>
<stop offset="1" stop-color="#EDEDEE"/>
</linearGradient>
<linearGradient id="paint1_linear_13_596" x1="79.0269" y1="48.6741" x2="109.066" y2="48.6741" gradientUnits="userSpaceOnUse">
<stop stop-color="#939FAB"/>
<stop offset="1" stop-color="#DCDEE1"/>
</linearGradient>
<radialGradient id="paint2_radial_13_596" cx="0" cy="0" r="1" gradientUnits="userSpaceOnUse" gradientTransform="translate(230.607 186.471) rotate(-171.456) scale(38.7295 77.4925)">
<stop stop-color="#EE352C"/>
<stop offset="1" stop-color="#A91D22"/>
</radialGradient>
</defs>
</svg>
