<svg width="356" height="380" viewBox="0 0 356 380" fill="none" xmlns="http://www.w3.org/2000/svg">
<path fill-rule="evenodd" clip-rule="evenodd" d="M300.059 249.137C301.563 248.273 302.813 247.028 303.684 245.527C304.556 244.027 305.017 242.323 305.023 240.587L305.201 183.32C305.206 181.585 305.668 179.881 306.539 178.38C307.411 176.88 308.661 175.635 310.165 174.77L341.186 156.938C342.69 156.074 344.394 155.621 346.128 155.624C347.862 155.627 349.564 156.086 351.065 156.955C352.565 157.824 353.811 159.072 354.677 160.575C355.544 162.078 356 163.783 356 165.518V269.632C356 271.372 355.541 273.082 354.669 274.589C353.797 276.095 352.544 277.345 351.036 278.211L233.961 345.503C232.466 346.362 230.772 346.815 229.048 346.817C227.323 346.819 225.629 346.369 224.132 345.513L132.254 292.927C130.74 292.061 129.482 290.811 128.607 289.303C127.732 287.794 127.271 286.081 127.27 284.337V231.84C127.27 231.78 127.339 231.741 127.399 231.77C127.448 231.8 127.517 231.77 127.517 231.701V231.642C127.517 231.602 127.537 231.562 127.577 231.543L203.246 188.041C203.316 188.001 203.286 187.892 203.207 187.892C203.186 187.892 203.166 187.884 203.151 187.869C203.136 187.854 203.128 187.834 203.128 187.813L203.276 136.345C203.283 134.604 202.831 132.893 201.966 131.383C201.101 129.873 199.853 128.618 198.349 127.745C196.844 126.872 195.136 126.411 193.397 126.41C191.658 126.408 189.949 126.865 188.443 127.735L132.205 160.164C130.704 161.029 129.002 161.484 127.27 161.484C125.538 161.484 123.836 161.029 122.335 160.164L65.9193 127.656C64.4163 126.79 62.7121 126.335 60.9777 126.336C59.2433 126.337 57.5398 126.795 56.038 127.663C54.5362 128.532 53.289 129.78 52.4216 131.283C51.5541 132.786 51.0969 134.49 51.0959 136.226V229.247C51.0971 230.981 50.643 232.684 49.7792 234.187C48.9155 235.69 47.6722 236.94 46.1741 237.81C44.6759 238.681 42.9755 239.143 41.2429 239.149C39.5103 239.156 37.8065 238.706 36.3021 237.846L4.9939 219.935C3.47745 219.068 2.21745 217.815 1.34202 216.303C0.466593 214.79 0.00697343 213.073 0.0099016 211.326L0.28679 48.737C0.290559 47.0037 0.749214 45.3017 1.61685 43.8015C2.48449 42.3014 3.73066 41.0555 5.23066 40.1888C6.73065 39.322 8.43183 38.8647 10.1639 38.8627C11.896 38.8606 13.5983 39.3139 15.1003 40.1771L122.345 101.818C123.844 102.679 125.542 103.133 127.27 103.133C128.998 103.133 130.696 102.679 132.195 101.818L239.41 40.1771C240.914 39.3126 242.619 38.8593 244.354 38.8627C246.088 38.8661 247.792 39.326 249.292 40.1962C250.793 41.0665 252.039 42.3165 252.905 43.8208C253.77 45.3252 254.225 47.0308 254.224 48.7667V211.395C254.224 213.134 253.767 214.844 252.897 216.35C252.027 217.856 250.776 219.106 249.269 219.974L193.12 252.334C191.612 253.204 190.36 254.457 189.491 255.966C188.622 257.476 188.166 259.188 188.17 260.93C188.174 262.672 188.638 264.382 189.514 265.887C190.39 267.393 191.648 268.64 193.16 269.503L224.132 287.147C225.628 288 227.322 288.447 229.044 288.443C230.766 288.44 232.458 287.986 233.951 287.128L300.059 249.137ZM306.556 103.253C306.557 105.003 307.022 106.722 307.904 108.233C308.785 109.745 310.051 110.995 311.573 111.857C313.095 112.719 314.818 113.162 316.567 113.14C318.316 113.119 320.027 112.633 321.527 111.734L351.194 93.9213C352.659 93.0432 353.871 91.8005 354.713 90.3144C355.555 88.8282 355.999 87.1491 356 85.4406V49.1427C355.997 47.3935 355.53 45.6764 354.648 44.1663C353.766 42.6561 352.5 41.407 350.978 40.5461C349.457 39.6852 347.734 39.2433 345.986 39.2654C344.238 39.2875 342.528 39.7728 341.028 40.6719L311.362 58.4844C309.897 59.3625 308.685 60.6052 307.842 62.0914C307 63.5775 306.557 65.2566 306.556 66.9651V103.253Z" fill="#007FFF"/>
</svg>
