<svg width="388" height="388" viewBox="0 0 388 388" fill="none" xmlns="http://www.w3.org/2000/svg">
<g clip-path="url(#clip0_13_605)">
<path fill-rule="evenodd" clip-rule="evenodd" d="M357.394 302.231C336.291 301.643 319.92 303.806 306.199 309.578C302.248 311.165 295.907 311.165 295.387 316.138C297.498 318.224 297.753 321.639 299.604 324.531C302.768 329.78 308.316 336.851 313.325 340.519L330.211 352.586C340.502 358.875 352.112 362.549 362.137 368.844C367.945 372.517 373.747 377.237 379.555 381.175C382.512 383.274 384.304 386.688 388.001 387.993V387.2C386.155 384.849 385.623 381.44 383.784 378.806L375.858 371.206C368.211 360.979 358.707 352.057 348.416 344.721C339.97 338.949 321.505 331.085 318.075 321.387L317.554 320.799C323.35 320.211 330.211 318.172 335.759 316.596C344.737 314.245 352.911 314.762 362.137 312.405L374.812 308.732V306.381C370.062 301.661 366.632 295.366 361.622 290.911C348.167 279.373 333.381 268.093 318.075 258.654C309.895 253.411 299.338 249.996 290.632 245.546C287.456 243.971 282.186 243.183 280.341 240.562C275.58 234.802 272.948 227.19 269.517 220.366L247.882 174.737C243.133 164.51 240.223 154.282 234.427 144.843C207.245 100.26 177.684 73.2518 132.297 46.7608C122.538 41.2534 110.928 38.8846 98.5851 36.0045L78.7954 34.9465C74.5666 33.1127 70.3497 28.1283 66.6532 25.7655C51.6128 16.3258 12.8202 -4.12872 1.73072 22.8266C-5.39614 39.8721 12.2879 56.653 18.291 65.311C22.786 71.3415 28.5821 78.1597 31.7582 84.9779C33.5325 89.4332 34.1239 94.159 35.9752 98.8788C40.1921 110.417 44.1548 123.271 49.6966 134.028C52.6538 139.535 55.7589 145.313 59.4554 150.291C61.5668 153.23 65.2632 154.488 66.0499 159.208C62.3534 164.457 62.0991 172.315 59.9876 178.881C50.4832 208.516 54.1797 245.229 67.635 267.047C71.8638 273.601 81.8296 288.03 95.3499 282.517C107.226 277.797 104.576 262.85 108.007 249.737C108.805 246.592 108.273 244.494 109.852 242.39V242.978L120.675 264.743C128.855 277.592 143.109 290.969 154.979 299.892C161.307 304.612 166.323 312.746 174.236 315.627V314.833H173.716C172.131 312.482 169.753 311.424 167.642 309.59C162.892 304.87 157.617 299.098 153.92 293.855C142.843 279.173 133.084 262.909 124.372 246.128C120.143 237.999 116.447 229.083 113.028 220.954C111.431 217.803 111.431 213.078 108.799 211.514C104.837 217.274 99.0405 222.27 96.1247 229.347C91.1093 240.621 90.5888 254.521 88.7435 268.945C87.6789 269.21 88.1521 268.945 87.6789 269.533C79.245 267.441 76.3351 258.777 73.1709 251.442C65.2574 232.821 63.9325 202.927 70.7932 181.42C72.6385 175.913 80.5639 158.603 77.3997 153.36C75.8028 148.375 70.5389 145.495 67.629 141.557C64.1986 136.573 60.514 130.284 58.1364 124.776C51.808 110.082 48.6438 93.8298 41.7772 79.1413C38.6011 72.3231 33.0653 65.2404 28.5762 58.9512C23.5608 51.8686 18.0308 46.8842 14.0682 38.4967C12.7493 35.5578 10.904 30.8909 13.0154 27.7404C13.5359 25.6421 14.6005 24.8015 16.7001 24.3313C20.1304 21.3925 29.901 25.119 33.3314 26.6824C43.0901 30.6205 51.2698 34.2882 59.4494 39.7898C63.1459 42.4113 67.1086 47.3956 71.8579 48.7122H77.4055C85.8513 50.5461 95.344 49.3 103.252 51.6511C117.239 56.1182 129.902 62.666 141.258 69.7545C175.821 91.5198 204.329 122.466 223.586 159.449C226.75 165.48 228.069 170.987 230.979 177.282C236.527 190.137 243.388 203.244 248.918 215.84C254.465 228.166 259.741 240.762 267.654 250.989C271.617 256.496 287.444 259.376 294.565 262.262C299.846 264.614 308.02 266.73 312.781 269.61C321.748 275.117 330.72 281.412 339.16 287.443C343.376 290.581 356.577 297.141 357.364 302.372L357.394 302.231ZM88.2881 74.3392C84.6422 74.3071 81.0077 74.7478 77.4765 75.6499V76.2377H77.997C80.1084 80.4344 83.805 83.3204 86.4428 86.994L92.5169 99.5841L93.0373 98.9963C96.7338 96.3748 98.5851 92.1781 98.5851 85.889C97 84.0551 96.7398 82.2154 95.4208 80.3815C93.8358 77.76 90.4055 76.4434 88.2881 74.351V74.3392Z" fill="#00678C"/>
</g>
<defs>
<clipPath id="clip0_13_605">
<rect width="388" height="388" fill="white"/>
</clipPath>
</defs>
</svg>
