<svg width="1000" height="966" viewBox="0 0 1000 966" fill="none" xmlns="http://www.w3.org/2000/svg">
<path fill-rule="evenodd" clip-rule="evenodd" d="M579.547 16.0251C572.709 16.0251 566.359 17.4906 560.497 19.4444C572.953 27.7482 579.792 38.7387 583.211 51.1944C583.456 52.904 583.944 54.1252 584.188 55.8347C584.433 57.3002 584.676 58.7656 584.676 60.231C585.654 81.7233 579.059 84.4098 574.419 97.1098C567.336 113.473 569.29 131.058 577.838 145.223C578.57 146.933 579.547 148.887 580.769 150.596C571.488 88.806 623.021 79.5252 632.545 60.231C633.278 43.379 619.357 32.1444 608.367 24.329C597.865 17.979 588.34 16.0251 579.547 16.0251ZM657.213 29.9463C656.236 35.5636 656.968 34.0982 656.725 37.029C656.48 38.9828 656.48 41.4252 656.237 43.379C655.749 45.3329 655.259 47.2867 654.527 49.2406C654.039 51.1944 653.306 53.1483 652.573 55.1021C651.596 57.056 650.864 58.7656 649.887 60.7194C649.154 61.6967 648.666 62.6732 647.933 63.6502C647.445 64.3829 646.956 65.1156 646.468 65.8483C645.246 67.558 644.025 69.2675 642.804 70.7329C641.339 72.1983 640.117 73.9079 638.408 75.1291C638.408 75.3736 638.408 75.3736 638.408 75.3736C636.942 76.5948 635.477 78.0602 633.767 79.2813C628.639 83.189 622.777 86.1198 617.404 89.7832C615.694 91.0044 613.985 91.9814 612.519 93.4467C610.81 94.6678 609.344 95.889 607.879 97.3544C606.169 98.8198 604.948 100.285 603.483 101.995C602.262 103.46 600.796 105.17 599.819 106.879C598.598 108.589 597.377 110.299 596.4 112.008C595.423 113.962 594.69 115.672 593.714 117.626C592.981 119.579 592.248 121.289 591.76 123.243C591.027 125.441 590.539 127.395 590.05 129.349C589.806 130.326 589.806 131.547 589.562 132.524C589.317 133.501 589.317 134.477 589.074 135.454C589.074 137.408 588.829 139.606 588.829 141.56C588.829 143.026 588.829 144.491 589.074 145.956C589.074 147.91 589.318 149.864 589.807 152.062C590.051 154.016 590.539 155.97 591.028 157.924C591.761 159.878 592.249 161.831 592.982 163.785C593.47 165.006 594.203 166.228 594.691 167.204L538.518 145.468C528.993 142.781 519.712 140.339 510.187 138.141C505.058 136.92 499.93 135.699 494.801 134.478C480.147 131.547 465.249 129.349 450.351 127.883C449.863 127.883 449.618 127.639 449.13 127.639C434.476 126.173 420.066 125.441 405.412 125.441C394.666 125.441 383.92 125.929 373.418 126.662C358.52 127.639 343.622 129.593 328.724 132.035C325.06 132.523 321.397 133.256 317.733 133.989C310.162 135.454 302.835 137.164 295.752 138.873C292.089 139.851 288.425 140.827 284.762 141.804C281.099 143.269 277.679 144.979 274.26 146.445C271.574 147.666 268.887 148.887 266.2 150.108C265.712 150.353 265.223 150.353 264.979 150.596C262.537 151.817 260.339 152.794 258.141 154.015C257.408 154.26 256.92 154.503 256.431 154.748C253.745 155.969 251.058 157.435 248.86 158.656C247.15 159.388 245.441 160.365 243.976 161.098C243.243 161.586 242.266 162.075 241.777 162.319C239.579 163.54 237.381 164.761 235.427 165.983C233.229 167.204 231.275 168.425 229.566 169.646C227.856 170.867 226.147 171.844 224.681 173.065C224.436 173.31 224.193 173.31 223.948 173.553C222.483 174.531 220.774 175.751 219.308 176.973C219.308 176.973 219.064 177.217 218.82 177.461C217.599 178.438 216.378 179.415 215.157 180.391C214.668 180.636 214.179 181.124 213.691 181.369C212.47 182.346 211.249 183.567 210.028 184.544C209.783 185.032 209.295 185.277 209.05 185.521C207.585 186.987 206.12 188.208 204.654 189.673C204.41 189.673 204.41 189.918 204.166 190.161C202.701 191.382 201.235 192.848 199.77 194.313C199.525 194.558 199.525 194.801 199.282 194.801C198.061 196.022 196.84 197.244 195.618 198.709C195.13 199.197 194.397 199.686 193.909 200.174C192.688 201.64 191.222 203.105 189.757 204.57C189.512 205.058 189.024 205.303 188.78 205.792C186.826 207.745 185.116 209.699 183.162 211.653C182.918 211.898 182.674 212.141 182.43 212.386C178.522 216.538 174.37 220.69 169.974 224.353C165.578 228.261 160.937 231.924 156.297 235.099C151.412 238.519 146.772 241.449 141.643 244.38C136.758 247.066 131.63 249.509 126.256 251.707C121.128 253.905 115.755 255.859 110.382 257.568C100.124 259.767 89.6218 263.918 80.5853 264.651C78.6314 264.651 76.4333 265.139 74.4795 265.384C72.2814 265.872 70.3276 266.361 68.3738 266.849C66.4199 267.582 64.466 268.315 62.5122 269.047C60.5584 269.78 58.6045 270.757 56.6507 271.734C54.941 272.955 52.9872 273.932 51.2775 275.153C49.568 276.374 47.8583 277.84 46.3929 279.305C44.6834 280.526 42.9737 282.236 41.5083 283.701C40.0429 285.411 38.5775 286.876 37.3564 288.586C36.1353 290.54 34.6699 292.249 33.6929 294.203C32.4718 295.913 31.2506 297.867 30.2737 299.82C29.2964 302.019 28.3198 303.972 27.5871 306.17C26.8544 308.124 26.1218 310.322 25.3891 312.521C24.901 314.474 24.4117 316.428 24.1679 318.382C24.1679 318.627 23.9233 318.87 23.9233 319.115C23.4352 321.313 23.4352 324.244 23.1906 325.709C22.946 327.419 22.7025 328.884 22.7025 330.594C22.7025 331.571 22.7025 332.792 22.9472 333.769C23.1918 335.478 23.4352 336.944 23.9245 338.409C24.4125 339.874 24.9018 341.34 25.634 342.805C25.634 343.05 25.634 343.05 25.634 343.05C26.3667 344.515 27.3437 345.981 28.3205 347.446C29.2979 348.911 30.2745 350.377 31.4956 351.842C32.7167 353.063 34.1821 354.529 35.6475 355.75C37.1129 357.215 38.5783 358.436 40.2879 359.657C46.1495 364.786 47.6149 366.496 55.186 370.404C56.4071 371.136 57.6284 371.625 59.0938 372.358C59.3384 372.358 59.5818 372.602 59.8265 372.602C59.8265 373.09 59.8265 373.335 60.0711 373.823C60.3157 375.777 60.8038 377.731 61.2922 379.685C61.7803 381.883 62.5135 383.837 63.2462 385.546C63.9789 387.012 64.4673 388.477 65.2 389.943C65.4446 390.431 65.6881 390.92 65.9327 391.164C66.91 393.118 67.8865 394.827 68.8634 396.537C70.0846 398.246 71.3057 399.956 72.5269 401.666C73.748 403.131 75.2134 404.841 76.6788 406.306C78.1442 407.771 79.6096 408.993 81.3193 410.458C81.3193 410.458 81.5639 410.703 81.8073 410.703C83.2727 411.924 84.7381 413.145 86.2035 414.122C87.9131 415.343 89.6227 416.32 91.5766 417.297C93.2862 418.274 95.2401 419.251 97.1939 419.984C98.6593 420.716 100.369 421.205 102.078 421.693C102.323 421.938 102.567 421.938 103.056 422.181C104.033 422.426 105.254 422.669 106.231 422.914C105.498 436.102 105.253 448.558 107.208 452.954C109.406 457.839 120.152 442.941 130.898 425.845C129.433 442.697 128.456 462.479 130.898 468.341C133.585 474.447 148.239 455.397 160.939 434.393C334.099 394.339 492.116 514.012 508.724 683.02C505.549 656.643 473.066 641.989 458.168 645.653C450.841 663.726 438.385 686.928 418.358 701.337C420.068 685.218 419.336 668.61 415.916 652.491C410.543 674.96 400.041 695.964 385.631 714.037C362.429 715.747 339.227 704.512 327.016 687.66C326.039 686.928 325.795 685.462 325.062 684.485C324.329 682.776 323.597 681.066 323.108 679.357C322.376 677.647 321.887 675.937 321.643 674.228C321.398 672.518 321.398 670.808 321.398 668.855C321.398 667.633 321.398 666.412 321.398 665.191C321.643 663.481 322.131 661.772 322.619 660.062C323.107 658.353 323.597 656.643 324.329 654.933C325.306 653.224 326.039 651.514 327.26 649.805C331.412 638.081 331.412 628.557 323.841 622.939C322.375 621.962 320.91 621.23 319.2 620.497C318.223 620.252 317.002 619.764 316.025 619.52C315.292 619.275 314.804 619.031 314.071 618.787C312.362 618.299 310.652 617.809 308.942 617.566C307.233 617.078 305.523 616.833 303.814 616.833C302.104 616.588 300.15 616.345 298.44 616.345C297.219 616.345 295.998 616.589 294.777 616.589C292.823 616.589 291.114 616.834 289.404 617.322C287.694 617.567 285.985 617.81 284.275 618.299C282.566 618.788 280.856 619.277 279.146 620.009C277.437 620.742 275.971 621.475 274.262 622.207C272.796 622.94 271.331 623.917 269.621 624.649C212.715 661.773 246.664 748.719 285.496 773.875C270.842 776.561 255.944 779.736 251.792 782.911C251.548 783.156 251.304 783.399 251.304 783.399C261.806 789.749 272.797 795.122 284.275 799.763C299.906 804.892 316.514 809.532 323.841 811.486V811.73C344.112 815.882 364.628 817.348 385.387 816.127C493.582 808.555 582.237 726.249 598.357 617.811C598.845 620.009 599.334 621.963 599.822 624.161C600.555 628.557 601.532 633.197 602.02 637.838C602.02 637.838 602.02 637.838 602.02 638.083C602.508 640.281 602.753 642.479 602.997 644.433C602.997 644.921 602.997 645.165 602.997 645.41C603.242 647.608 603.485 649.806 603.485 651.76C603.73 654.447 603.974 657.133 603.974 659.82C603.974 661.041 603.974 662.262 603.974 663.727C603.974 664.949 604.218 666.414 604.218 667.635C604.218 669.101 603.974 670.566 603.974 672.031C603.974 673.253 603.974 674.474 603.974 675.45C603.974 677.16 603.729 678.625 603.729 680.335C603.729 681.312 603.729 682.289 603.484 683.51C603.484 685.22 603.24 686.929 603.24 688.883C602.995 689.616 602.995 690.349 602.995 691.081C602.75 693.035 602.507 694.745 602.262 696.699C602.262 697.431 602.262 698.164 602.017 698.897C601.772 701.339 601.285 703.537 601.04 705.979V706.224V706.469C600.552 708.667 600.063 711.109 599.575 713.307C599.575 713.552 599.575 713.795 599.575 714.04C599.087 716.238 598.597 718.436 598.109 720.634C598.109 720.879 597.865 721.367 597.865 721.611C597.377 723.81 596.887 726.008 596.155 728.206C596.155 728.45 596.155 728.694 596.155 728.938C595.423 731.381 594.69 733.579 594.201 735.777C593.957 736.021 593.957 736.265 593.957 736.265C593.224 738.707 592.491 741.15 591.759 743.592C590.782 746.034 590.049 748.232 589.072 750.675C588.095 753.117 587.363 755.559 586.386 757.757C585.408 760.2 584.432 762.398 583.455 764.84H583.21C582.233 767.038 581.256 769.48 580.035 771.679C579.79 772.411 579.547 772.9 579.302 773.388C579.058 773.633 579.058 773.876 578.814 774.121C562.939 806.115 539.493 834.202 510.185 856.182C508.231 857.404 506.278 858.869 504.324 860.334C503.836 860.822 503.103 861.067 502.614 861.555C500.904 862.777 499.195 863.998 497.241 865.219L497.974 866.684H498.218C501.637 866.196 505.057 865.707 508.476 865.219H508.721C515.071 864.242 521.421 863.021 527.771 861.8C529.48 861.555 531.434 861.067 533.144 860.578C534.365 860.334 535.342 860.09 536.563 859.846C538.273 859.601 539.982 859.113 541.692 858.868C543.157 858.38 544.623 858.136 546.088 857.647C570.511 851.786 594.201 843.726 616.915 834.201C578.082 887.199 526.061 929.94 465.247 958.026C493.334 956.072 521.421 951.432 548.53 943.617C646.955 914.553 729.75 848.366 779.328 759.222C769.315 815.64 746.846 869.37 713.63 916.263C737.321 900.632 759.057 882.559 778.84 862.043C833.548 804.893 869.45 732.357 881.661 654.447C889.965 693.036 892.407 732.845 888.744 772.166C1065.08 526.226 903.398 271.249 835.746 204.085C835.501 203.597 835.258 203.352 835.258 202.864C835.013 203.109 835.013 203.109 835.013 203.352C835.013 203.108 835.013 203.108 834.768 202.864C834.768 205.795 834.524 208.725 834.28 211.656C833.548 217.274 832.815 222.647 831.838 228.02C830.617 233.393 829.151 238.766 827.686 244.139C825.976 249.268 824.023 254.641 821.824 259.77C819.626 264.654 817.184 269.783 814.498 274.668C811.811 279.308 808.88 284.193 805.705 288.589C802.53 293.23 799.111 297.626 795.692 301.777C792.028 306.174 788.121 310.081 784.213 313.989C781.771 316.187 779.573 318.141 777.13 320.095C775.176 321.804 773.467 323.27 771.513 324.979C767.117 328.399 762.721 331.574 757.836 334.505C753.196 337.435 748.311 340.366 743.426 342.808C738.298 345.251 733.169 347.449 728.04 349.647C722.911 351.601 717.538 353.31 712.165 354.776C706.792 356.241 701.174 357.462 695.801 358.439C690.184 359.416 684.567 359.904 679.194 360.393C675.286 360.638 671.378 360.881 667.471 360.881C661.853 360.881 656.236 360.393 650.863 359.904C645.246 359.416 639.628 358.683 634.255 357.461C628.638 356.484 623.265 355.019 617.892 353.31H617.647C623.02 352.821 628.393 352.332 633.766 351.356C639.384 350.378 644.757 349.158 650.13 347.692C655.503 346.227 660.876 344.517 666.005 342.563C671.378 340.609 676.507 338.167 681.391 335.725C686.52 333.282 691.161 330.596 696.045 327.665C700.686 324.49 705.326 321.315 709.722 317.896C714.118 314.477 718.27 310.813 722.178 306.906C726.33 303.242 729.993 299.09 733.657 294.938C737.32 290.542 740.739 286.146 743.914 281.75C744.403 281.017 744.892 280.04 745.38 279.307C747.822 275.4 750.264 271.492 752.462 267.584C755.149 262.7 757.591 257.815 759.789 252.686C761.988 247.557 763.941 242.429 765.651 237.056C767.361 231.927 768.582 226.554 769.803 221.181C770.78 215.563 771.757 210.19 772.245 204.817C772.733 199.2 773.223 193.582 773.223 188.209C773.223 184.302 772.978 180.394 772.735 176.486C772.246 170.869 771.513 165.496 770.781 160.123C769.803 154.505 768.583 149.132 767.117 143.759C765.408 138.63 763.698 133.257 761.744 128.129C759.79 123 757.348 117.871 754.906 112.986C752.219 108.102 749.533 103.217 746.602 98.5766C743.427 93.9362 740.252 89.5401 736.833 85.1438C733.169 80.9919 729.506 76.84 725.598 72.6881C723.644 70.7343 721.446 68.5362 719.248 66.5824C708.257 58.0342 696.779 49.9746 685.3 42.6477C683.59 41.6704 682.125 40.938 680.415 40.2053C672.356 35.0765 664.784 32.3885 657.213 29.9463Z" fill="#E0234E"/>
</svg>
