<svg width="80" height="91" viewBox="0 0 80 91" fill="none" xmlns="http://www.w3.org/2000/svg">
<path d="M79.5834 68.15V22.7833L40 0.0979004L0.416687 22.7833V68.15L40 90.8333L79.5834 68.15Z" fill="#43A047"/>
<path d="M57.7083 22.0833C54.8312 22.0833 52.5 24.4145 52.5 27.2916V50.7833L29.55 25.1104L29.2771 24.7937C26.6854 21.9541 23.7229 22.0833 22.2916 22.0833C19.4146 22.0833 17.0833 24.4145 17.0833 27.2916V62.7083C17.0833 65.5854 19.4146 67.9166 22.2916 67.9166C25.1687 67.9166 27.5 65.5854 27.5 62.7083V39.0437L50.9958 65.35L51.225 65.6458C53.7916 68.1937 57.2812 67.9166 57.7083 67.9166C60.5854 67.9166 62.9166 65.5854 62.9166 62.7083V27.2916C62.9166 24.4145 60.5854 22.0833 57.7083 22.0833Z" fill="white"/>
</svg>
