<svg width="420" height="375" viewBox="0 0 420 375" fill="none" xmlns="http://www.w3.org/2000/svg">
<g clip-path="url(#clip0_14_54)">
<path d="M258.88 232.316L250.875 246.218C249.69 248.276 247.983 249.985 245.928 251.173C243.872 252.361 241.54 252.986 239.165 252.986H177.832C175.457 252.986 173.125 252.361 171.069 251.173C169.013 249.985 167.307 248.276 166.122 246.218L158.115 232.316H258.88ZM281.294 193.397L267.178 217.909H149.819L135.703 193.397H281.294ZM267.696 155.34L281.317 178.991H135.68L149.301 155.34H267.696ZM239.164 119.362C241.538 119.362 243.871 119.987 245.927 121.176C247.983 122.364 249.69 124.073 250.875 126.13L259.399 140.933H157.598L166.123 126.13C167.309 124.073 169.015 122.364 171.071 121.176C173.126 119.988 175.459 119.362 177.833 119.362H239.165H239.164Z" fill="#00435B"/>
<path d="M88.5701 112.911C81.7761 79.9663 80.3168 54.6978 84.7092 36.3505C87.3212 25.438 92.0951 16.5359 99.3571 10.112C107.023 3.33098 116.715 0.00326461 127.606 0.00326461C145.57 0.00326461 164.457 8.1962 184.639 23.7587C192.872 30.1076 201.416 37.7592 210.289 46.7185C210.996 45.8103 211.793 44.9527 212.684 44.1587C237.77 21.8054 258.89 7.91413 276.955 2.55979C287.697 -0.626083 297.781 -0.929344 306.964 2.16196C316.658 5.42283 324.381 12.1679 329.832 21.613C338.826 37.2016 341.196 57.6848 337.844 82.9777C336.478 93.287 334.141 104.516 330.84 116.684C332.085 116.834 333.334 117.111 334.57 117.52C366.398 128.069 388.937 139.41 402.582 152.374C410.702 160.086 416.002 168.672 417.92 178.177C419.941 188.209 417.968 198.271 412.526 207.709C403.549 223.277 387.042 235.552 363.528 245.276C354.088 249.181 343.404 252.717 331.467 255.898C332.012 257.128 332.436 258.434 332.718 259.803C339.512 292.748 340.97 318.016 336.579 336.364C333.967 347.276 329.191 356.178 321.929 362.602C314.265 369.383 304.572 372.711 293.682 372.711C275.716 372.711 256.831 364.518 236.649 348.955C228.328 342.538 219.69 334.792 210.714 325.709C209.769 327.185 208.626 328.525 207.316 329.69C182.23 352.047 161.11 365.935 143.045 371.291C132.303 374.477 122.219 374.78 113.036 371.689C103.342 368.428 95.6185 361.683 90.1679 352.237C81.1744 336.649 78.8038 316.166 82.156 290.873C83.5728 280.192 86.0299 268.521 89.5223 255.843C88.1302 255.702 86.7579 255.408 85.4299 254.967C53.6022 244.418 31.063 233.077 17.4179 220.114C9.29836 212.402 3.99781 203.816 2.08042 194.31C0.0586846 184.278 2.03151 174.215 7.4739 164.777C16.4511 149.211 32.9576 136.934 56.4717 127.211C66.194 123.189 77.2337 119.56 89.6022 116.305C89.1544 115.208 88.8089 114.072 88.5701 112.911Z" fill="#002B3B"/>
<path d="M310.511 263.043C312.031 262.774 313.595 263.099 314.88 263.952C316.166 264.805 317.074 266.12 317.416 267.624L317.454 267.807L317.791 269.56C328.732 327.075 321.024 355.834 294.672 355.834C268.89 355.834 236.067 331.295 196.207 282.215C195.498 281.343 195.049 280.289 194.91 279.175C194.77 278.06 194.946 276.928 195.418 275.908C195.89 274.888 196.638 274.021 197.578 273.406C198.517 272.79 199.611 272.45 200.734 272.424H200.92L203.02 272.439C219.794 272.53 236.1 271.945 251.94 270.685C270.636 269.196 290.16 266.649 310.511 263.043ZM129.532 219.566L129.633 219.737L130.686 221.574C139.127 236.248 147.92 250.176 157.066 263.358C167.84 278.879 179.954 294.593 193.409 310.5C194.407 311.68 194.912 313.201 194.818 314.744C194.725 316.287 194.039 317.735 192.905 318.786L192.753 318.921L191.4 320.087C146.878 358.234 117.941 365.85 104.589 342.933C91.5179 320.503 96.2576 279.716 118.805 220.573C119.204 219.526 119.889 218.61 120.781 217.932C121.674 217.253 122.738 216.837 123.855 216.733C124.971 216.628 126.095 216.838 127.098 217.338C128.101 217.839 128.944 218.611 129.532 219.566ZM333.103 134.695L333.285 134.755L334.961 135.333C389.915 154.449 410.793 175.458 397.596 198.357C384.69 220.753 347.167 237.06 285.029 247.277C283.903 247.462 282.748 247.323 281.698 246.875C280.648 246.427 279.748 245.689 279.102 244.748C278.456 243.807 278.092 242.701 278.053 241.56C278.013 240.42 278.299 239.291 278.878 238.308C287.777 223.167 295.793 208.105 302.925 193.117C311.012 176.12 318.602 157.873 325.694 138.383C326.209 136.966 327.238 135.795 328.577 135.102C329.916 134.409 331.466 134.244 332.92 134.641L333.103 134.695ZM138.988 125.071C139.668 125.47 140.263 126 140.738 126.629C141.214 127.258 141.561 127.975 141.759 128.739C141.957 129.502 142.003 130.297 141.894 131.078C141.785 131.859 141.524 132.611 141.124 133.291C132.222 148.43 124.207 163.493 117.075 178.482C108.988 195.479 101.398 213.724 94.306 233.216C93.7794 234.663 92.717 235.853 91.3381 236.539C89.9593 237.226 88.3696 237.356 86.8973 236.904L86.7147 236.843L85.0386 236.265C30.0848 217.149 9.20707 196.14 22.4038 173.242C35.3103 150.845 72.8332 134.539 134.971 124.322C136.357 124.094 137.778 124.358 138.988 125.071ZM315.411 30.9163C328.482 53.3478 323.742 94.1348 301.195 153.277C300.796 154.325 300.111 155.24 299.219 155.919C298.326 156.598 297.262 157.013 296.145 157.118C295.029 157.223 293.905 157.013 292.902 156.512C291.899 156.012 291.056 155.24 290.468 154.285L290.367 154.114L289.314 152.276C280.873 137.602 272.08 123.675 262.934 110.493C252.16 94.9712 240.046 79.2571 226.591 63.3505C225.593 62.1701 225.088 60.6499 225.182 59.1066C225.275 57.5632 225.961 56.1154 227.095 55.0647L227.247 54.9293L228.6 53.7636C273.122 15.6163 302.059 8.00053 315.411 30.9163ZM127.582 17.2663C153.365 17.2663 186.187 41.8043 226.047 90.8837C226.755 91.756 227.204 92.8094 227.344 93.9243C227.483 95.0392 227.307 96.1708 226.835 97.1906C226.364 98.2104 225.615 99.0775 224.676 99.6933C223.736 100.309 222.642 100.649 221.519 100.674H221.333L219.233 100.661C202.461 100.57 186.153 101.155 170.315 102.416C151.617 103.904 132.093 106.451 111.742 110.058C110.223 110.326 108.659 110.001 107.374 109.148C106.089 108.295 105.181 106.98 104.839 105.476L104.799 105.292L104.462 103.541C93.5217 46.0239 101.227 17.2663 127.582 17.2663Z" fill="#FF4154"/>
<path d="M182.764 120.114H234.246C237.945 120.114 241.579 121.09 244.779 122.944C247.98 124.797 250.635 127.463 252.476 130.671L278.327 175.714C280.154 178.898 281.116 182.505 281.116 186.176C281.116 189.847 280.154 193.454 278.327 196.639L252.476 241.681C250.635 244.889 247.98 247.554 244.779 249.408C241.578 251.262 237.945 252.238 234.246 252.238H182.764C175.234 252.238 168.28 248.211 164.532 241.681L138.685 196.639C136.857 193.454 135.896 189.847 135.896 186.176C135.896 182.505 136.857 178.898 138.685 175.714L164.534 130.671C166.375 127.463 169.03 124.797 172.231 122.944C175.432 121.09 179.064 120.114 182.764 120.114ZM226.399 133.709C233.932 133.709 240.89 137.741 244.635 144.276L262.661 175.723C264.485 178.905 265.445 182.509 265.445 186.176C265.445 189.843 264.485 193.447 262.661 196.629L244.635 228.077C242.795 231.287 240.139 233.955 236.937 235.81C233.735 237.665 230.1 238.642 226.399 238.642H190.611C183.078 238.642 176.12 234.611 172.374 228.077L154.348 196.629C152.525 193.447 151.565 189.843 151.565 186.176C151.565 182.509 152.525 178.905 154.348 175.723L172.374 144.276C174.215 141.065 176.87 138.398 180.072 136.543C183.274 134.687 186.909 133.71 190.609 133.71L226.399 133.709ZM217.942 148.578H199.068C195.37 148.578 191.738 149.553 188.538 151.406C185.338 153.258 182.683 155.921 180.841 159.127L171.316 175.704C169.485 178.89 168.522 182.501 168.522 186.176C168.522 189.851 169.485 193.462 171.316 196.648L180.841 213.227C182.683 216.433 185.338 219.096 188.538 220.948C191.738 222.8 195.37 223.776 199.068 223.776H217.942C225.468 223.776 232.42 219.752 236.168 213.227L245.693 196.648C247.524 193.462 248.488 189.851 248.488 186.176C248.488 182.501 247.524 178.89 245.693 175.704L236.168 159.126C234.327 155.919 231.672 153.256 228.472 151.404C225.271 149.552 221.639 148.578 217.942 148.578ZM209.799 162.81C217.319 162.81 224.266 166.828 228.016 173.343L229.368 175.691C231.204 178.88 232.17 182.496 232.17 186.176C232.17 189.856 231.204 193.472 229.368 196.661L228.016 199.009C226.173 202.211 223.519 204.87 220.321 206.719C217.123 208.568 213.494 209.542 209.799 209.542H207.21C203.516 209.542 199.887 208.568 196.689 206.719C193.491 204.87 190.837 202.211 188.993 199.009L187.642 196.661C185.806 193.472 184.84 189.856 184.84 186.176C184.84 182.496 185.806 178.88 187.642 175.691L188.993 173.343C190.837 170.141 193.491 167.482 196.689 165.633C199.887 163.784 203.516 162.81 207.21 162.81H209.799ZM208.508 176.83C206.866 176.83 205.253 177.261 203.831 178.081C202.408 178.902 201.227 180.082 200.405 181.503C199.584 182.924 199.152 184.535 199.152 186.176C199.152 187.817 199.584 189.428 200.405 190.849C201.226 192.271 202.407 193.451 203.829 194.272C205.251 195.092 206.864 195.525 208.506 195.525C210.148 195.525 211.76 195.092 213.182 194.272C214.604 193.451 215.785 192.271 216.607 190.849C217.427 189.428 217.859 187.817 217.859 186.176C217.859 184.535 217.427 182.924 216.607 181.503C215.785 180.082 214.605 178.902 213.183 178.082C211.762 177.262 210.149 176.83 208.508 176.83ZM132.678 186.176H149.504Z" fill="#FFD94C"/>
</g>
<defs>
<clipPath id="clip0_14_54">
<rect width="420" height="375" fill="white"/>
</clipPath>
</defs>
</svg>
