<svg width="522" height="495" viewBox="0 0 522 495" fill="none" xmlns="http://www.w3.org/2000/svg">
<path d="M361.928 345.602C381.155 343.613 395.741 327.038 395.078 307.148C394.415 287.258 377.84 271.346 357.95 271.346H356.624C336.071 272.009 320.159 289.247 320.822 309.8C321.485 319.745 325.463 328.364 331.43 334.331C308.888 378.752 274.412 411.239 222.698 438.422C187.559 456.986 151.094 463.616 114.629 458.975C84.794 454.997 61.589 441.737 47.003 419.858C25.787 387.371 23.798 352.232 41.699 317.093C54.296 291.899 74.186 273.335 86.783 264.053C84.131 255.434 80.153 240.848 78.164 230.24C-17.971 299.855 -8.02599 394.001 21.146 438.422C43.025 471.572 87.446 492.125 136.508 492.125C149.768 492.125 163.028 490.799 176.288 487.484C261.152 470.909 325.463 420.521 361.928 345.602Z" fill="#764ABC"/>
<path d="M478.616 263.39C428.228 204.383 353.972 171.896 269.108 171.896H258.5C252.533 159.962 239.936 152.006 226.013 152.006H224.687C204.134 152.669 188.222 169.907 188.885 190.46C189.548 210.35 206.123 226.262 226.013 226.262H227.339C241.925 225.599 254.522 216.317 259.826 203.72H271.76C322.148 203.72 369.884 218.306 412.979 246.815C446.129 268.694 469.997 297.203 483.257 331.679C494.528 359.525 493.865 386.708 481.931 409.913C463.367 445.052 432.206 464.279 391.1 464.279C364.58 464.279 339.386 456.323 326.126 450.356C318.833 456.986 305.573 467.594 296.291 474.224C324.8 487.484 353.972 494.777 381.818 494.777C445.466 494.777 492.539 459.638 510.44 424.499C529.667 386.045 528.341 319.745 478.616 263.39Z" fill="#764ABC"/>
<path d="M141.812 356.873C142.475 376.763 159.05 392.675 178.94 392.675H180.266C200.819 392.012 216.731 374.774 216.068 354.221C215.405 334.331 198.83 318.419 178.94 318.419H177.614C176.288 318.419 174.299 318.419 172.973 319.082C145.79 273.998 134.519 224.936 138.497 171.896C141.149 132.116 154.409 97.64 177.614 69.131C196.841 44.6 233.969 32.666 259.163 32.003C329.441 30.677 359.276 118.193 361.265 153.332C369.884 155.321 384.47 159.962 394.415 163.277C386.459 55.871 320.159 0.179016 256.511 0.179016C196.841 0.179016 141.812 43.274 119.933 106.922C89.435 191.786 109.325 273.335 146.453 337.646C143.138 342.287 141.149 349.58 141.812 356.873Z" fill="#764ABC"/>
</svg>
