<svg width="506" height="298" viewBox="0 0 506 298" fill="none" xmlns="http://www.w3.org/2000/svg">
<path d="M95.536 47.858C95.536 74.218 74.168 95.578 47.816 95.578C21.456 95.578 0.0939941 74.218 0.0939941 47.858C0.0939941 21.498 21.454 0.138 47.814 0.138C74.169 0.138 95.536 21.498 95.536 47.858Z" fill="#F26B00"/>
<path d="M458.18 263.225H191.124C155.874 263.225 127.198 234.551 127.198 199.302C127.198 164.053 155.876 135.376 191.124 135.376H311.904C332.72 135.376 349.657 118.438 349.657 97.62C349.657 76.802 332.719 59.864 311.904 59.864H47.81C40.583 59.864 34.724 54.004 34.724 46.779C34.724 39.552 40.584 33.693 47.809 33.693H311.902C347.152 33.693 375.825 62.371 375.825 97.619C375.825 132.867 347.151 161.542 311.902 161.542H191.122C170.302 161.542 153.366 178.48 153.366 199.302C153.366 220.118 170.304 237.055 191.122 237.055H458.18C465.407 237.055 471.266 242.915 471.266 250.14C471.266 257.366 465.408 263.225 458.181 263.225H458.18Z" fill="#F26B00"/>
<path d="M410.464 250.142C410.464 223.782 431.824 202.422 458.184 202.422C484.544 202.422 505.904 223.782 505.904 250.142C505.904 276.502 484.544 297.862 458.184 297.862C431.824 297.862 410.464 276.502 410.464 250.142Z" fill="#F26B00"/>
</svg>
