<svg width="505" height="119" viewBox="0 0 505 119" fill="none" xmlns="http://www.w3.org/2000/svg">
<g clip-path="url(#clip0_14_127)">
<mask id="mask0_14_127" style="mask-type:luminance" maskUnits="userSpaceOnUse" x="0" y="0" width="505" height="119">
<path d="M505 0H0V119H505V0Z" fill="white"/>
</mask>
<g mask="url(#mask0_14_127)">
<path d="M0 63.001C0.121478 93.3546 24.9897 118.207 55.55 118.207C70.274 118.188 84.3903 112.369 94.8034 102.023C105.216 91.6779 111.077 77.6511 111.1 63.0182V55.1883C111.124 50.5063 112.601 45.9456 115.328 42.1278C118.056 38.3097 121.901 35.4207 126.341 33.8537C130.781 32.2868 135.599 32.1184 140.138 33.3715C144.677 34.6248 148.718 37.2387 151.708 40.8566H187.631C184.439 29.138 177.456 18.7886 167.758 11.4049C158.061 4.02125 146.189 0.0135482 133.973 0C119.248 0.0228168 105.134 5.84698 94.7243 16.1956C84.3142 26.5442 78.4583 40.5728 78.4399 55.2056V63.001C78.4307 69.0328 76.0132 74.8144 71.7183 79.0761C67.4234 83.3381 61.602 85.7318 55.5328 85.7318C49.4692 85.7226 43.657 83.325 39.3695 79.0639C35.0821 74.8031 32.6693 69.0268 32.6601 63.001C32.6601 62.1472 32.4908 61.3017 32.1623 60.513C31.8334 59.724 31.3513 59.0073 30.7438 58.4034C30.1363 57.7998 29.4152 57.3208 28.6214 56.9942C27.8276 56.6672 26.9769 56.4991 26.1177 56.4991H6.52508C4.79293 56.5036 3.13329 57.1908 1.9101 58.4097C0.686901 59.6285 -6.09356e-06 61.2797 0 63.001ZM212.568 118.207C200.364 118.16 188.512 114.138 178.829 106.755C169.146 99.3716 162.167 89.0361 158.962 77.3328H194.833C197.803 80.9896 201.842 83.6397 206.393 84.9178C210.944 86.1959 215.781 86.0385 220.238 84.4674C224.695 82.8963 228.551 79.9891 231.274 76.1472C233.997 72.305 235.453 67.7178 235.441 63.0182V55.1883C235.464 40.5555 241.325 26.5288 251.738 16.1834C262.151 5.83802 276.267 0.0182448 290.991 0C321.239 0 345.898 24.1449 346.525 54.0328L346.697 63.001C346.721 67.683 348.198 72.244 350.925 76.0618C353.652 79.8796 357.498 82.769 361.939 84.3359C366.378 85.9028 371.196 86.0709 375.735 84.8179C380.274 83.5645 384.314 80.9509 387.305 77.3328H423.229C420.041 89.0519 413.06 99.4031 403.367 106.79C393.674 114.176 381.804 118.188 369.586 118.207C339.027 118.207 314.158 93.3374 314.036 63.0182L313.863 54.9126V54.5675C313.688 48.6532 311.202 43.039 306.933 38.9151C302.661 34.7911 296.945 32.4814 290.991 32.4748C284.928 32.484 279.115 34.8819 274.828 39.1427C270.54 43.4035 268.128 49.18 268.118 55.2056V63.001C268.1 77.6368 262.242 91.6681 251.828 102.017C241.414 112.366 227.296 118.188 212.568 118.207ZM430.275 40.8738C433.245 37.2161 437.285 34.565 441.839 33.2876C446.39 32.0101 451.229 32.169 455.688 33.7422C460.144 35.3153 464 38.2252 466.724 42.0701C469.445 45.915 470.898 50.5048 470.883 55.2056C470.883 56.0594 471.052 56.9049 471.379 57.6939C471.709 58.4826 472.19 59.1995 472.799 59.8032C473.405 60.4071 474.127 60.8858 474.92 61.2127C475.716 61.5394 476.566 61.7075 477.424 61.7075H497.036C498.768 61.703 500.425 61.0161 501.649 59.7972C502.873 58.5783 503.559 56.9272 503.559 55.2056C503.541 40.5698 497.683 26.5386 487.269 16.1895C476.857 5.8404 462.737 0.0182549 448.009 0C435.791 0.0145753 423.918 4.02476 414.219 11.4117C404.523 18.7988 397.539 29.152 394.352 40.8738H430.275Z" fill="#111111"/>
</g>
</g>
<defs>
<clipPath id="clip0_14_127">
<rect width="505" height="119" fill="white"/>
</clipPath>
</defs>
</svg>
