<svg width="589" height="420" viewBox="0 0 589 420" fill="none" xmlns="http://www.w3.org/2000/svg">
<path d="M528.335 382.593L433.732 281.888L422.836 289.093C370.405 258.185 331.175 213.603 311.05 146.748C239.388 164.377 155.836 209.593 102.003 270.761C102.013 270.773 102.024 270.784 102.033 270.798C48.574 328.667 14.123 383.122 5 402.927L57.169 403.261C55.154 379.837 61.259 360.31 77.169 338.593C149.336 240.093 420.336 353.593 527.336 415.093L584.336 414.593C584.335 414.593 575.835 377.093 528.335 382.593Z" fill="#D1A41A"/>
<path d="M424.835 289.093C314.708 234.144 284.835 100.093 311.835 8.09302C311.835 8.09302 332.335 17.593 351.835 63.593C396.481 50.794 448.502 49.592 493.835 62.093C493.835 62.093 499.335 26.093 532.335 9.09302C537.327 30.432 570.335 200.093 424.835 289.093Z" fill="#FFDC76"/>
<path d="M226.312 182.717L258.366 167.148L276.683 216.603L226.312 182.717ZM190.367 200.805L210.286 188.899L228.602 221.183L190.367 200.805ZM151.674 225.761L169.073 214.314L177.773 244.078L151.674 225.761ZM459.846 308.185L448.398 296.738L432.372 321.922L459.846 308.185ZM482.742 335.659L473.584 326.501L446.108 344.817L482.742 335.659ZM312.335 135.01L311.024 116.779L343.079 133.035L312.335 135.01ZM322.474 161.654L316.085 148.093L338.5 157.304L322.474 161.654ZM533.112 142.421L537.69 128.685L512.505 139.216L533.112 142.421ZM523.954 170.354L526.243 159.135L507.927 164.63L523.954 170.354ZM301.868 205.842H361.853V213.261H301.868V205.842ZM301.868 187.983H361.853V195.401H301.868V187.983ZM485.031 205.842H545.016V213.261H485.031V205.842ZM485.031 187.983H545.016V195.401H485.031V187.983Z" fill="black"/>
<path d="M543.972 74.471L543.872 74.32C543.83 62.758 540.245 13.89 533.672 0.435989C515.834 7.25499 483.352 29.397 476.1 51.973C440.966 46.682 401.301 47.321 366.394 53.361C360.592 28.961 331.489 10.49 309.502 0C300.231 15.758 296.106 52.22 297.171 78.217C297.132 78.244 297.088 78.27 297.049 78.3C301.129 187.074 354.168 254.802 423.527 295.849C494.927 254.802 545.926 174.759 543.885 74.422C543.914 74.439 543.946 74.453 543.972 74.471ZM424.511 281.747C315.484 227.02 294.859 88.6 313.447 14.944C318.615 43.449 327.999 61.235 348.352 69.901C367.232 64.456 389.175 61.162 411.615 60.136L427.794 97.548L439.762 60.051C460.469 60.879 480.692 63.689 498.407 68.605C517.105 54.922 524.473 33.943 528.326 15.699C533.266 36.953 532.701 82.971 532.723 82.971L532.861 82.216C534.695 172.745 488.884 244.808 424.512 281.749L424.511 281.747Z" fill="black"/>
<path d="M580.139 395.169C568.942 382.558 547.045 376.606 528.686 377.04C515.675 361.464 440.288 281.491 440.288 281.491L435.053 288.104L526.173 386.614L530.116 386.274C554.823 384.145 568.875 397.631 572.729 401.827C575.45 404.907 577.103 407.71 578.011 409.901H527.918C413.225 349.7 312.358 307.284 206.053 297.935C206.288 282.955 208.931 266.011 214.031 247.083L204.193 244.392C198.959 263.822 196.215 281.335 195.897 297.07C184.655 296.318 173.392 295.941 162.125 295.941C152.515 295.941 143.764 296.839 135.831 298.404C125.428 287.937 116.565 277.97 109.085 268.531C158.725 216.537 240.777 169.334 311.95 152.004L309.637 141.97C233.025 160.555 149.158 211.065 102.466 260.094C80.797 230.676 72.093 206.504 69.6 188.261C66.382 165.229 71.86 144.022 85.466 126.918C106.773 100.238 136.919 98.413 168.197 103.658C167.59 108.606 168.236 113.327 170.203 116.245C178.432 128.468 222.562 132.779 249.084 120.92C229.591 93.556 190.15 80.102 179.271 85.346C175.644 87.125 172.924 90.386 171.042 94.216C160.275 92.28 149.6 90.841 141.802 90.887C114.375 91.089 93.295 100.738 77.656 120.304C62.243 139.573 56.01 163.403 59.636 189.4C63.08 214.027 75.185 240.252 95.448 267.389L85.68 278.153C36.267 333.794 0 393.77 0 403.573V408.704H65.279L64.135 402.616C60.44 383.005 67.807 358.376 82.902 340.134C92.377 328.642 108.062 315.505 132.768 309.349C154.664 330.853 182.634 353.589 213.688 375.708H262.194V370.577C262.194 364.784 259.339 359.722 254.171 356.302C246.509 351.263 234.678 350.556 223.798 354.29C213.44 342.685 207.613 327.153 206.367 307.999C311.765 317.394 412.405 360.22 525.964 419.966H588.523L588.521 415.903C587.524 403.903 580.141 395.167 580.141 395.167L580.139 395.169ZM74.676 334.054C59.218 352.822 51.103 377.611 52.916 398.818H11.663C19.936 380.826 52.917 328.81 101.422 276.132C108.132 284.48 115.589 292.894 123.794 301.445C99.993 308.674 84.128 322.105 74.381 334.054H74.676ZM363.498 112.539L363.495 112.538L363.493 112.543L363.498 112.539Z" fill="black"/>
<path d="M503.971 113.386V106.699C479.199 106.699 464.362 116.498 457.264 137.379H403.689C407.435 120.666 408.077 104.273 402.558 94.794C399.445 89.46 394.544 86.621 388.386 86.621C366.315 86.621 357.605 109.242 357.248 110.203L363.495 112.537C363.744 111.71 371.051 93.333 388.449 93.333C392.25 93.333 394.92 94.867 396.851 98.187C401.371 105.971 400.637 121.265 396.882 137.338H366.431V144.024L395.39 144.051C392.299 155.018 387.972 165.847 383.096 174.502L381.518 177.273L419.753 201.313L398.276 215.463L401.963 221.049L426.004 205.228L451.875 222.123L455.424 216.471L431.384 201.611L469.161 177.112C469.148 177.097 469.141 177.083 469.132 177.07L469.002 176.994L469.045 176.987C461.125 165.313 458.628 155.332 461.922 144.025L493.141 144.066L493.208 137.426H464.131C469.627 124.765 477.183 113.386 503.971 113.386ZM425.731 197.165L397.571 179.421L452.749 179.435L425.731 197.165ZM455.126 144.051C452.745 151.606 453.707 162.986 459.545 172.67H391.546C395.69 164.382 399.514 154.285 402.307 144.051H455.126Z" fill="black"/>
</svg>
